G04 EcoSynTech PCB v6.3 - Back Copper*
G04 Board: 200mm x 150mm | 2-Layer | ENIG*
%FSLAX46Y46*%
%MOMM*%
%ADD10C,0.2500*%
%ADD11C,0.6000*%
%ADD12C,0.8000*%
%ADD13R,0.6000X0.2500*%
%ADD15R,0.3000X0.3000*%
%ADD16C,3.2000*%
%ADD17C,0.8000*%
%ADD18C,1.0000*%
%ADD19C,1.6000*%
%ADD20R,1.0000X0.5000*%
%ADD21R,0.3000X0.6000*%
%ADD22R,0.2500X0.5000*%
%ADD23C,0.5000*%
%ADD24C,1.0000*%
%ADD25R,0.8000X0.4000*%

G01*

X50000Y50000D02*

X1950000Y50000D01*

X1950000Y1450000D01*

X50000Y1450000D01*

X50000Y50000D01*

G36*

X10000Y10000D02*

X1990000Y10000D01*

X1990000Y1490000D01*

X10000Y1490000D01*

X10000Y10000D01*

G37*

%ADD11C,0.6000*%

X50000Y50000D03*

X50000Y1450000D03*

X1950000Y50000D03*

X1950000Y1450000D03*

X100000Y150000D03*

X200000Y150000D03*

X1800000Y150000D03*

X1900000Y150000D03*

X100000Y300000D03*

X200000Y300000D03*

X1800000Y300000D03*

X1900000Y300000D03*

X100000Y450000D03*

X200000Y450000D03*

X1800000Y450000D03*

X1900000Y450000D03*

X100000Y600000D03*

X200000Y600000D03*

X1800000Y600000D03*

X1900000Y600000D03*

X100000Y750000D03*

X200000Y750000D03*

X1800000Y750000D03*

X1900000Y750000D03*

X100000Y900000D03*

X200000Y900000D03*

X1800000Y900000D03*

X1900000Y900000D03*

X100000Y1050000D03*

X200000Y1050000D03*

X1800000Y1050000D03*

X1900000Y1050000D03*

X100000Y1200000D03*

X200000Y1200000D03*

X1800000Y1200000D03*

X1900000Y1200000D03*

X100000Y1350000D03*

X200000Y1350000D03*

X1800000Y1350000D03*

X1900000Y1350000D03*

%ADD12C,0.8000*%

X150000Y250000D03*

X600000Y250000D03*

X1150000Y250000D03*

X1550000Y250000D03*

X1850000Y250000D03*

X150000Y400000D03*

X600000Y400000D03*

X1150000Y400000D03*

X1550000Y400000D03*

X1850000Y400000D03*

X150000Y550000D03*

X600000Y550000D03*

X1150000Y550000D03*

X1550000Y550000D03*

X1850000Y550000D03*

X150000Y700000D03*

X600000Y700000D03*

X1150000Y700000D03*

X1550000Y700000D03*

X1850000Y700000D03*

X150000Y850000D03*

X600000Y850000D03*

X1150000Y850000D03*

X1550000Y850000D03*

X1850000Y850000D03*

X150000Y1000000D03*

X600000Y1000000D03*

X1150000Y1000000D03*

X1550000Y1000000D03*

X1850000Y1000000D03*

X150000Y1150000D03*

X600000Y1150000D03*

X1150000Y1150000D03*

X1550000Y1150000D03*

X1850000Y1150000D03*

X150000Y1300000D03*

X600000Y1300000D03*

X1150000Y1300000D03*

X1550000Y1300000D03*

X1850000Y1300000D03*

M02*
