G04 EcoSynTech PCB v6.3 - Front Copper (F.Cu)*
G04 Board: 200mm x 150mm | 2-Layer | ENIG*
%FSLAX46Y46*%
%MOMM*%

%ADD10C,0.2500*%
%ADD11C,0.6000*%
%ADD12C,0.8000*%
%ADD13R,0.6000X0.2500*%
%ADD14R,0.8000X0.3000*%
%ADD15R,0.3000X0.1500*%
%ADD16C,3.2000*%
%ADD17C,0.8000*%
%ADD18C,1.0000*%
%ADD19C,1.6000*%
%ADD20R,0.8000X0.5000*%
%ADD21C,1.0000*%
%ADD22C,0.5000*%
%ADD23R,1.4000X0.9000*%
%ADD24C,0.3000*%
%ADD25R,0.8000X0.6000*%
%ADD26R,0.5000X0.3000*%
%ADD27R,0.3000X0.3000*%
%ADD28C,0.1500*%
%ADD29R,2.2000X1.3500*%
%ADD30C,5.0000*%
G75*
%ADD18C,1.6000*%

X0010000000Y0015460000D18*

G75*
%ADD18C,1.6000*%

X0010000000Y0020540000D18*

G75*
%ADD18C,1.6000*%

X0022000000Y0015460000D18*

G75*
%ADD18C,1.6000*%

X0022000000Y0020540000D18*

G75*
%ADD18C,1.4000*%

X0031250000Y0018000000D18*

G75*
%ADD18C,1.4000*%

X0038750000Y0018000000D18*

G75*
%ADD18C,1.4000*%

X0041000000Y0018000000D18*

G75*
%ADD18C,1.4000*%

X0055000000Y0018000000D18*

%ADD10C,2.2000*%

X0059200000Y0018000000D10*

%ADD10C,2.2000*%

X0064800000Y0018000000D10*

G75*
%ADD18C,1.5000*%

X0071000000Y0018000000D18*

G75*
%ADD18C,1.5000*%

X0079000000Y0018000000D18*

%ADD10C,1.8000*%

X0087600000Y0018000000D10*

%ADD10C,1.8000*%

X0092400000Y0018000000D10*

%ADD25C,0.6000*%

X0101190000Y0016730000D25*

%ADD25C,0.6000*%

X0103730000Y0016730000D25*

%ADD25C,0.6000*%

X0106270000Y0016730000D25*

%ADD25C,0.6000*%

X0108810000Y0016730000D25*

%ADD25C,0.6000*%

X0101190000Y0019270000D25*

%ADD25C,0.6000*%

X0103730000Y0019270000D25*

%ADD25C,0.6000*%

X0106270000Y0019270000D25*

%ADD25C,0.6000*%

X0108810000Y0019270000D25*

%ADD12C,0.8000*%

X0104500000Y0010000000D12*

%ADD12C,0.8000*%

X0105500000Y0010000000D12*

%ADD12C,0.8000*%

X0104500000Y0005000000D12*

%ADD12C,0.8000*%

X0105500000Y0005000000D12*

%ADD12C,0.8000*%

X0104300000Y0027000000D12*

%ADD12C,0.8000*%

X0105700000Y0027000000D12*

G75*
%ADD12C,1.6000*%

X0114250000Y0018000000D12*

G75*
%ADD12C,1.6000*%

X0125750000Y0018000000D12*

%ADD10C,1.4000*%

X0129199999Y0012000000D10*

%ADD10C,1.4000*%

X0130800000Y0012000000D10*

%ADD12C,0.8000*%

X0129500000Y0023000000D12*

%ADD12C,0.8000*%

X0130500000Y0023000000D12*

%ADD25C,0.6000*%

X0068190000Y0032460000D25*

%ADD25C,0.6000*%

X0068190000Y0033730000D25*

%ADD25C,0.6000*%

X0068190000Y0035000000D25*

%ADD25C,0.6000*%

X0068190000Y0036270000D25*

%ADD25C,0.6000*%

X0075810000Y0032460000D25*

%ADD25C,0.6000*%

X0075810000Y0033730000D25*

%ADD25C,0.6000*%

X0075810000Y0035000000D25*

%ADD25C,0.6000*%

X0075810000Y0036270000D25*

%ADD10C,1.4000*%

X0059200000Y0042000000D10*

%ADD10C,1.4000*%

X0060800000Y0042000000D10*

%ADD12C,0.8000*%

X0059500000Y0035000000D12*

%ADD12C,0.8000*%

X0060500000Y0035000000D12*

G75*
%ADD18C,1.4000*%

X0080000000Y0035000000D18*

G75*
%ADD18C,1.4000*%

X0086000000Y0035000000D18*

%ADD10C,1.4000*%

X0092200000Y0042000000D10*

%ADD10C,1.4000*%

X0093800000Y0042000000D10*

%ADD10C,1.4000*%

X0092200000Y0038000000D10*

%ADD10C,1.4000*%

X0093800000Y0038000000D10*

%ADD12C,0.8000*%

X0092500000Y0034000000D12*

%ADD12C,0.8000*%

X0093500000Y0034000000D12*

%ADD12C,0.8000*%

X0081500000Y0028000000D12*

%ADD12C,0.8000*%

X0082500000Y0028000000D12*

%ADD12C,0.8000*%

X0081500000Y0024000000D12*

%ADD12C,0.8000*%

X0082500000Y0024000000D12*

%ADD12C,0.8000*%

X0059500000Y0028000000D12*

%ADD12C,0.8000*%

X0060500000Y0028000000D12*

%ADD10C,1.8000*%

X0087600000Y0050000000D10*

%ADD10C,1.8000*%

X0092400000Y0050000000D10*

G75*
%ADD10C,0.6000*%

X0068000000Y0038000000D10*

G75*
%ADD10C,0.6000*%

X0068000000Y0035000000D10*

G75*
%ADD10C,0.6000*%

X0068000000Y0032000000D10*

G75*
%ADD10C,0.6000*%

X0076000000Y0038000000D10*

G75*
%ADD10C,0.6000*%

X0076000000Y0035000000D10*

G75*
%ADD10C,0.6000*%

X0076000000Y0032000000D10*

%ADD25C,0.6000*%

X0108190000Y0032460000D25*

%ADD25C,0.6000*%

X0108190000Y0033730000D25*

%ADD25C,0.6000*%

X0108190000Y0035000000D25*

%ADD25C,0.6000*%

X0108190000Y0036270000D25*

%ADD25C,0.6000*%

X0115810000Y0032460000D25*

%ADD25C,0.6000*%

X0115810000Y0033730000D25*

%ADD25C,0.6000*%

X0115810000Y0035000000D25*

%ADD25C,0.6000*%

X0115810000Y0036270000D25*

%ADD10C,1.4000*%

X0099200000Y0042000000D10*

%ADD10C,1.4000*%

X0100800000Y0042000000D10*

%ADD12C,0.8000*%

X0099500000Y0035000000D12*

%ADD12C,0.8000*%

X0100500000Y0035000000D12*

G75*
%ADD18C,1.4000*%

X0120000000Y0035000000D18*

G75*
%ADD18C,1.4000*%

X0126000000Y0035000000D18*

%ADD10C,1.4000*%

X0132199999Y0042000000D10*

%ADD10C,1.4000*%

X0133800000Y0042000000D10*

%ADD10C,1.4000*%

X0132199999Y0038000000D10*

%ADD10C,1.4000*%

X0133800000Y0038000000D10*

%ADD12C,0.8000*%

X0132500000Y0034000000D12*

%ADD12C,0.8000*%

X0133500000Y0034000000D12*

%ADD12C,0.8000*%

X0121500000Y0028000000D12*

%ADD12C,0.8000*%

X0122500000Y0028000000D12*

%ADD12C,0.8000*%

X0121500000Y0024000000D12*

%ADD12C,0.8000*%

X0122500000Y0024000000D12*

%ADD12C,0.8000*%

X0099500000Y0028000000D12*

%ADD12C,0.8000*%

X0100500000Y0028000000D12*

G75*
%ADD10C,0.6000*%

X0108000000Y0038000000D10*

G75*
%ADD10C,0.6000*%

X0108000000Y0035000000D10*

G75*
%ADD10C,0.6000*%

X0108000000Y0032000000D10*

G75*
%ADD10C,0.6000*%

X0116000000Y0038000000D10*

G75*
%ADD10C,0.6000*%

X0116000000Y0035000000D10*

G75*
%ADD10C,0.6000*%

X0116000000Y0032000000D10*

%ADD12C,0.8000*%

X0057500000Y0047000000D12*

%ADD12C,0.8000*%

X0058500000Y0047000000D12*

%ADD12C,0.8000*%

X0062500000Y0047000000D12*

%ADD12C,0.8000*%

X0063500000Y0047000000D12*

%ADD12C,0.8000*%

X0065500000Y0047000000D12*

%ADD12C,0.8000*%

X0066500000Y0047000000D12*

%ADD12C,0.8000*%

X0057500000Y0067000000D12*

%ADD12C,0.8000*%

X0058500000Y0067000000D12*

%ADD12C,0.8000*%

X0062500000Y0067000000D12*

%ADD12C,0.8000*%

X0063500000Y0067000000D12*

%ADD12C,0.8000*%

X0065500000Y0067000000D12*

%ADD12C,0.8000*%

X0066500000Y0067000000D12*

%ADD25C,0.6000*%

X0137500000Y0056050000D25*

%ADD25C,0.6000*%

X0137500000Y0057950000D25*

%ADD25C,0.6000*%

X0138500000Y0057000000D25*

%ADD12C,0.8000*%

X0140500000Y0057000000D12*

%ADD12C,0.8000*%

X0141500000Y0057000000D12*

%ADD10C,1.8000*%

X0017600000Y0035000000D10*

%ADD10C,1.8000*%

X0022400000Y0035000000D10*

%ADD10C,1.8000*%

X0024600000Y0035000000D10*

%ADD10C,1.8000*%

X0029400000Y0035000000D10*

%ADD10C,1.4000*%

X0034200000Y0035000000D10*

%ADD10C,1.4000*%

X0035800000Y0035000000D10*

%ADD12C,0.8000*%

X0039500000Y0035000000D12*

%ADD12C,0.8000*%

X0040500000Y0035000000D12*

%ADD20C,0.5000*%

X0156030000Y0053690000D20*

%ADD20C,0.5000*%

X0156030000Y0054960000D20*

%ADD20C,0.5000*%

X0156030000Y0056230000D20*

%ADD20C,0.5000*%

X0156030000Y0057500000D20*

%ADD20C,0.5000*%

X0156030000Y0058770000D20*

%ADD20C,0.5000*%

X0156030000Y0060040000D20*

%ADD20C,0.5000*%

X0156030000Y0061310000D20*

%ADD20C,0.5000*%

X0156030000Y0062580000D20*

%ADD20C,0.5000*%

X0156030000Y0063850000D20*

%ADD20C,0.5000*%

X0156030000Y0065120000D20*

%ADD20C,0.5000*%

X0156030000Y0066390000D20*

%ADD20C,0.5000*%

X0156030000Y0067660000D20*

%ADD20C,0.5000*%

X0156030000Y0068930000D20*

%ADD20C,0.5000*%

X0156030000Y0070200000D20*

%ADD20C,0.5000*%

X0156030000Y0071470000D20*

%ADD20C,0.5000*%

X0156030000Y0072740000D20*

%ADD20C,0.5000*%

X0156030000Y0074010000D20*

%ADD20C,0.5000*%

X0156030000Y0075280000D20*

%ADD20C,0.5000*%

X0156030000Y0076550000D20*

%ADD20C,0.5000*%

X0173970000Y0053690000D20*

%ADD20C,0.5000*%

X0173970000Y0054960000D20*

%ADD20C,0.5000*%

X0173970000Y0056230000D20*

%ADD20C,0.5000*%

X0173970000Y0057500000D20*

%ADD20C,0.5000*%

X0173970000Y0058770000D20*

%ADD20C,0.5000*%

X0173970000Y0060040000D20*

%ADD20C,0.5000*%

X0173970000Y0061310000D20*

%ADD20C,0.5000*%

X0173970000Y0062580000D20*

%ADD20C,0.5000*%

X0173970000Y0063850000D20*

%ADD20C,0.5000*%

X0173970000Y0065120000D20*

%ADD20C,0.5000*%

X0173970000Y0066390000D20*

%ADD20C,0.5000*%

X0173970000Y0067660000D20*

%ADD20C,0.5000*%

X0173970000Y0068930000D20*

%ADD20C,0.5000*%

X0173970000Y0070200000D20*

%ADD20C,0.5000*%

X0173970000Y0071470000D20*

%ADD20C,0.5000*%

X0173970000Y0072740000D20*

%ADD20C,0.5000*%

X0173970000Y0074010000D20*

%ADD20C,0.5000*%

X0173970000Y0075280000D20*

%ADD20C,0.5000*%

X0173970000Y0076550000D20*

%ADD12C,0.8000*%

X0149500000Y0070000000D12*

%ADD12C,0.8000*%

X0150500000Y0070000000D12*

%ADD12C,0.8000*%

X0151500000Y0073000000D12*

%ADD12C,0.8000*%

X0152500000Y0073000000D12*

%ADD12C,0.8000*%

X0153500000Y0076000000D12*

%ADD12C,0.8000*%

X0154500000Y0076000000D12*

%ADD12C,0.8000*%

X0159500000Y0068000000D12*

%ADD12C,0.8000*%

X0160500000Y0068000000D12*

%ADD12C,0.8000*%

X0162500000Y0068000000D12*

%ADD12C,0.8000*%

X0163500000Y0068000000D12*

%ADD12C,0.8000*%

X0165500000Y0068000000D12*

%ADD12C,0.8000*%

X0166500000Y0068000000D12*

%ADD12C,0.8000*%

X0154500000Y0050000000D12*

%ADD12C,0.8000*%

X0155500000Y0050000000D12*

%ADD12C,0.8000*%

X0151500000Y0050000000D12*

%ADD12C,0.8000*%

X0152500000Y0050000000D12*

%ADD12C,0.8000*%

X0154500000Y0053000000D12*

%ADD12C,0.8000*%

X0155500000Y0053000000D12*

%ADD12C,0.8000*%

X0151500000Y0053000000D12*

%ADD12C,0.8000*%

X0152500000Y0053000000D12*

%ADD12C,0.8000*%

X0154500000Y0056000000D12*

%ADD12C,0.8000*%

X0155500000Y0056000000D12*

%ADD12C,0.8000*%

X0151500000Y0056000000D12*

%ADD12C,0.8000*%

X0152500000Y0056000000D12*

%ADD12C,0.8000*%

X0154500000Y0059000000D12*

%ADD12C,0.8000*%

X0155500000Y0059000000D12*

%ADD12C,0.8000*%

X0151500000Y0059000000D12*

%ADD12C,0.8000*%

X0152500000Y0059000000D12*

%ADD12C,0.8000*%

X0039500000Y0045000000D12*

%ADD12C,0.8000*%

X0040500000Y0045000000D12*

%ADD12C,0.8000*%

X0039500000Y0055000000D12*

%ADD12C,0.8000*%

X0040500000Y0055000000D12*

%ADD12C,0.8000*%

X0169500000Y0072000000D12*

%ADD12C,0.8000*%

X0170500000Y0072000000D12*

G75*
%ADD12C,1.4000*%

X0025000000Y0027000000D12*

G75*
%ADD12C,1.4000*%

X0025000000Y0029000000D12*

G75*
%ADD12C,1.4000*%

X0025000000Y0031000000D12*

G75*
%ADD12C,1.4000*%

X0025000000Y0033000000D12*

%ADD18C,1.0000*%

X0023500000Y0030000000D18*

%ADD18C,1.0000*%

X0026500000Y0030000000D18*

G75*
%ADD12C,1.4000*%

X0030000000Y0030000000D12*

G75*
%ADD12C,1.4000*%

X0034000000Y0030000000D12*

%ADD10C,1.8000*%

X0036600000Y0030000000D10*

%ADD10C,1.8000*%

X0041400000Y0030000000D10*

%ADD10C,1.4000*%

X0045200000Y0030000000D10*

%ADD10C,1.4000*%

X0046800000Y0030000000D10*

%ADD25C,0.6000*%

X0052500000Y0028730000D25*

%ADD25C,0.6000*%

X0052500000Y0030000000D25*

%ADD25C,0.6000*%

X0052500000Y0031270000D25*

%ADD25C,0.6000*%

X0053500000Y0028730000D25*

%ADD25C,0.6000*%

X0053500000Y0030000000D25*

%ADD25C,0.6000*%

X0053500000Y0031270000D25*

%ADD20C,0.2500*%

X0032750000Y0050750000D20*

%ADD20C,0.2500*%

X0032750000Y0051500000D20*

%ADD20C,0.2500*%

X0032750000Y0052250000D20*

%ADD20C,0.2500*%

X0032750000Y0053000000D20*

%ADD20C,0.2500*%

X0032750000Y0053750000D20*

%ADD20C,0.2500*%

X0032750000Y0054500000D20*

%ADD20C,0.2500*%

X0032750000Y0055250000D20*

%ADD20C,0.2500*%

X0033500000Y0050750000D20*

%ADD20C,0.2500*%

X0034250000Y0050750000D20*

%ADD20C,0.2500*%

X0035000000Y0050750000D20*

%ADD20C,0.2500*%

X0035750000Y0050750000D20*

%ADD20C,0.2500*%

X0036500000Y0050750000D20*

%ADD20C,0.2500*%

X0037250000Y0050750000D20*

%ADD20C,0.2500*%

X0037250000Y0051500000D20*

%ADD20C,0.2500*%

X0037250000Y0052250000D20*

%ADD20C,0.2500*%

X0037250000Y0053000000D20*

%ADD20C,0.2500*%

X0037250000Y0053750000D20*

%ADD20C,0.2500*%

X0037250000Y0054500000D20*

%ADD20C,0.2500*%

X0037250000Y0055250000D20*

%ADD20C,0.2500*%

X0036500000Y0055250000D20*

%ADD20C,0.2500*%

X0035750000Y0055250000D20*

%ADD20C,0.2500*%

X0035000000Y0055250000D20*

%ADD20C,0.2500*%

X0034250000Y0055250000D20*

%ADD20C,0.2500*%

X0033500000Y0055250000D20*

%ADD20C,0.2500*%

X0032750000Y0055250000D20*

%ADD22C,0.5000*%

X0035000000Y0053000000D22*

%ADD25C,0.6000*%

X0039500000Y0059050000D25*

%ADD25C,0.6000*%

X0039500000Y0060950000D25*

%ADD25C,0.6000*%

X0040500000Y0060000000D25*

%ADD12C,0.8000*%

X0036500000Y0060000000D12*

%ADD12C,0.8000*%

X0037500000Y0060000000D12*

%ADD25C,0.6000*%

X0039500000Y0064050000D25*

%ADD25C,0.6000*%

X0039500000Y0065950000D25*

%ADD25C,0.6000*%

X0040500000Y0065000000D25*

%ADD12C,0.8000*%

X0036500000Y0065000000D12*

%ADD12C,0.8000*%

X0037500000Y0065000000D12*

%ADD25C,0.6000*%

X0049500000Y0056730000D25*

%ADD25C,0.6000*%

X0049500000Y0058000000D25*

%ADD25C,0.6000*%

X0049500000Y0059270000D25*

%ADD25C,0.6000*%

X0050500000Y0056730000D25*

%ADD25C,0.6000*%

X0050500000Y0058000000D25*

%ADD25C,0.6000*%

X0050500000Y0059270000D25*

%ADD12C,0.8000*%

X0057500000Y0058000000D12*

%ADD12C,0.8000*%

X0058500000Y0058000000D12*

%ADD12C,0.8000*%

X0046500000Y0061000000D12*

%ADD12C,0.8000*%

X0047500000Y0061000000D12*

%ADD12C,0.8000*%

X0054500000Y0061000000D12*

%ADD12C,0.8000*%

X0055500000Y0061000000D12*

%ADD12C,0.8000*%

X0049500000Y0064000000D12*

%ADD12C,0.8000*%

X0050500000Y0064000000D12*

%ADD25C,0.6000*%

X0054500000Y0059050000D25*

%ADD25C,0.6000*%

X0054500000Y0060950000D25*

%ADD25C,0.6000*%

X0055500000Y0060000000D25*

%ADD10C,2.2000*%

X0012200000Y0088000000D10*

%ADD10C,2.2000*%

X0017800000Y0088000000D10*

G75*
%ADD12C,1.6000*%

X0021750000Y0088000000D12*

G75*
%ADD12C,1.6000*%

X0034250000Y0088000000D12*

%ADD10C,1.8000*%

X0037600000Y0088000000D10*

%ADD10C,1.8000*%

X0042400000Y0088000000D10*

%ADD25C,0.6000*%

X0147500000Y0092050000D25*

%ADD25C,0.6000*%

X0147500000Y0093950000D25*

%ADD25C,0.6000*%

X0148500000Y0093000000D25*

%ADD12C,0.8000*%

X0154500000Y0093000000D12*

%ADD12C,0.8000*%

X0155500000Y0093000000D12*

%ADD12C,0.8000*%

X0166300000Y0093000000D12*

%ADD12C,0.8000*%

X0167700000Y0093000000D12*

%ADD12C,0.8000*%

X0139500000Y0093000000D12*

%ADD12C,0.8000*%

X0140500000Y0093000000D12*

%ADD25C,0.6000*%

X0147500000Y0109050000D25*

%ADD25C,0.6000*%

X0147500000Y0110950000D25*

%ADD25C,0.6000*%

X0148500000Y0110000000D25*

%ADD12C,0.8000*%

X0154500000Y0110000000D12*

%ADD12C,0.8000*%

X0155500000Y0110000000D12*

%ADD12C,0.8000*%

X0166300000Y0110000000D12*

%ADD12C,0.8000*%

X0167700000Y0110000000D12*

%ADD12C,0.8000*%

X0139500000Y0110000000D12*

%ADD12C,0.8000*%

X0140500000Y0110000000D12*

%ADD25C,0.6000*%

X0147500000Y0126050000D25*

%ADD25C,0.6000*%

X0147500000Y0127950000D25*

%ADD25C,0.6000*%

X0148500000Y0127000000D25*

%ADD12C,0.8000*%

X0154500000Y0127000000D12*

%ADD12C,0.8000*%

X0155500000Y0127000000D12*

%ADD12C,0.8000*%

X0166300000Y0127000000D12*

%ADD12C,0.8000*%

X0167700000Y0127000000D12*

%ADD12C,0.8000*%

X0139500000Y0127000000D12*

%ADD12C,0.8000*%

X0140500000Y0127000000D12*

%ADD25C,0.6000*%

X0147500000Y0143050000D25*

%ADD25C,0.6000*%

X0147500000Y0144950000D25*

%ADD25C,0.6000*%

X0148500000Y0144000000D25*

%ADD12C,0.8000*%

X0154500000Y0144000000D12*

%ADD12C,0.8000*%

X0155500000Y0144000000D12*

%ADD12C,0.8000*%

X0166300000Y0144000000D12*

%ADD12C,0.8000*%

X0167700000Y0144000000D12*

%ADD12C,0.8000*%

X0139500000Y0144000000D12*

%ADD12C,0.8000*%

X0140500000Y0144000000D12*

G75*
%ADD18C,1.4000*%

X0171190000Y0090460000D18*

G75*
%ADD18C,1.4000*%

X0171190000Y0095540000D18*

G75*
%ADD18C,1.4000*%

X0178810000Y0090460000D18*

G75*
%ADD18C,1.4000*%

X0178810000Y0095540000D18*

G75*
%ADD18C,1.4000*%

X0175000000Y0090460000D18*

G75*
%ADD10C,1.4000*%

X0177380000Y0090460000D10*

G75*
%ADD10C,1.4000*%

X0185000000Y0090460000D10*

G75*
%ADD10C,1.4000*%

X0192620000Y0090460000D10*

G75*
%ADD18C,1.4000*%

X0171190000Y0107460000D18*

G75*
%ADD18C,1.4000*%

X0171190000Y0112540000D18*

G75*
%ADD18C,1.4000*%

X0178810000Y0107460000D18*

G75*
%ADD18C,1.4000*%

X0178810000Y0112540000D18*

G75*
%ADD18C,1.4000*%

X0175000000Y0107460000D18*

G75*
%ADD10C,1.4000*%

X0177380000Y0107460000D10*

G75*
%ADD10C,1.4000*%

X0185000000Y0107460000D10*

G75*
%ADD10C,1.4000*%

X0192620000Y0107460000D10*

G75*
%ADD18C,1.4000*%

X0171190000Y0124460000D18*

G75*
%ADD18C,1.4000*%

X0171190000Y0129539999D18*

G75*
%ADD18C,1.4000*%

X0178810000Y0124460000D18*

G75*
%ADD18C,1.4000*%

X0178810000Y0129539999D18*

G75*
%ADD18C,1.4000*%

X0175000000Y0124460000D18*

G75*
%ADD10C,1.4000*%

X0177380000Y0124460000D10*

G75*
%ADD10C,1.4000*%

X0185000000Y0124460000D10*

G75*
%ADD10C,1.4000*%

X0192620000Y0124460000D10*

G75*
%ADD18C,1.4000*%

X0171190000Y0141460000D18*

G75*
%ADD18C,1.4000*%

X0171190000Y0146540000D18*

G75*
%ADD18C,1.4000*%

X0178810000Y0141460000D18*

G75*
%ADD18C,1.4000*%

X0178810000Y0146540000D18*

G75*
%ADD18C,1.4000*%

X0175000000Y0141460000D18*

G75*
%ADD10C,1.4000*%

X0177380000Y0141460000D10*

G75*
%ADD10C,1.4000*%

X0185000000Y0141460000D10*

G75*
%ADD10C,1.4000*%

X0192620000Y0141460000D10*

%ADD25C,0.6000*%

X0044500000Y0092050000D25*

%ADD25C,0.6000*%

X0044500000Y0093950000D25*

%ADD25C,0.6000*%

X0045500000Y0093000000D25*

%ADD25C,0.6000*%

X0054500000Y0092050000D25*

%ADD25C,0.6000*%

X0054500000Y0093950000D25*

%ADD25C,0.6000*%

X0055500000Y0093000000D25*

%ADD12C,0.8000*%

X0064500000Y0093000000D12*

%ADD12C,0.8000*%

X0065500000Y0093000000D12*

%ADD12C,0.8000*%

X0064500000Y0088000000D12*

%ADD12C,0.8000*%

X0065500000Y0088000000D12*

G75*
%ADD10C,1.4000*%

X0047460000Y0043730000D10*

G75*
%ADD10C,1.4000*%

X0050000000Y0043730000D10*

G75*
%ADD10C,1.4000*%

X0052540000Y0043730000D10*

G75*
%ADD10C,1.4000*%

X0036190000Y0035000000D10*

G75*
%ADD10C,1.4000*%

X0040000000Y0035000000D10*

G75*
%ADD10C,1.4000*%

X0043810000Y0035000000D10*

%ADD12C,0.8000*%

X0047500000Y0038000000D12*

%ADD12C,0.8000*%

X0048500000Y0038000000D12*

%ADD12C,0.8000*%

X0054300000Y0040000000D12*

%ADD12C,0.8000*%

X0055700000Y0040000000D12*

G75*
%ADD10C,1.4000*%

X0048730000Y0052460000D10*

G75*
%ADD10C,1.4000*%

X0050000000Y0052460000D10*

G75*
%ADD10C,1.4000*%

X0051270000Y0052460000D10*

G75*
%ADD10C,1.4000*%

X0036190000Y0045000000D10*

G75*
%ADD10C,1.4000*%

X0040000000Y0045000000D10*

G75*
%ADD10C,1.4000*%

X0043810000Y0045000000D10*

%ADD12C,0.8000*%

X0047500000Y0048000000D12*

%ADD12C,0.8000*%

X0048500000Y0048000000D12*

%ADD12C,0.8000*%

X0054300000Y0050000000D12*

%ADD12C,0.8000*%

X0055700000Y0050000000D12*

%ADD26C,0.3000*%

X0080050000Y0051500000D26*

%ADD26C,0.3000*%

X0080050000Y0052500000D26*

%ADD26C,0.3000*%

X0080050000Y0053500000D26*

%ADD26C,0.3000*%

X0080050000Y0054500000D26*

%ADD26C,0.3000*%

X0083950000Y0051500000D26*

%ADD26C,0.3000*%

X0083950000Y0052500000D26*

%ADD26C,0.3000*%

X0083950000Y0053500000D26*

%ADD26C,0.3000*%

X0083950000Y0054500000D26*

%ADD12C,0.8000*%

X0086500000Y0057000000D12*

%ADD12C,0.8000*%

X0087500000Y0057000000D12*

%ADD12C,0.8000*%

X0089500000Y0057000000D12*

%ADD12C,0.8000*%

X0090500000Y0057000000D12*

%ADD12C,0.8000*%

X0074500000Y0048000000D12*

%ADD12C,0.8000*%

X0075500000Y0048000000D12*

%ADD12C,0.8000*%

X0077300000Y0048000000D12*

%ADD12C,0.8000*%

X0078700000Y0048000000D12*

%ADD12C,0.8000*%

X0077500000Y0048000000D12*

%ADD12C,0.8000*%

X0078500000Y0048000000D12*

%ADD12C,0.8000*%

X0080300000Y0048000000D12*

%ADD12C,0.8000*%

X0081700000Y0048000000D12*

%ADD12C,0.8000*%

X0080500000Y0048000000D12*

%ADD12C,0.8000*%

X0081500000Y0048000000D12*

%ADD12C,0.8000*%

X0083300000Y0048000000D12*

%ADD12C,0.8000*%

X0084700000Y0048000000D12*

%ADD12C,0.8000*%

X0083500000Y0048000000D12*

%ADD12C,0.8000*%

X0084500000Y0048000000D12*

%ADD12C,0.8000*%

X0086300000Y0048000000D12*

%ADD12C,0.8000*%

X0087700000Y0048000000D12*

G75*
%ADD10C,1.4000*%

X0099800000Y0060000000D10*

G75*
%ADD10C,1.4000*%

X0103610000Y0060000000D10*

G75*
%ADD10C,1.4000*%

X0107420000Y0060000000D10*

G75*
%ADD10C,1.4000*%

X0111230000Y0060000000D10*

G75*
%ADD10C,1.4000*%

X0115040000Y0060000000D10*

G75*
%ADD10C,1.4000*%

X0118850000Y0060000000D10*

G75*
%ADD18C,1.6000*%

X0190000000Y0025460000D18*

G75*
%ADD18C,1.6000*%

X0190000000Y0030540000D18*

%ADD12C,0.8000*%

X0177500000Y0028000000D12*

%ADD12C,0.8000*%

X0178500000Y0028000000D12*

%ADD12C,0.8000*%

X0174500000Y0025000000D12*

%ADD12C,0.8000*%

X0175500000Y0025000000D12*

%ADD12C,0.8000*%

X0177500000Y0022000000D12*

%ADD12C,0.8000*%

X0178500000Y0022000000D12*

%ADD12C,0.8000*%

X0172500000Y0028000000D12*

%ADD12C,0.8000*%

X0173500000Y0028000000D12*

%ADD25C,0.6000*%

X0169500000Y0027050000D25*

%ADD25C,0.6000*%

X0169500000Y0028950000D25*

%ADD25C,0.6000*%

X0170500000Y0028000000D25*

G75*
%ADD10C,1.4000*%

X0036190000Y0055000000D10*

G75*
%ADD10C,1.4000*%

X0040000000Y0055000000D10*

G75*
%ADD10C,1.4000*%

X0043810000Y0055000000D10*

%ADD12C,0.8000*%

X0034500000Y0055000000D12*

%ADD12C,0.8000*%

X0035500000Y0055000000D12*

%ADD12C,0.8000*%

X0031500000Y0055000000D12*

%ADD12C,0.8000*%

X0032500000Y0055000000D12*

%ADD12C,0.8000*%

X0028300000Y0055000000D12*

%ADD12C,0.8000*%

X0029700000Y0055000000D12*

G75*
%ADD10C,1.4000*%

X0029290000Y0023000000D10*

G75*
%ADD10C,1.4000*%

X0033100000Y0023000000D10*

G75*
%ADD10C,1.4000*%

X0036900000Y0023000000D10*

G75*
%ADD10C,1.4000*%

X0040710000Y0023000000D10*

G75*
%ADD10C,1.4000*%

X0029290000Y0025000000D10*

G75*
%ADD10C,1.4000*%

X0033100000Y0025000000D10*

G75*
%ADD10C,1.4000*%

X0036900000Y0025000000D10*

G75*
%ADD10C,1.4000*%

X0040710000Y0025000000D10*

%ADD12C,0.8000*%

X0059500000Y0043000000D12*

%ADD12C,0.8000*%

X0060500000Y0043000000D12*

%ADD12C,0.8000*%

X0059500000Y0048000000D12*

%ADD12C,0.8000*%

X0060500000Y0048000000D12*

%ADD12C,0.8000*%

X0047500000Y0043000000D12*

%ADD12C,0.8000*%

X0048500000Y0043000000D12*

%ADD12C,0.8000*%

X0047500000Y0048000000D12*

%ADD12C,0.8000*%

X0048500000Y0048000000D12*

%ADD12C,0.8000*%

X0042300000Y0043000000D12*

%ADD12C,0.8000*%

X0043700000Y0043000000D12*

%ADD12C,0.8000*%

X0042300000Y0048000000D12*

%ADD12C,0.8000*%

X0043700000Y0048000000D12*

%ADD26C,0.3000*%

X0125500000Y0053500000D26*

%ADD26C,0.3000*%

X0125500000Y0054500000D26*

%ADD26C,0.3000*%

X0125500000Y0055500000D26*

%ADD26C,0.3000*%

X0125500000Y0056500000D26*

%ADD26C,0.3000*%

X0129500000Y0053500000D26*

%ADD26C,0.3000*%

X0129500000Y0054500000D26*

%ADD26C,0.3000*%

X0129500000Y0055500000D26*

%ADD26C,0.3000*%

X0129500000Y0056500000D26*

%ADD26C,0.3000*%

X0141190000Y0053730000D26*

%ADD26C,0.3000*%

X0141190000Y0055000000D26*

%ADD26C,0.3000*%

X0141190000Y0056270000D26*

%ADD26C,0.3000*%

X0148810000Y0053730000D26*

%ADD26C,0.3000*%

X0148810000Y0055000000D26*

%ADD26C,0.3000*%

X0148810000Y0056270000D26*

G75*
%ADD11C,1.4000*%

X0135000000Y0076500000D11*

G75*
%ADD11C,1.4000*%

X0137500000Y0076500000D11*

G75*
%ADD11C,1.4000*%

X0140000000Y0076500000D11*

G75*
%ADD11C,1.4000*%

X0142500000Y0076500000D11*

G75*
%ADD11C,1.4000*%

X0145000000Y0076500000D11*

G75*
%ADD11C,1.4000*%

X0135000000Y0080000000D11*

G75*
%ADD11C,1.4000*%

X0145000000Y0080000000D11*

%ADD10C,1.2000*%

X0135000000Y0083500000D10*

%ADD10C,1.2000*%

X0145000000Y0083500000D10*

%ADD12C,0.8000*%

X0133500000Y0083000000D12*

%ADD12C,0.8000*%

X0134500000Y0083000000D12*

%ADD12C,0.8000*%

X0133500000Y0080000000D12*

%ADD12C,0.8000*%

X0134500000Y0080000000D12*

%ADD12C,0.8000*%

X0133500000Y0077000000D12*

%ADD12C,0.8000*%

X0134500000Y0077000000D12*

%ADD12C,0.8000*%

X0133500000Y0074000000D12*

%ADD12C,0.8000*%

X0134500000Y0074000000D12*

%ADD12C,0.8000*%

X0133500000Y0071000000D12*

%ADD12C,0.8000*%

X0134500000Y0071000000D12*

%ADD12C,0.8000*%

X0136500000Y0083000000D12*

%ADD12C,0.8000*%

X0137500000Y0083000000D12*

%ADD26C,0.3000*%

X0046800000Y0107200000D26*

%ADD26C,0.3000*%

X0046800000Y0107900000D26*

%ADD26C,0.3000*%

X0046800000Y0108600000D26*

%ADD26C,0.3000*%

X0046800000Y0109300000D26*

%ADD26C,0.3000*%

X0046800000Y0110000000D26*

%ADD26C,0.3000*%

X0046800000Y0110700000D26*

%ADD26C,0.3000*%

X0046800000Y0111400000D26*

%ADD26C,0.3000*%

X0046800000Y0112100000D26*

%ADD26C,0.3000*%

X0053200000Y0107200000D26*

%ADD26C,0.3000*%

X0053200000Y0107900000D26*

%ADD26C,0.3000*%

X0053200000Y0108600000D26*

%ADD26C,0.3000*%

X0053200000Y0109300000D26*

%ADD26C,0.3000*%

X0053200000Y0110000000D26*

%ADD26C,0.3000*%

X0053200000Y0110700000D26*

%ADD26C,0.3000*%

X0053200000Y0111400000D26*

%ADD26C,0.3000*%

X0053200000Y0112100000D26*

%ADD26C,0.3000*%

X0046800000Y0122200000D26*

%ADD26C,0.3000*%

X0046800000Y0122900000D26*

%ADD26C,0.3000*%

X0046800000Y0123600000D26*

%ADD26C,0.3000*%

X0046800000Y0124300000D26*

%ADD26C,0.3000*%

X0046800000Y0125000000D26*

%ADD26C,0.3000*%

X0046800000Y0125700000D26*

%ADD26C,0.3000*%

X0046800000Y0126400000D26*

%ADD26C,0.3000*%

X0046800000Y0127100000D26*

%ADD26C,0.3000*%

X0053200000Y0122200000D26*

%ADD26C,0.3000*%

X0053200000Y0122900000D26*

%ADD26C,0.3000*%

X0053200000Y0123600000D26*

%ADD26C,0.3000*%

X0053200000Y0124300000D26*

%ADD26C,0.3000*%

X0053200000Y0125000000D26*

%ADD26C,0.3000*%

X0053200000Y0125700000D26*

%ADD26C,0.3000*%

X0053200000Y0126400000D26*

%ADD26C,0.3000*%

X0053200000Y0127100000D26*

%ADD12C,0.8000*%

X0104500000Y0115000000D12*

%ADD12C,0.8000*%

X0105500000Y0115000000D12*

%ADD12C,0.8000*%

X0107500000Y0115000000D12*

%ADD12C,0.8000*%

X0108500000Y0115000000D12*

%ADD12C,0.8000*%

X0119500000Y0130000000D12*

%ADD12C,0.8000*%

X0120500000Y0130000000D12*

%ADD12C,0.8000*%

X0122500000Y0130000000D12*

%ADD12C,0.8000*%

X0123500000Y0130000000D12*

%ADD25C,0.6000*%

X0147500000Y0092050000D25*

%ADD25C,0.6000*%

X0147500000Y0093950000D25*

%ADD25C,0.6000*%

X0148500000Y0093000000D25*

%ADD12C,0.8000*%

X0154500000Y0093000000D12*

%ADD12C,0.8000*%

X0155500000Y0093000000D12*

%ADD12C,0.8000*%

X0161300000Y0093000000D12*

%ADD12C,0.8000*%

X0162700000Y0093000000D12*

G75*
%ADD18C,1.4000*%

X0164190000Y0090460000D18*

G75*
%ADD18C,1.4000*%

X0164190000Y0095540000D18*

G75*
%ADD18C,1.4000*%

X0171810000Y0090460000D18*

G75*
%ADD18C,1.4000*%

X0171810000Y0095540000D18*

G75*
%ADD18C,1.4000*%

X0168000000Y0090460000D18*

G75*
%ADD10C,1.4000*%

X0170380000Y0090460000D10*

G75*
%ADD10C,1.4000*%

X0178000000Y0090460000D10*

G75*
%ADD10C,1.4000*%

X0185620000Y0090460000D10*

%ADD25C,0.6000*%

X0147500000Y0109050000D25*

%ADD25C,0.6000*%

X0147500000Y0110950000D25*

%ADD25C,0.6000*%

X0148500000Y0110000000D25*

%ADD12C,0.8000*%

X0154500000Y0110000000D12*

%ADD12C,0.8000*%

X0155500000Y0110000000D12*

%ADD12C,0.8000*%

X0161300000Y0110000000D12*

%ADD12C,0.8000*%

X0162700000Y0110000000D12*

G75*
%ADD18C,1.4000*%

X0164190000Y0107460000D18*

G75*
%ADD18C,1.4000*%

X0164190000Y0112540000D18*

G75*
%ADD18C,1.4000*%

X0171810000Y0107460000D18*

G75*
%ADD18C,1.4000*%

X0171810000Y0112540000D18*

G75*
%ADD18C,1.4000*%

X0168000000Y0107460000D18*

G75*
%ADD10C,1.4000*%

X0170380000Y0107460000D10*

G75*
%ADD10C,1.4000*%

X0178000000Y0107460000D10*

G75*
%ADD10C,1.4000*%

X0185620000Y0107460000D10*

%ADD25C,0.6000*%

X0147500000Y0126050000D25*

%ADD25C,0.6000*%

X0147500000Y0127950000D25*

%ADD25C,0.6000*%

X0148500000Y0127000000D25*

%ADD12C,0.8000*%

X0154500000Y0127000000D12*

%ADD12C,0.8000*%

X0155500000Y0127000000D12*

%ADD12C,0.8000*%

X0161300000Y0127000000D12*

%ADD12C,0.8000*%

X0162700000Y0127000000D12*

G75*
%ADD18C,1.4000*%

X0164190000Y0124460000D18*

G75*
%ADD18C,1.4000*%

X0164190000Y0129539999D18*

G75*
%ADD18C,1.4000*%

X0171810000Y0124460000D18*

G75*
%ADD18C,1.4000*%

X0171810000Y0129539999D18*

G75*
%ADD18C,1.4000*%

X0168000000Y0124460000D18*

G75*
%ADD10C,1.4000*%

X0170380000Y0124460000D10*

G75*
%ADD10C,1.4000*%

X0178000000Y0124460000D10*

G75*
%ADD10C,1.4000*%

X0185620000Y0124460000D10*

%ADD25C,0.6000*%

X0147500000Y0143050000D25*

%ADD25C,0.6000*%

X0147500000Y0144950000D25*

%ADD25C,0.6000*%

X0148500000Y0144000000D25*

%ADD12C,0.8000*%

X0154500000Y0144000000D12*

%ADD12C,0.8000*%

X0155500000Y0144000000D12*

%ADD12C,0.8000*%

X0161300000Y0144000000D12*

%ADD12C,0.8000*%

X0162700000Y0144000000D12*

G75*
%ADD18C,1.4000*%

X0164190000Y0141460000D18*

G75*
%ADD18C,1.4000*%

X0164190000Y0146540000D18*

G75*
%ADD18C,1.4000*%

X0171810000Y0141460000D18*

G75*
%ADD18C,1.4000*%

X0171810000Y0146540000D18*

G75*
%ADD18C,1.4000*%

X0168000000Y0141460000D18*

G75*
%ADD10C,1.4000*%

X0170380000Y0141460000D10*

G75*
%ADD10C,1.4000*%

X0178000000Y0141460000D10*

G75*
%ADD10C,1.4000*%

X0185620000Y0141460000D10*

%ADD18C,1.0000*%

X0005000000Y0000000000D18*

%ADD18C,1.0000*%

X0005000000Y0003000000D18*

%ADD18C,1.0000*%

X0005000000Y0006000000D18*

%ADD18C,1.0000*%

X0005000000Y0009000000D18*

%ADD18C,1.0000*%

X0005000000Y0012000000D18*

%ADD18C,1.0000*%

X0005000000Y0015000000D18*

%ADD18C,1.0000*%

X0005000000Y0018000000D18*

%ADD18C,1.0000*%

X0005000000Y0021000000D18*

%ADD18C,1.0000*%

X0005000000Y0024000000D18*

%ADD18C,1.0000*%

X0005000000Y0027000000D18*

%ADD18C,1.0000*%

X0005000000Y0030000000D18*

%ADD18C,1.0000*%

X0005000000Y0033000000D18*

%ADD18C,1.0000*%

X0005000000Y0036000000D18*

%ADD18C,1.0000*%

X0005000000Y0039000000D18*

%ADD18C,1.0000*%

X0005000000Y0042000000D18*

%ADD18C,1.0000*%

X0005000000Y0045000000D18*

G75*
%ADD10C,1.4000*%

X0186190000Y0020000000D10*

G75*
%ADD10C,1.4000*%

X0193810000Y0020000000D10*

G75*
%ADD12C,1.4000*%

X0087460000Y0047580000D12*

G75*
%ADD12C,1.4000*%

X0090000000Y0047580000D12*

G75*
%ADD12C,1.4000*%

X0092540000Y0047580000D12*

G75*
%ADD12C,1.4000*%

X0087460000Y0045040000D12*

G75*
%ADD12C,1.4000*%

X0090000000Y0045040000D12*

G75*
%ADD12C,1.4000*%

X0092540000Y0045040000D12*

G75*
%ADD12C,1.4000*%

X0087460000Y0042500000D12*

G75*
%ADD12C,1.4000*%

X0090000000Y0042500000D12*

G75*
%ADD12C,1.4000*%

X0092540000Y0042500000D12*

G75*
%ADD12C,1.4000*%

X0087460000Y0039960000D12*

G75*
%ADD12C,1.4000*%

X0090000000Y0039960000D12*

G75*
%ADD12C,1.4000*%

X0092540000Y0039960000D12*

G75*
%ADD12C,1.4000*%

X0087460000Y0037420000D12*

G75*
%ADD12C,1.4000*%

X0090000000Y0037420000D12*

G75*
%ADD12C,1.4000*%

X0092540000Y0037420000D12*

%ADD25C,0.6000*%

X0074500000Y0039050000D25*

%ADD25C,0.6000*%

X0074500000Y0040950000D25*

%ADD25C,0.6000*%

X0075500000Y0040000000D25*

%ADD25C,0.6000*%

X0074500000Y0043050000D25*

%ADD25C,0.6000*%

X0074500000Y0044950000D25*

%ADD25C,0.6000*%

X0075500000Y0044000000D25*

%ADD25C,0.6000*%

X0074500000Y0047050000D25*

%ADD25C,0.6000*%

X0074500000Y0048950000D25*

%ADD25C,0.6000*%

X0075500000Y0048000000D25*

%ADD25C,0.6000*%

X0074500000Y0051050000D25*

%ADD25C,0.6000*%

X0074500000Y0052950000D25*

%ADD25C,0.6000*%

X0075500000Y0052000000D25*

G75*
%ADD16C,5.0000*%

X0005000000Y0005000000D16*

G75*
%ADD16C,5.0000*%

X0005000000Y0145000000D16*

G75*
%ADD16C,5.0000*%

X0195000000Y0005000000D16*

G75*
%ADD16C,5.0000*%

X0195000000Y0145000000D16*

%ADD18C,1.0000*%

G01*
X0005000000Y0018000000Y0005000000Y0018000000D02*

X0010000000Y0018000000Y0010000000Y0018000000D01*

%ADD18C,1.0000*%

G01*
X0022000000Y0018000000Y0022000000Y0018000000D02*

X0035000000Y0018000000Y0035000000Y0018000000D01*

%ADD18C,1.0000*%

G01*
X0035000000Y0018000000Y0035000000Y0018000000D02*

X0048000000Y0018000000Y0048000000Y0018000000D01*

%ADD18C,1.0000*%

G01*
X0048000000Y0018000000Y0048000000Y0018000000D02*

X0062000000Y0018000000Y0062000000Y0018000000D01*

%ADD18C,1.0000*%

G01*
X0062000000Y0018000000Y0062000000Y0018000000D02*

X0075000000Y0018000000Y0075000000Y0018000000D01*

%ADD18C,1.0000*%

G01*
X0075000000Y0018000000Y0075000000Y0018000000D02*

X0090000000Y0018000000Y0090000000Y0018000000D01*

%ADD18C,1.0000*%

G01*
X0090000000Y0018000000Y0090000000Y0018000000D02*

X0105000000Y0018000000Y0105000000Y0018000000D01*

%ADD18C,1.0000*%

G01*
X0105000000Y0018000000Y0105000000Y0018000000D02*

X0120000000Y0018000000Y0120000000Y0018000000D01*

%ADD18C,1.0000*%

G01*
X0120000000Y0018000000Y0120000000Y0018000000D02*

X0130000000Y0018000000Y0130000000Y0018000000D01*

%ADD18C,1.0000*%

G01*
X0060000000Y0042000000Y0060000000Y0042000000D02*

X0072000000Y0035000000Y0072000000Y0035000000D01*

%ADD18C,1.0000*%

G01*
X0060000000Y0035000000Y0060000000Y0035000000D02*

X0072000000Y0033000000Y0072000000Y0033000000D01*

%ADD18C,1.0000*%

G01*
X0100000000Y0042000000Y0100000000Y0042000000D02*

X0112000000Y0035000000Y0112000000Y0035000000D01*

%ADD18C,1.0000*%

G01*
X0100000000Y0035000000Y0100000000Y0035000000D02*

X0112000000Y0033000000Y0112000000Y0033000000D01*

%ADD10C,0.2500*%

G01*
X0060000000Y0028000000Y0060000000Y0028000000D02*

X0072000000Y0030000000Y0072000000Y0030000000D01*

%ADD10C,0.2500*%

G01*
X0100000000Y0028000000Y0100000000Y0028000000D02*

X0112000000Y0030000000Y0112000000Y0030000000D01*

%ADD18C,1.0000*%

G01*
X0083000000Y0035000000Y0083000000Y0035000000D02*

X0093000000Y0035000000Y0093000000Y0035000000D01*

%ADD18C,1.0000*%

G01*
X0093000000Y0035000000Y0093000000Y0035000000D02*

X0093000000Y0042000000Y0093000000Y0042000000D01*

%ADD18C,1.0000*%

G01*
X0093000000Y0042000000Y0093000000Y0042000000D02*

X0100000000Y0042000000Y0100000000Y0042000000D01*

%ADD18C,1.0000*%

G01*
X0100000000Y0042000000Y0100000000Y0042000000D02*

X0100000000Y0035000000Y0100000000Y0035000000D01*

%ADD18C,1.0000*%

G01*
X0100000000Y0035000000Y0100000000Y0035000000D02*

X0112000000Y0035000000Y0112000000Y0035000000D01*

%ADD18C,1.0000*%

G01*
X0093000000Y0038000000Y0093000000Y0038000000D02*

X0093000000Y0034000000Y0093000000Y0034000000D01*

%ADD10C,1.5000*%

G01*
X0015000000Y0088000000Y0015000000Y0088000000D02*

X0028000000Y0088000000Y0028000000Y0088000000D01*

%ADD12C,0.8000*%

G01*
X0123000000Y0035000000Y0123000000Y0035000000D02*

X0133000000Y0035000000Y0133000000Y0035000000D01*

%ADD12C,0.8000*%

G01*
X0133000000Y0035000000Y0133000000Y0035000000D02*

X0133000000Y0042000000Y0133000000Y0042000000D01*

%ADD12C,0.8000*%

G01*
X0133000000Y0042000000Y0133000000Y0042000000D02*

X0133000000Y0038000000Y0133000000Y0038000000D01*

%ADD12C,0.8000*%

G01*
X0133000000Y0038000000Y0133000000Y0038000000D02*

X0133000000Y0034000000Y0133000000Y0034000000D01*

%ADD11C,0.6000*%

G01*
X0058000000Y0047000000Y0058000000Y0047000000D02*

X0063000000Y0047000000Y0063000000Y0047000000D01*

%ADD11C,0.6000*%

G01*
X0063000000Y0047000000Y0063000000Y0047000000D02*

X0066000000Y0047000000Y0066000000Y0047000000D01*

%ADD11C,0.6000*%

G01*
X0058000000Y0067000000Y0058000000Y0067000000D02*

X0063000000Y0067000000Y0063000000Y0067000000D01*

%ADD11C,0.6000*%

G01*
X0063000000Y0067000000Y0063000000Y0067000000D02*

X0066000000Y0067000000Y0066000000Y0067000000D01*

%ADD11C,0.6000*%

G01*
X0020000000Y0035000000Y0020000000Y0035000000D02*

X0027000000Y0035000000Y0027000000Y0035000000D01*

%ADD11C,0.6000*%

G01*
X0027000000Y0035000000Y0027000000Y0035000000D02*

X0035000000Y0035000000Y0035000000Y0035000000D01*

%ADD11C,0.6000*%

G01*
X0035000000Y0035000000Y0035000000Y0035000000D02*

X0040000000Y0035000000Y0040000000Y0035000000D01*

%ADD11C,0.6000*%

G01*
X0040000000Y0035000000Y0040000000Y0035000000D02*

X0045000000Y0035000000Y0045000000Y0035000000D01*

%ADD11C,0.6000*%

G01*
X0035000000Y0053000000Y0035000000Y0053000000D02*

X0035000000Y0050000000Y0035000000Y0050000000D01*

%ADD10C,1.5000*%

G01*
X0028000000Y0088000000Y0028000000Y0088000000D02*

X0040000000Y0088000000Y0040000000Y0088000000D01*

%ADD11C,0.6000*%

G01*
X0025000000Y0030000000Y0025000000Y0030000000D02*

X0032000000Y0030000000Y0032000000Y0030000000D01*

%ADD11C,0.6000*%

G01*
X0032000000Y0030000000Y0032000000Y0030000000D02*

X0039000000Y0030000000Y0039000000Y0030000000D01*

%ADD11C,0.6000*%

G01*
X0039000000Y0030000000Y0039000000Y0030000000D02*

X0046000000Y0030000000Y0046000000Y0030000000D01*

%ADD11C,0.6000*%

G01*
X0046000000Y0030000000Y0046000000Y0030000000D02*

X0053000000Y0030000000Y0053000000Y0030000000D01*

%ADD10C,0.2500*%

G01*
X0020000000Y0035000000Y0020000000Y0035000000D02*

X0020000000Y0030000000Y0020000000Y0030000000D01*

%ADD11C,0.6000*%

G01*
X0072000000Y0035000000Y0072000000Y0035000000D02*

X0083000000Y0035000000Y0083000000Y0035000000D01*

%ADD11C,0.6000*%

G01*
X0112000000Y0035000000Y0112000000Y0035000000D02*

X0123000000Y0035000000Y0123000000Y0035000000D01*

%ADD10C,0.2500*%

G01*
X0165000000Y0053800000Y0165000000Y0053800000D02*

X0160000000Y0053800000Y0160000000Y0053800000D01*

%ADD10C,0.2500*%

G01*
X0160000000Y0053800000Y0160000000Y0053800000D02*

X0160000000Y0070000000Y0160000000Y0070000000D01*

%ADD10C,0.2500*%

G01*
X0160000000Y0070000000Y0160000000Y0070000000D02*

X0042000000Y0070000000Y0042000000Y0070000000D01*

%ADD10C,0.2500*%

G01*
X0042000000Y0070000000Y0042000000Y0070000000D02*

X0042000000Y0060000000Y0042000000Y0060000000D01*

%ADD10C,0.2500*%

G01*
X0042000000Y0060000000Y0042000000Y0060000000D02*

X0038000000Y0057000000Y0038000000Y0057000000D01*

%ADD10C,0.2500*%

G01*
X0165000000Y0055900000Y0165000000Y0055900000D02*

X0158000000Y0055900000Y0158000000Y0055900000D01*

%ADD10C,0.2500*%

G01*
X0158000000Y0055900000Y0158000000Y0055900000D02*

X0158000000Y0068000000Y0158000000Y0068000000D01*

%ADD10C,0.2500*%

G01*
X0158000000Y0068000000Y0158000000Y0068000000D02*

X0040000000Y0068000000Y0040000000Y0068000000D01*

%ADD10C,0.2500*%

G01*
X0040000000Y0068000000Y0040000000Y0068000000D02*

X0040000000Y0061000000Y0040000000Y0061000000D01*

%ADD10C,0.2500*%

G01*
X0035000000Y0055000000Y0035000000Y0055000000D02*

X0037000000Y0055000000Y0037000000Y0055000000D01*

%ADD10C,0.2500*%

G01*
X0037000000Y0055000000Y0037000000Y0055000000D02*

X0037000000Y0060000000Y0037000000Y0060000000D01*

%ADD10C,0.2500*%

G01*
X0035000000Y0058000000Y0035000000Y0058000000D02*

X0037000000Y0058000000Y0037000000Y0058000000D01*

%ADD10C,0.2500*%

G01*
X0037000000Y0058000000Y0037000000Y0058000000D02*

X0037000000Y0065000000Y0037000000Y0065000000D01*

%ADD10C,0.2500*%

G01*
X0055000000Y0060000000Y0055000000Y0060000000D02*

X0050000000Y0057000000Y0050000000Y0057000000D01*

%ADD10C,0.2500*%

G01*
X0040000000Y0065000000Y0040000000Y0065000000D02*

X0040000000Y0068000000Y0040000000Y0068000000D01*

%ADD10C,0.2500*%

G01*
X0165000000Y0058400000Y0165000000Y0058400000D02*

X0150000000Y0058400000Y0150000000Y0058400000D01*

%ADD10C,0.2500*%

G01*
X0150000000Y0058400000Y0150000000Y0058400000D02*

X0150000000Y0061000000Y0150000000Y0061000000D01*

%ADD10C,0.2500*%

G01*
X0150000000Y0061000000Y0150000000Y0061000000D02*

X0047000000Y0061000000Y0047000000Y0061000000D01*

%ADD10C,0.2500*%

G01*
X0047000000Y0061000000Y0047000000Y0061000000D02*

X0047000000Y0058000000Y0047000000Y0058000000D01*

%ADD10C,0.2500*%

G01*
X0055000000Y0058000000Y0055000000Y0058000000D02*

X0055000000Y0056000000Y0055000000Y0056000000D01*

%ADD10C,0.2500*%

G01*
X0058000000Y0058000000Y0058000000Y0058000000D02*

X0058000000Y0056000000Y0058000000Y0056000000D01*

%ADD10C,0.2500*%

G01*
X0165000000Y0062700000Y0165000000Y0062700000D02*

X0160000000Y0062700000Y0160000000Y0062700000D01*

%ADD10C,0.2500*%

G01*
X0160000000Y0062700000Y0160000000Y0062700000D02*

X0160000000Y0043000000Y0160000000Y0043000000D01*

%ADD10C,0.2500*%

G01*
X0160000000Y0043000000Y0160000000Y0043000000D02*

X0048000000Y0043000000Y0048000000Y0043000000D01*

%ADD10C,0.2500*%

G01*
X0043000000Y0043000000Y0043000000Y0043000000D02*

X0048000000Y0043000000Y0048000000Y0043000000D01*

%ADD10C,0.2500*%

G01*
X0048000000Y0043000000Y0048000000Y0043000000D02*

X0060000000Y0043000000Y0060000000Y0043000000D01*

%ADD10C,0.2500*%

G01*
X0060000000Y0043000000Y0060000000Y0043000000D02*

X0035000000Y0023000000Y0035000000Y0023000000D01*

%ADD10C,0.2500*%

G01*
X0165000000Y0060300000Y0165000000Y0060300000D02*

X0158000000Y0060300000Y0158000000Y0060300000D01*

%ADD10C,0.2500*%

G01*
X0158000000Y0060300000Y0158000000Y0060300000D02*

X0158000000Y0048000000Y0158000000Y0048000000D01*

%ADD10C,0.2500*%

G01*
X0158000000Y0048000000Y0158000000Y0048000000D02*

X0048000000Y0048000000Y0048000000Y0048000000D01*

%ADD10C,0.2500*%

G01*
X0043000000Y0048000000Y0043000000Y0048000000D02*

X0048000000Y0048000000Y0048000000Y0048000000D01*

%ADD10C,0.2500*%

G01*
X0048000000Y0048000000Y0048000000Y0048000000D02*

X0060000000Y0048000000Y0060000000Y0048000000D01*

%ADD10C,0.2500*%

G01*
X0060000000Y0048000000Y0060000000Y0048000000D02*

X0035000000Y0024000000Y0035000000Y0024000000D01*

%ADD10C,0.2500*%

G01*
X0060000000Y0043000000Y0060000000Y0043000000D02*

X0082000000Y0053000000Y0082000000Y0053000000D01*

%ADD10C,0.2500*%

G01*
X0060000000Y0048000000Y0060000000Y0048000000D02*

X0082000000Y0051500000Y0082000000Y0051500000D01*

%ADD10C,0.2500*%

G01*
X0060000000Y0043000000Y0060000000Y0043000000D02*

X0050000000Y0110000000Y0050000000Y0110000000D01*

%ADD10C,0.2500*%

G01*
X0060000000Y0048000000Y0060000000Y0048000000D02*

X0050000000Y0107200000Y0050000000Y0107200000D01*

%ADD10C,0.2500*%

G01*
X0050000000Y0110000000Y0050000000Y0110000000D02*

X0050000000Y0125000000Y0050000000Y0125000000D01*

%ADD10C,0.2500*%

G01*
X0050000000Y0125000000Y0050000000Y0125000000D02*

X0050000000Y0122200000Y0050000000Y0122200000D01*

%ADD10C,0.2500*%

G01*
X0127500000Y0055000000Y0127500000Y0055000000D02*

X0127500000Y0053500000Y0127500000Y0053500000D01*

%ADD10C,0.2500*%

G01*
X0127500000Y0055000000Y0127500000Y0055000000D02*

X0127500000Y0056500000Y0127500000Y0056500000D01*

%ADD10C,0.2500*%

G01*
X0127500000Y0055000000Y0127500000Y0055000000D02*

X0145000000Y0053500000Y0145000000Y0053500000D01*

%ADD10C,0.2500*%

G01*
X0127500000Y0055000000Y0127500000Y0055000000D02*

X0145000000Y0056500000Y0145000000Y0056500000D01*

%ADD10C,0.2500*%

G01*
X0165000000Y0065200000Y0165000000Y0065200000D02*

X0160000000Y0065200000Y0160000000Y0065200000D01*

%ADD10C,0.2500*%

G01*
X0160000000Y0065200000Y0160000000Y0065200000D02*

X0160000000Y0093000000Y0160000000Y0093000000D01*

%ADD10C,0.2500*%

G01*
X0160000000Y0093000000Y0160000000Y0093000000D02*

X0155000000Y0093000000Y0155000000Y0093000000D01*

%ADD10C,0.2500*%

G01*
X0165000000Y0067500000Y0165000000Y0067500000D02*

X0160000000Y0067500000Y0160000000Y0067500000D01*

%ADD10C,0.2500*%

G01*
X0160000000Y0067500000Y0160000000Y0067500000D02*

X0160000000Y0110000000Y0160000000Y0110000000D01*

%ADD10C,0.2500*%

G01*
X0160000000Y0110000000Y0160000000Y0110000000D02*

X0155000000Y0110000000Y0155000000Y0110000000D01*

%ADD10C,0.2500*%

G01*
X0165000000Y0069800000Y0165000000Y0069800000D02*

X0160000000Y0069800000Y0160000000Y0069800000D01*

%ADD10C,0.2500*%

G01*
X0160000000Y0069800000Y0160000000Y0069800000D02*

X0160000000Y0127000000Y0160000000Y0127000000D01*

%ADD10C,0.2500*%

G01*
X0160000000Y0127000000Y0160000000Y0127000000D02*

X0155000000Y0127000000Y0155000000Y0127000000D01*

%ADD10C,0.2500*%

G01*
X0165000000Y0072100000Y0165000000Y0072100000D02*

X0160000000Y0072100000Y0160000000Y0072100000D01*

%ADD10C,0.2500*%

G01*
X0160000000Y0072100000Y0160000000Y0072100000D02*

X0160000000Y0144000000Y0160000000Y0144000000D01*

%ADD10C,0.2500*%

G01*
X0160000000Y0144000000Y0160000000Y0144000000D02*

X0155000000Y0144000000Y0155000000Y0144000000D01*

%ADD10C,0.2500*%

G01*
X0165000000Y0069800000Y0165000000Y0069800000D02*

X0160000000Y0069800000Y0160000000Y0069800000D01*

%ADD10C,0.2500*%

G01*
X0160000000Y0069800000Y0160000000Y0069800000D02*

X0160000000Y0074000000Y0160000000Y0074000000D01*

%ADD10C,0.2500*%

G01*
X0160000000Y0074000000Y0160000000Y0074000000D02*

X0134000000Y0074000000Y0134000000Y0074000000D01*

%ADD10C,0.2500*%

G01*
X0134000000Y0074000000Y0134000000Y0074000000D02*

X0134000000Y0077000000Y0134000000Y0077000000D01*

%ADD10C,0.2500*%

G01*
X0165000000Y0071100000Y0165000000Y0071100000D02*

X0160000000Y0071100000Y0160000000Y0071100000D01*

%ADD10C,0.2500*%

G01*
X0160000000Y0071100000Y0160000000Y0071100000D02*

X0160000000Y0083000000Y0160000000Y0083000000D01*

%ADD10C,0.2500*%

G01*
X0160000000Y0083000000Y0160000000Y0083000000D02*

X0134000000Y0083000000Y0134000000Y0083000000D01*

%ADD10C,0.2500*%

G01*
X0134000000Y0083000000Y0134000000Y0083000000D02*

X0134000000Y0080000000Y0134000000Y0080000000D01*

%ADD10C,0.2500*%

G01*
X0165000000Y0073500000Y0165000000Y0073500000D02*

X0160000000Y0073500000Y0160000000Y0073500000D01*

%ADD10C,0.2500*%

G01*
X0160000000Y0073500000Y0160000000Y0073500000D02*

X0160000000Y0080000000Y0160000000Y0080000000D01*

%ADD10C,0.2500*%

G01*
X0160000000Y0080000000Y0160000000Y0080000000D02*

X0134000000Y0080000000Y0134000000Y0080000000D01*

%ADD10C,0.2500*%

G01*
X0134000000Y0080000000Y0134000000Y0080000000D02*

X0134000000Y0077000000Y0134000000Y0077000000D01*

%ADD10C,0.2500*%

G01*
X0165000000Y0075900000Y0165000000Y0075900000D02*

X0160000000Y0075900000Y0160000000Y0075900000D01*

%ADD10C,0.2500*%

G01*
X0160000000Y0075900000Y0160000000Y0075900000D02*

X0160000000Y0077000000Y0160000000Y0077000000D01*

%ADD10C,0.2500*%

G01*
X0160000000Y0077000000Y0160000000Y0077000000D02*

X0134000000Y0077000000Y0134000000Y0077000000D01*

%ADD10C,0.2500*%

G01*
X0165000000Y0060800000Y0165000000Y0060800000D02*

X0160000000Y0060800000Y0160000000Y0060800000D01*

%ADD10C,0.2500*%

G01*
X0160000000Y0060800000Y0160000000Y0060800000D02*

X0160000000Y0045000000Y0160000000Y0045000000D01*

%ADD10C,0.2500*%

G01*
X0160000000Y0045000000Y0160000000Y0045000000D02*

X0048000000Y0045000000Y0048000000Y0045000000D01*

%ADD10C,0.2500*%

G01*
X0048000000Y0045000000Y0048000000Y0045000000D02*

X0048000000Y0038000000Y0048000000Y0038000000D01*

%ADD10C,0.2500*%

G01*
X0048000000Y0038000000Y0048000000Y0038000000D02*

X0055000000Y0040000000Y0055000000Y0040000000D01*

%ADD10C,0.2500*%

G01*
X0165000000Y0058400000Y0165000000Y0058400000D02*

X0160000000Y0058400000Y0160000000Y0058400000D01*

%ADD10C,0.2500*%

G01*
X0160000000Y0058400000Y0160000000Y0058400000D02*

X0160000000Y0055000000Y0160000000Y0055000000D01*

%ADD10C,0.2500*%

G01*
X0160000000Y0055000000Y0160000000Y0055000000D02*

X0048000000Y0055000000Y0048000000Y0055000000D01*

%ADD10C,0.2500*%

G01*
X0048000000Y0055000000Y0048000000Y0055000000D02*

X0048000000Y0048000000Y0048000000Y0048000000D01*

%ADD10C,0.2500*%

G01*
X0170000000Y0072000000Y0170000000Y0072000000D02*

X0173000000Y0072000000Y0173000000Y0072000000D01*

%ADD10C,0.2500*%

G01*
X0173000000Y0072000000Y0173000000Y0072000000D02*

X0173000000Y0028000000Y0173000000Y0028000000D01*

%ADD10C,0.2500*%

G01*
X0173000000Y0028000000Y0173000000Y0028000000D02*

X0170000000Y0028000000Y0170000000Y0028000000D01*

%ADD10C,0.2500*%

G01*
X0075000000Y0048000000Y0075000000Y0048000000D02*

X0075000000Y0053000000Y0075000000Y0053000000D01*

%ADD10C,0.2500*%

G01*
X0078000000Y0048000000Y0078000000Y0048000000D02*

X0078000000Y0053000000Y0078000000Y0053000000D01*

%ADD10C,0.2500*%

G01*
X0081000000Y0048000000Y0081000000Y0048000000D02*

X0081000000Y0053000000Y0081000000Y0053000000D01*

%ADD10C,0.2500*%

G01*
X0084000000Y0048000000Y0084000000Y0048000000D02*

X0084000000Y0053000000Y0084000000Y0053000000D01*

%ADD10C,0.2500*%

G01*
X0035000000Y0055000000Y0035000000Y0055000000D02*

X0032000000Y0055000000Y0032000000Y0055000000D01*

%ADD10C,0.2500*%

G01*
X0032000000Y0055000000Y0032000000Y0055000000D02*

X0029000000Y0055000000Y0029000000Y0055000000D01*

%ADD10C,0.2500*%

G01*
X0029000000Y0055000000Y0029000000Y0055000000D02*

X0029000000Y0050000000Y0029000000Y0050000000D01*

%ADD10C,0.2500*%

G01*
X0090000000Y0047500000Y0090000000Y0047500000D02*

X0075000000Y0040000000Y0075000000Y0040000000D01*

%ADD10C,0.2500*%

G01*
X0090000000Y0045000000Y0090000000Y0045000000D02*

X0075000000Y0044000000Y0075000000Y0044000000D01*

%ADD10C,0.2500*%

G01*
X0090000000Y0042500000Y0090000000Y0042500000D02*

X0075000000Y0048000000Y0075000000Y0048000000D01*

%ADD10C,0.2500*%

G01*
X0090000000Y0040000000Y0090000000Y0040000000D02*

X0075000000Y0052000000Y0075000000Y0052000000D01*

%ADD10C,0.2500*%

G01*
X0090000000Y0037500000Y0090000000Y0037500000D02*

X0075000000Y0056000000Y0075000000Y0056000000D01*

%ADD10C,0.2500*%

G01*
X0090000000Y0035000000Y0090000000Y0035000000D02*

X0075000000Y0060000000Y0075000000Y0060000000D01*

%ADD10C,0.2500*%

G01*
X0090000000Y0032500000Y0090000000Y0032500000D02*

X0075000000Y0064000000Y0075000000Y0064000000D01*

%ADD10C,0.2500*%

G01*
X0090000000Y0030000000Y0090000000Y0030000000D02*

X0075000000Y0068000000Y0075000000Y0068000000D01*

%ADD10C,0.2500*%

G01*
X0138000000Y0057000000Y0138000000Y0057000000D02*

X0138000000Y0060000000Y0138000000Y0060000000D01*

%ADD10C,0.2500*%

G01*
X0138000000Y0060000000Y0138000000Y0060000000D02*

X0138000000Y0067000000Y0138000000Y0067000000D01*

%ADD10C,0.2500*%

G01*
X0138000000Y0067000000Y0138000000Y0067000000D02*

X0152000000Y0050000000Y0152000000Y0050000000D01*

%ADD10C,0.2500*%

G01*
X0165000000Y0053800000Y0165000000Y0053800000D02*

X0165000000Y0068000000Y0165000000Y0068000000D01*

%ADD10C,0.2500*%

G01*
X0165000000Y0068000000Y0165000000Y0068000000D02*

X0166000000Y0068000000Y0166000000Y0068000000D01*

%ADD10C,0.2500*%

G01*
X0065000000Y0093000000Y0065000000Y0093000000D02*

X0075000000Y0093000000Y0075000000Y0093000000D01*

%ADD10C,0.2500*%

G01*
X0075000000Y0093000000Y0075000000Y0093000000D02*

X0075000000Y0100000000Y0075000000Y0100000000D01*

%ADD10C,0.2500*%

G01*
X0075000000Y0100000000Y0075000000Y0100000000D02*

X0148000000Y0100000000Y0148000000Y0100000000D01*

%ADD10C,0.2500*%

G01*
X0148000000Y0100000000Y0148000000Y0100000000D02*

X0148000000Y0095000000Y0148000000Y0095000000D01*

%ADD10C,0.2500*%

G01*
X0072000000Y0035000000Y0072000000Y0035000000D02*

X0072000000Y0035000000Y0072000000Y0035000000D01*

%ADD10C,0.2500*%

G01*
X0072000000Y0038000000Y0072000000Y0038000000D02*

X0072000000Y0038000000Y0072000000Y0038000000D01*

%ADD10C,0.2500*%

G01*
X0112000000Y0035000000Y0112000000Y0035000000D02*

X0112000000Y0035000000Y0112000000Y0035000000D01*

%ADD10C,0.2500*%

G01*
X0112000000Y0038000000Y0112000000Y0038000000D02*

X0112000000Y0038000000Y0112000000Y0038000000D01*

%ADD10C,0.2500*%

G01*
X0138000000Y0057000000Y0138000000Y0057000000D02*

X0138000000Y0057000000Y0138000000Y0057000000D01*

%ADD10C,0.2500*%

G01*
X0141000000Y0057000000Y0141000000Y0057000000D02*

X0141000000Y0057000000Y0141000000Y0057000000D01*

%ADD10C,0.2500*%

G01*
X0035000000Y0053000000Y0035000000Y0053000000D02*

X0035000000Y0053000000Y0035000000Y0053000000D01*

%ADD10C,0.2500*%

G01*
X0053000000Y0030000000Y0053000000Y0030000000D02*

X0053000000Y0030000000Y0053000000Y0030000000D01*

%ADD10C,0.2500*%

G01*
X0050000000Y0058000000Y0050000000Y0058000000D02*

X0050000000Y0058000000Y0050000000Y0058000000D01*

%ADD10C,0.2500*%

G01*
X0050000000Y0064000000Y0050000000Y0064000000D02*

X0050000000Y0064000000Y0050000000Y0064000000D01*

%ADD11C,0.6000*%

X0005000000Y0005000000D11*

%ADD11C,0.6000*%

X0005000000Y0015000000D11*

%ADD11C,0.6000*%

X0005000000Y0025000000D11*

%ADD11C,0.6000*%

X0005000000Y0035000000D11*

%ADD11C,0.6000*%

X0005000000Y0045000000D11*

%ADD11C,0.6000*%

X0005000000Y0055000000D11*

%ADD11C,0.6000*%

X0005000000Y0065000000D11*

%ADD11C,0.6000*%

X0005000000Y0075000000D11*

%ADD11C,0.6000*%

X0005000000Y0085000000D11*

%ADD11C,0.6000*%

X0005000000Y0095000000D11*

%ADD11C,0.6000*%

X0005000000Y0105000000D11*

%ADD11C,0.6000*%

X0005000000Y0115000000D11*

%ADD11C,0.6000*%

X0005000000Y0125000000D11*

%ADD11C,0.6000*%

X0005000000Y0135000000D11*

%ADD11C,0.6000*%

X0005000000Y0145000000D11*

%ADD11C,0.6000*%

X0015000000Y0005000000D11*

%ADD11C,0.6000*%

X0015000000Y0015000000D11*

%ADD11C,0.6000*%

X0015000000Y0025000000D11*

%ADD11C,0.6000*%

X0015000000Y0035000000D11*

%ADD11C,0.6000*%

X0015000000Y0045000000D11*

%ADD11C,0.6000*%

X0015000000Y0055000000D11*

%ADD11C,0.6000*%

X0015000000Y0065000000D11*

%ADD11C,0.6000*%

X0015000000Y0075000000D11*

%ADD11C,0.6000*%

X0015000000Y0085000000D11*

%ADD11C,0.6000*%

X0015000000Y0095000000D11*

%ADD11C,0.6000*%

X0015000000Y0105000000D11*

%ADD11C,0.6000*%

X0015000000Y0115000000D11*

%ADD11C,0.6000*%

X0015000000Y0125000000D11*

%ADD11C,0.6000*%

X0015000000Y0135000000D11*

%ADD11C,0.6000*%

X0015000000Y0145000000D11*

%ADD11C,0.6000*%

X0025000000Y0005000000D11*

%ADD11C,0.6000*%

X0025000000Y0015000000D11*

%ADD11C,0.6000*%

X0025000000Y0025000000D11*

%ADD11C,0.6000*%

X0025000000Y0035000000D11*

%ADD11C,0.6000*%

X0025000000Y0045000000D11*

%ADD11C,0.6000*%

X0025000000Y0055000000D11*

%ADD11C,0.6000*%

X0025000000Y0065000000D11*

%ADD11C,0.6000*%

X0025000000Y0075000000D11*

%ADD11C,0.6000*%

X0025000000Y0085000000D11*

%ADD11C,0.6000*%

X0025000000Y0095000000D11*

%ADD11C,0.6000*%

X0025000000Y0105000000D11*

%ADD11C,0.6000*%

X0025000000Y0115000000D11*

%ADD11C,0.6000*%

X0025000000Y0125000000D11*

%ADD11C,0.6000*%

X0025000000Y0135000000D11*

%ADD11C,0.6000*%

X0025000000Y0145000000D11*

%ADD11C,0.6000*%

X0035000000Y0005000000D11*

%ADD11C,0.6000*%

X0035000000Y0015000000D11*

%ADD11C,0.6000*%

X0035000000Y0025000000D11*

%ADD11C,0.6000*%

X0035000000Y0035000000D11*

%ADD11C,0.6000*%

X0035000000Y0045000000D11*

%ADD11C,0.6000*%

X0035000000Y0055000000D11*

%ADD11C,0.6000*%

X0035000000Y0065000000D11*

%ADD11C,0.6000*%

X0035000000Y0075000000D11*

%ADD11C,0.6000*%

X0035000000Y0085000000D11*

%ADD11C,0.6000*%

X0035000000Y0095000000D11*

%ADD11C,0.6000*%

X0035000000Y0105000000D11*

%ADD11C,0.6000*%

X0035000000Y0115000000D11*

%ADD11C,0.6000*%

X0035000000Y0125000000D11*

%ADD11C,0.6000*%

X0035000000Y0135000000D11*

%ADD11C,0.6000*%

X0035000000Y0145000000D11*

%ADD11C,0.6000*%

X0045000000Y0005000000D11*

%ADD11C,0.6000*%

X0045000000Y0015000000D11*

%ADD11C,0.6000*%

X0045000000Y0025000000D11*

%ADD11C,0.6000*%

X0045000000Y0035000000D11*

%ADD11C,0.6000*%

X0045000000Y0045000000D11*

%ADD11C,0.6000*%

X0045000000Y0055000000D11*

%ADD11C,0.6000*%

X0045000000Y0065000000D11*

%ADD11C,0.6000*%

X0045000000Y0075000000D11*

%ADD11C,0.6000*%

X0045000000Y0085000000D11*

%ADD11C,0.6000*%

X0045000000Y0095000000D11*

%ADD11C,0.6000*%

X0045000000Y0105000000D11*

%ADD11C,0.6000*%

X0045000000Y0115000000D11*

%ADD11C,0.6000*%

X0045000000Y0125000000D11*

%ADD11C,0.6000*%

X0045000000Y0135000000D11*

%ADD11C,0.6000*%

X0045000000Y0145000000D11*

%ADD11C,0.6000*%

X0055000000Y0005000000D11*

%ADD11C,0.6000*%

X0055000000Y0015000000D11*

%ADD11C,0.6000*%

X0055000000Y0025000000D11*

%ADD11C,0.6000*%

X0055000000Y0035000000D11*

%ADD11C,0.6000*%

X0055000000Y0045000000D11*

%ADD11C,0.6000*%

X0055000000Y0055000000D11*

%ADD11C,0.6000*%

X0055000000Y0065000000D11*

%ADD11C,0.6000*%

X0055000000Y0075000000D11*

%ADD11C,0.6000*%

X0055000000Y0085000000D11*

%ADD11C,0.6000*%

X0055000000Y0095000000D11*

%ADD11C,0.6000*%

X0055000000Y0105000000D11*

%ADD11C,0.6000*%

X0055000000Y0115000000D11*

%ADD11C,0.6000*%

X0055000000Y0125000000D11*

%ADD11C,0.6000*%

X0055000000Y0135000000D11*

%ADD11C,0.6000*%

X0055000000Y0145000000D11*

%ADD11C,0.6000*%

X0065000000Y0005000000D11*

%ADD11C,0.6000*%

X0065000000Y0015000000D11*

%ADD11C,0.6000*%

X0065000000Y0025000000D11*

%ADD11C,0.6000*%

X0065000000Y0035000000D11*

%ADD11C,0.6000*%

X0065000000Y0045000000D11*

%ADD11C,0.6000*%

X0065000000Y0055000000D11*

%ADD11C,0.6000*%

X0065000000Y0065000000D11*

%ADD11C,0.6000*%

X0065000000Y0075000000D11*

%ADD11C,0.6000*%

X0065000000Y0085000000D11*

%ADD11C,0.6000*%

X0065000000Y0095000000D11*

%ADD11C,0.6000*%

X0065000000Y0105000000D11*

%ADD11C,0.6000*%

X0065000000Y0115000000D11*

%ADD11C,0.6000*%

X0065000000Y0125000000D11*

%ADD11C,0.6000*%

X0065000000Y0135000000D11*

%ADD11C,0.6000*%

X0065000000Y0145000000D11*

%ADD11C,0.6000*%

X0075000000Y0005000000D11*

%ADD11C,0.6000*%

X0075000000Y0015000000D11*

%ADD11C,0.6000*%

X0075000000Y0025000000D11*

%ADD11C,0.6000*%

X0075000000Y0035000000D11*

%ADD11C,0.6000*%

X0075000000Y0045000000D11*

%ADD11C,0.6000*%

X0075000000Y0055000000D11*

%ADD11C,0.6000*%

X0075000000Y0065000000D11*

%ADD11C,0.6000*%

X0075000000Y0075000000D11*

%ADD11C,0.6000*%

X0075000000Y0085000000D11*

%ADD11C,0.6000*%

X0075000000Y0095000000D11*

%ADD11C,0.6000*%

X0075000000Y0105000000D11*

%ADD11C,0.6000*%

X0075000000Y0115000000D11*

%ADD11C,0.6000*%

X0075000000Y0125000000D11*

%ADD11C,0.6000*%

X0075000000Y0135000000D11*

%ADD11C,0.6000*%

X0075000000Y0145000000D11*

%ADD11C,0.6000*%

X0085000000Y0005000000D11*

%ADD11C,0.6000*%

X0085000000Y0015000000D11*

%ADD11C,0.6000*%

X0085000000Y0025000000D11*

%ADD11C,0.6000*%

X0085000000Y0035000000D11*

%ADD11C,0.6000*%

X0085000000Y0045000000D11*

%ADD11C,0.6000*%

X0085000000Y0055000000D11*

%ADD11C,0.6000*%

X0085000000Y0065000000D11*

%ADD11C,0.6000*%

X0085000000Y0075000000D11*

%ADD11C,0.6000*%

X0085000000Y0085000000D11*

%ADD11C,0.6000*%

X0085000000Y0095000000D11*

%ADD11C,0.6000*%

X0085000000Y0105000000D11*

%ADD11C,0.6000*%

X0085000000Y0115000000D11*

%ADD11C,0.6000*%

X0085000000Y0125000000D11*

%ADD11C,0.6000*%

X0085000000Y0135000000D11*

%ADD11C,0.6000*%

X0085000000Y0145000000D11*

%ADD11C,0.6000*%

X0095000000Y0005000000D11*

%ADD11C,0.6000*%

X0095000000Y0015000000D11*

%ADD11C,0.6000*%

X0095000000Y0025000000D11*

%ADD11C,0.6000*%

X0095000000Y0035000000D11*

%ADD11C,0.6000*%

X0095000000Y0045000000D11*

%ADD11C,0.6000*%

X0095000000Y0055000000D11*

%ADD11C,0.6000*%

X0095000000Y0065000000D11*

%ADD11C,0.6000*%

X0095000000Y0075000000D11*

%ADD11C,0.6000*%

X0095000000Y0085000000D11*

%ADD11C,0.6000*%

X0095000000Y0095000000D11*

%ADD11C,0.6000*%

X0095000000Y0105000000D11*

%ADD11C,0.6000*%

X0095000000Y0115000000D11*

%ADD11C,0.6000*%

X0095000000Y0125000000D11*

%ADD11C,0.6000*%

X0095000000Y0135000000D11*

%ADD11C,0.6000*%

X0095000000Y0145000000D11*

%ADD11C,0.6000*%

X0105000000Y0005000000D11*

%ADD11C,0.6000*%

X0105000000Y0015000000D11*

%ADD11C,0.6000*%

X0105000000Y0025000000D11*

%ADD11C,0.6000*%

X0105000000Y0035000000D11*

%ADD11C,0.6000*%

X0105000000Y0045000000D11*

%ADD11C,0.6000*%

X0105000000Y0055000000D11*

%ADD11C,0.6000*%

X0105000000Y0065000000D11*

%ADD11C,0.6000*%

X0105000000Y0075000000D11*

%ADD11C,0.6000*%

X0105000000Y0085000000D11*

%ADD11C,0.6000*%

X0105000000Y0095000000D11*

%ADD11C,0.6000*%

X0105000000Y0105000000D11*

%ADD11C,0.6000*%

X0105000000Y0115000000D11*

%ADD11C,0.6000*%

X0105000000Y0125000000D11*

%ADD11C,0.6000*%

X0105000000Y0135000000D11*

%ADD11C,0.6000*%

X0105000000Y0145000000D11*

%ADD11C,0.6000*%

X0115000000Y0005000000D11*

%ADD11C,0.6000*%

X0115000000Y0015000000D11*

%ADD11C,0.6000*%

X0115000000Y0025000000D11*

%ADD11C,0.6000*%

X0115000000Y0035000000D11*

%ADD11C,0.6000*%

X0115000000Y0045000000D11*

%ADD11C,0.6000*%

X0115000000Y0055000000D11*

%ADD11C,0.6000*%

X0115000000Y0065000000D11*

%ADD11C,0.6000*%

X0115000000Y0075000000D11*

%ADD11C,0.6000*%

X0115000000Y0085000000D11*

%ADD11C,0.6000*%

X0115000000Y0095000000D11*

%ADD11C,0.6000*%

X0115000000Y0105000000D11*

%ADD11C,0.6000*%

X0115000000Y0115000000D11*

%ADD11C,0.6000*%

X0115000000Y0125000000D11*

%ADD11C,0.6000*%

X0115000000Y0135000000D11*

%ADD11C,0.6000*%

X0115000000Y0145000000D11*

%ADD11C,0.6000*%

X0125000000Y0005000000D11*

%ADD11C,0.6000*%

X0125000000Y0015000000D11*

%ADD11C,0.6000*%

X0125000000Y0025000000D11*

%ADD11C,0.6000*%

X0125000000Y0035000000D11*

%ADD11C,0.6000*%

X0125000000Y0045000000D11*

%ADD11C,0.6000*%

X0125000000Y0055000000D11*

%ADD11C,0.6000*%

X0125000000Y0065000000D11*

%ADD11C,0.6000*%

X0125000000Y0075000000D11*

%ADD11C,0.6000*%

X0125000000Y0085000000D11*

%ADD11C,0.6000*%

X0125000000Y0095000000D11*

%ADD11C,0.6000*%

X0125000000Y0105000000D11*

%ADD11C,0.6000*%

X0125000000Y0115000000D11*

%ADD11C,0.6000*%

X0125000000Y0125000000D11*

%ADD11C,0.6000*%

X0125000000Y0135000000D11*

%ADD11C,0.6000*%

X0125000000Y0145000000D11*

%ADD11C,0.6000*%

X0135000000Y0005000000D11*

%ADD11C,0.6000*%

X0135000000Y0015000000D11*

%ADD11C,0.6000*%

X0135000000Y0025000000D11*

%ADD11C,0.6000*%

X0135000000Y0035000000D11*

%ADD11C,0.6000*%

X0135000000Y0045000000D11*

%ADD11C,0.6000*%

X0135000000Y0055000000D11*

%ADD11C,0.6000*%

X0135000000Y0065000000D11*

%ADD11C,0.6000*%

X0135000000Y0075000000D11*

%ADD11C,0.6000*%

X0135000000Y0085000000D11*

%ADD11C,0.6000*%

X0135000000Y0095000000D11*

%ADD11C,0.6000*%

X0135000000Y0105000000D11*

%ADD11C,0.6000*%

X0135000000Y0115000000D11*

%ADD11C,0.6000*%

X0135000000Y0125000000D11*

%ADD11C,0.6000*%

X0135000000Y0135000000D11*

%ADD11C,0.6000*%

X0135000000Y0145000000D11*

%ADD11C,0.6000*%

X0145000000Y0005000000D11*

%ADD11C,0.6000*%

X0145000000Y0015000000D11*

%ADD11C,0.6000*%

X0145000000Y0025000000D11*

%ADD11C,0.6000*%

X0145000000Y0035000000D11*

%ADD11C,0.6000*%

X0145000000Y0045000000D11*

%ADD11C,0.6000*%

X0145000000Y0055000000D11*

%ADD11C,0.6000*%

X0145000000Y0065000000D11*

%ADD11C,0.6000*%

X0145000000Y0075000000D11*

%ADD11C,0.6000*%

X0145000000Y0085000000D11*

%ADD11C,0.6000*%

X0145000000Y0095000000D11*

%ADD11C,0.6000*%

X0145000000Y0105000000D11*

%ADD11C,0.6000*%

X0145000000Y0115000000D11*

%ADD11C,0.6000*%

X0145000000Y0125000000D11*

%ADD11C,0.6000*%

X0145000000Y0135000000D11*

%ADD11C,0.6000*%

X0145000000Y0145000000D11*

%ADD11C,0.6000*%

X0155000000Y0005000000D11*

%ADD11C,0.6000*%

X0155000000Y0015000000D11*

%ADD11C,0.6000*%

X0155000000Y0025000000D11*

%ADD11C,0.6000*%

X0155000000Y0035000000D11*

%ADD11C,0.6000*%

X0155000000Y0045000000D11*

%ADD11C,0.6000*%

X0155000000Y0055000000D11*

%ADD11C,0.6000*%

X0155000000Y0065000000D11*

%ADD11C,0.6000*%

X0155000000Y0075000000D11*

%ADD11C,0.6000*%

X0155000000Y0085000000D11*

%ADD11C,0.6000*%

X0155000000Y0095000000D11*

%ADD11C,0.6000*%

X0155000000Y0105000000D11*

%ADD11C,0.6000*%

X0155000000Y0115000000D11*

%ADD11C,0.6000*%

X0155000000Y0125000000D11*

%ADD11C,0.6000*%

X0155000000Y0135000000D11*

%ADD11C,0.6000*%

X0155000000Y0145000000D11*

%ADD11C,0.6000*%

X0165000000Y0005000000D11*

%ADD11C,0.6000*%

X0165000000Y0015000000D11*

%ADD11C,0.6000*%

X0165000000Y0025000000D11*

%ADD11C,0.6000*%

X0165000000Y0035000000D11*

%ADD11C,0.6000*%

X0165000000Y0045000000D11*

%ADD11C,0.6000*%

X0165000000Y0055000000D11*

%ADD11C,0.6000*%

X0165000000Y0065000000D11*

%ADD11C,0.6000*%

X0165000000Y0075000000D11*

%ADD11C,0.6000*%

X0165000000Y0085000000D11*

%ADD11C,0.6000*%

X0165000000Y0095000000D11*

%ADD11C,0.6000*%

X0165000000Y0105000000D11*

%ADD11C,0.6000*%

X0165000000Y0115000000D11*

%ADD11C,0.6000*%

X0165000000Y0125000000D11*

%ADD11C,0.6000*%

X0165000000Y0135000000D11*

%ADD11C,0.6000*%

X0165000000Y0145000000D11*

%ADD11C,0.6000*%

X0175000000Y0005000000D11*

%ADD11C,0.6000*%

X0175000000Y0015000000D11*

%ADD11C,0.6000*%

X0175000000Y0025000000D11*

%ADD11C,0.6000*%

X0175000000Y0035000000D11*

%ADD11C,0.6000*%

X0175000000Y0045000000D11*

%ADD11C,0.6000*%

X0175000000Y0055000000D11*

%ADD11C,0.6000*%

X0175000000Y0065000000D11*

%ADD11C,0.6000*%

X0175000000Y0075000000D11*

%ADD11C,0.6000*%

X0175000000Y0085000000D11*

%ADD11C,0.6000*%

X0175000000Y0095000000D11*

%ADD11C,0.6000*%

X0175000000Y0105000000D11*

%ADD11C,0.6000*%

X0175000000Y0115000000D11*

%ADD11C,0.6000*%

X0175000000Y0125000000D11*

%ADD11C,0.6000*%

X0175000000Y0135000000D11*

%ADD11C,0.6000*%

X0175000000Y0145000000D11*

%ADD11C,0.6000*%

X0185000000Y0005000000D11*

%ADD11C,0.6000*%

X0185000000Y0015000000D11*

%ADD11C,0.6000*%

X0185000000Y0025000000D11*

%ADD11C,0.6000*%

X0185000000Y0035000000D11*

%ADD11C,0.6000*%

X0185000000Y0045000000D11*

%ADD11C,0.6000*%

X0185000000Y0055000000D11*

%ADD11C,0.6000*%

X0185000000Y0065000000D11*

%ADD11C,0.6000*%

X0185000000Y0075000000D11*

%ADD11C,0.6000*%

X0185000000Y0085000000D11*

%ADD11C,0.6000*%

X0185000000Y0095000000D11*

%ADD11C,0.6000*%

X0185000000Y0105000000D11*

%ADD11C,0.6000*%

X0185000000Y0115000000D11*

%ADD11C,0.6000*%

X0185000000Y0125000000D11*

%ADD11C,0.6000*%

X0185000000Y0135000000D11*

%ADD11C,0.6000*%

X0185000000Y0145000000D11*

%ADD11C,0.6000*%

X0195000000Y0005000000D11*

%ADD11C,0.6000*%

X0195000000Y0015000000D11*

%ADD11C,0.6000*%

X0195000000Y0025000000D11*

%ADD11C,0.6000*%

X0195000000Y0035000000D11*

%ADD11C,0.6000*%

X0195000000Y0045000000D11*

%ADD11C,0.6000*%

X0195000000Y0055000000D11*

%ADD11C,0.6000*%

X0195000000Y0065000000D11*

%ADD11C,0.6000*%

X0195000000Y0075000000D11*

%ADD11C,0.6000*%

X0195000000Y0085000000D11*

%ADD11C,0.6000*%

X0195000000Y0095000000D11*

%ADD11C,0.6000*%

X0195000000Y0105000000D11*

%ADD11C,0.6000*%

X0195000000Y0115000000D11*

%ADD11C,0.6000*%

X0195000000Y0125000000D11*

%ADD11C,0.6000*%

X0195000000Y0135000000D11*

%ADD11C,0.6000*%

X0195000000Y0145000000D11*

%ADD11C,0.6000*%

X0001000000Y0082000000D11*

%ADD11C,0.6000*%

X0001000000Y0086000000D11*

%ADD11C,0.6000*%

X0006000000Y0082000000D11*

%ADD11C,0.6000*%

X0006000000Y0086000000D11*

%ADD11C,0.6000*%

X0011000000Y0082000000D11*

%ADD11C,0.6000*%

X0011000000Y0086000000D11*

%ADD11C,0.6000*%

X0016000000Y0082000000D11*

%ADD11C,0.6000*%

X0016000000Y0086000000D11*

%ADD11C,0.6000*%

X0021000000Y0082000000D11*

%ADD11C,0.6000*%

X0021000000Y0086000000D11*

%ADD11C,0.6000*%

X0026000000Y0082000000D11*

%ADD11C,0.6000*%

X0026000000Y0086000000D11*

%ADD11C,0.6000*%

X0031000000Y0082000000D11*

%ADD11C,0.6000*%

X0031000000Y0086000000D11*

%ADD11C,0.6000*%

X0036000000Y0082000000D11*

%ADD11C,0.6000*%

X0036000000Y0086000000D11*

%ADD11C,0.6000*%

X0041000000Y0082000000D11*

%ADD11C,0.6000*%

X0041000000Y0086000000D11*

%ADD11C,0.6000*%

X0046000000Y0082000000D11*

%ADD11C,0.6000*%

X0046000000Y0086000000D11*

%ADD11C,0.6000*%

X0051000000Y0082000000D11*

%ADD11C,0.6000*%

X0051000000Y0086000000D11*

%ADD11C,0.6000*%

X0056000000Y0082000000D11*

%ADD11C,0.6000*%

X0056000000Y0086000000D11*

%ADD11C,0.6000*%

X0061000000Y0082000000D11*

%ADD11C,0.6000*%

X0061000000Y0086000000D11*

%ADD11C,0.6000*%

X0066000000Y0082000000D11*

%ADD11C,0.6000*%

X0066000000Y0086000000D11*

%ADD11C,0.6000*%

X0071000000Y0082000000D11*

%ADD11C,0.6000*%

X0071000000Y0086000000D11*

%ADD11C,0.6000*%

X0076000000Y0082000000D11*

%ADD11C,0.6000*%

X0076000000Y0086000000D11*

%ADD11C,0.6000*%

X0081000000Y0082000000D11*

%ADD11C,0.6000*%

X0081000000Y0086000000D11*

%ADD11C,0.6000*%

X0086000000Y0082000000D11*

%ADD11C,0.6000*%

X0086000000Y0086000000D11*

%ADD11C,0.6000*%

X0091000000Y0082000000D11*

%ADD11C,0.6000*%

X0091000000Y0086000000D11*

%ADD11C,0.6000*%

X0096000000Y0082000000D11*

%ADD11C,0.6000*%

X0096000000Y0086000000D11*

%ADD11C,0.6000*%

X0101000000Y0082000000D11*

%ADD11C,0.6000*%

X0101000000Y0086000000D11*

%ADD11C,0.6000*%

X0106000000Y0082000000D11*

%ADD11C,0.6000*%

X0106000000Y0086000000D11*

%ADD11C,0.6000*%

X0111000000Y0082000000D11*

%ADD11C,0.6000*%

X0111000000Y0086000000D11*

%ADD11C,0.6000*%

X0116000000Y0082000000D11*

%ADD11C,0.6000*%

X0116000000Y0086000000D11*

%ADD11C,0.6000*%

X0121000000Y0082000000D11*

%ADD11C,0.6000*%

X0121000000Y0086000000D11*

%ADD11C,0.6000*%

X0126000000Y0082000000D11*

%ADD11C,0.6000*%

X0126000000Y0086000000D11*

%ADD11C,0.6000*%

X0131000000Y0082000000D11*

%ADD11C,0.6000*%

X0131000000Y0086000000D11*

%ADD11C,0.6000*%

X0136000000Y0082000000D11*

%ADD11C,0.6000*%

X0136000000Y0086000000D11*

%ADD11C,0.6000*%

X0141000000Y0082000000D11*

%ADD11C,0.6000*%

X0141000000Y0086000000D11*

%ADD11C,0.6000*%

X0146000000Y0082000000D11*

%ADD11C,0.6000*%

X0146000000Y0086000000D11*

%ADD11C,0.6000*%

X0151000000Y0082000000D11*

%ADD11C,0.6000*%

X0151000000Y0086000000D11*

%ADD11C,0.6000*%

X0156000000Y0082000000D11*

%ADD11C,0.6000*%

X0156000000Y0086000000D11*

%ADD11C,0.6000*%

X0161000000Y0082000000D11*

%ADD11C,0.6000*%

X0161000000Y0086000000D11*

%ADD11C,0.6000*%

X0166000000Y0082000000D11*

%ADD11C,0.6000*%

X0166000000Y0086000000D11*

%ADD11C,0.6000*%

X0171000000Y0082000000D11*

%ADD11C,0.6000*%

X0171000000Y0086000000D11*

%ADD11C,0.6000*%

X0176000000Y0082000000D11*

%ADD11C,0.6000*%

X0176000000Y0086000000D11*

%ADD11C,0.6000*%

X0181000000Y0082000000D11*

%ADD11C,0.6000*%

X0181000000Y0086000000D11*

%ADD11C,0.6000*%

X0186000000Y0082000000D11*

%ADD11C,0.6000*%

X0186000000Y0086000000D11*

%ADD11C,0.6000*%

X0191000000Y0082000000D11*

%ADD11C,0.6000*%

X0191000000Y0086000000D11*

%ADD11C,0.6000*%

X0196000000Y0082000000D11*

%ADD11C,0.6000*%

X0196000000Y0086000000D11*

%ADD11C,0.6000*%

X0068000000Y0038000000D11*

%ADD11C,0.6000*%

X0068000000Y0035000000D11*

%ADD11C,0.6000*%

X0068000000Y0032000000D11*

%ADD11C,0.6000*%

X0076000000Y0038000000D11*

%ADD11C,0.6000*%

X0076000000Y0035000000D11*

%ADD11C,0.6000*%

X0076000000Y0032000000D11*

%ADD11C,0.6000*%

X0108000000Y0038000000D11*

%ADD11C,0.6000*%

X0108000000Y0035000000D11*

%ADD11C,0.6000*%

X0108000000Y0032000000D11*

%ADD11C,0.6000*%

X0116000000Y0038000000D11*

%ADD11C,0.6000*%

X0116000000Y0035000000D11*

%ADD11C,0.6000*%

X0116000000Y0032000000D11*

%ADD11C,0.6000*%

X0165000000Y0065200000D11*

%ADD11C,0.6000*%

X0165000000Y0067500000D11*

%ADD11C,0.6000*%

X0165000000Y0069800000D11*

%ADD11C,0.6000*%

X0165000000Y0072100000D11*

%ADD11C,0.6000*%

X0165000000Y0058400000D11*

%ADD11C,0.6000*%

X0165000000Y0060800000D11*

%ADD11C,0.6000*%

X0165000000Y0062700000D11*

%ADD11C,0.6000*%

X0165000000Y0060300000D11*

%ADD11C,0.6000*%

X0055000000Y0060000000D11*

%ADD11C,0.6000*%

X0047000000Y0058000000D11*

%ADD11C,0.6000*%

X0065000000Y0093000000D11*

G01*
X0000000000Y0000000000Y0000000000Y0000000000D02*

X0003000000Y0000000000Y0003000000Y0000000000D01*

G01*
X0003000000Y0000000000Y0003000000Y0000000000D02*

X0197000000Y0000000000Y0197000000Y0000000000D01*

G01*
X0197000000Y0000000000Y0197000000Y0000000000D02*

X0200000000Y0003000000Y0200000000Y0003000000D01*

G01*
X0200000000Y0003000000Y0200000000Y0003000000D02*

X0200000000Y0147000000Y0200000000Y0147000000D01*

G01*
X0200000000Y0147000000Y0200000000Y0147000000D02*

X0197000000Y0150000000Y0197000000Y0150000000D01*

G01*
X0197000000Y0150000000Y0197000000Y0150000000D02*

X0003000000Y0150000000Y0003000000Y0150000000D01*

G01*
X0003000000Y0150000000Y0003000000Y0150000000D02*

X0000000000Y0147000000Y0000000000Y0147000000D01*

G01*
X0000000000Y0147000000Y0000000000Y0147000000D02*

X0000000000Y0003000000Y0000000000Y0003000000D01*

G01*
X0000000000Y0003000000Y0000000000Y0003000000D02*

X0000000000Y0000000000Y0000000000Y0000000000D01*

M02*