G04 EcoSynTech PCB v6.3 - Back Solder Mask*
G04 Board: 200mm x 150mm | 2-Layer | ENIG*
%FSLAX46Y46*%
%MOMM*%
%ADD10C,0.2500*%
%ADD11C,0.6000*%
%ADD12C,0.8000*%
%ADD13R,0.6000X0.2500*%
%ADD15R,0.3000X0.3000*%
%ADD16C,3.2000*%
%ADD17C,0.8000*%
%ADD18C,1.0000*%
%ADD19C,1.6000*%
%ADD20R,1.0000X0.5000*%
%ADD21R,0.3000X0.6000*%
%ADD22R,0.2500X0.5000*%
%ADD23C,0.5000*%
%ADD24C,1.0000*%
%ADD25R,0.8000X0.4000*%

G01*

%ADD11C,0.7000*%

%ADD12C,0.9000*%

%ADD17C,0.9000*%

%ADD18C,1.1000*%

%ADD19C,1.7000*%

X200000Y300000D03*

X300000Y300000D03*

X400000Y300000D03*

X200000Y400000D03*

X300000Y400000D03*

X400000Y400000D03*

X200000Y1300000D03*

X300000Y1300000D03*

X400000Y1300000D03*

X200000Y1400000D03*

X300000Y1400000D03*

X400000Y1400000D03*

X1600000Y1300000D03*

X1700000Y1300000D03*

X1800000Y1300000D03*

X1600000Y1400000D03*

X1700000Y1400000D03*

X1800000Y1400000D03*

X1000000Y400000D03*

X1100000Y400000D03*

X1200000Y400000D03*

X1000000Y500000D03*

X1100000Y500000D03*

X1200000Y500000D03*

X150000Y250000D03*

X600000Y650000D03*

X650000Y650000D03*

X1150000Y450000D03*

X1550000Y750000D03*

X1850000Y900000D03*

X1000000Y450000D03*

X1000000Y550000D03*

X1000000Y480000D03*

X1000000Y580000D03*

X1550000Y450000D03*

X1550000Y480000D03*

X1550000Y550000D03*

X1550000Y580000D03*

X1550000Y350000D03*

X1550000Y650000D03*

X1750000Y900000D03*

X1750000Y950000D03*

X250000Y300000D03*

X250000Y350000D03*

M02*
