; EcoSynTech PCB v6.3 - Excellon Drill File
; Board: 200mm x 150mm | 2-Layer | ENIG
; Manufacturer: See BOM for specifications
M48
;Metric,TZ
;TYPE=PLATED
METRIC,TZ
;FILE_FORMAT=2:6
%
INCH,TZ
T1F00S00C0.300
T2F00S00C0.800
T3F00S00C0.800
T4F00S00C1.000
T5F00S00C1.600
T6F00S00C3.200
%
;
; T1: Via 0.3mm drill
;
T1
X20000Y30000
X30000Y30000
X40000Y30000
X20000Y40000
X30000Y40000
X40000Y40000
X20000Y130000
X30000Y130000
X40000Y130000
X20000Y140000
X30000Y140000
X40000Y140000
X160000Y130000
X170000Y130000
X180000Y130000
X160000Y140000
X170000Y140000
X180000Y140000
X100000Y40000
X110000Y40000
X120000Y40000
X100000Y50000
X110000Y50000
X120000Y50000
X100000Y45000
X100000Y55000
X100000Y48000
X100000Y58000
X155000Y45000
X155000Y48000
X155000Y55000
X155000Y58000
X155000Y35000
X155000Y65000
X175000Y90000
X175000Y95000
X25000Y30000
X25000Y35000
;
; T2: Power via 0.8mm outer
;
T2
X15000Y25000
X60000Y65000
X65000Y65000
X115000Y45000
X155000Y75000
X185000Y90000
;
; T3: SMD pad drill 0.8mm
;
T3
X55000Y28000
X60000Y28000
X65000Y28000
X70000Y28000
X75000Y28000
X80000Y28000
X85000Y28000
X90000Y28000
X55000Y38000
X60000Y38000
X65000Y38000
X70000Y38000
X75000Y38000
X80000Y38000
X85000Y38000
X90000Y38000
X55000Y48000
X60000Y48000
X65000Y48000
X70000Y48000
X75000Y48000
X80000Y48000
X85000Y48000
X90000Y48000
X95000Y33000
X95000Y43000
X105000Y33000
X105000Y43000
X100000Y58000
X100000Y63000
X100000Y68000
X100000Y73000
X100000Y78000
X100000Y83000
X100000Y88000
X100000Y93000
;
; T4: THT pad drill 1.0mm
;
T4
X22000Y23000
X22000Y26000
X22000Y29000
X22000Y32000
X72000Y44000
X72000Y48000
X72000Y52000
X72000Y56000
X72000Y60000
X72000Y64000
X72000Y68000
X120000Y40000
X120000Y44000
X120000Y48000
X120000Y52000
X70000Y48000
X70000Y52000
;
; T5: Relay/Terminal drill 1.6mm
;
T5
X170000Y93000
X175000Y93000
X170000Y100000
X175000Y100000
X170000Y110000
X175000Y110000
X170000Y117000
X175000Y117000
X170000Y127000
X175000Y127000
X170000Y134000
X175000Y134000
X170000Y144000
X175000Y144000
X185000Y93000
X190000Y93000
X185000Y100000
X190000Y100000
X185000Y110000
X190000Y110000
X185000Y117000
X190000Y117000
X185000Y127000
X190000Y127000
X185000Y134000
X190000Y134000
X185000Y144000
X190000Y144000
X10000Y18000
X15080Y18000
X10000Y23000
X15080Y23000
X30000Y30000
X33810Y30000
X37620Y30000
X30000Y40000
X33810Y40000
X37620Y40000
X30000Y50000
X33810Y50000
X37620Y50000
X100000Y55000
X103810Y55000
X107620Y55000
X111430Y55000
X115240Y55000
X119050Y55000
X100000Y62000
X103810Y62000
X107620Y62000
X111430Y62000
X115240Y62000
X119050Y62000
X80000Y40000
X85080Y40000
X90160Y40000
X95240Y40000
X100320Y40000
X80000Y45080
X85080Y45080
X90160Y45080
X95240Y45080
X100320Y45080
X30000Y25000
X33810Y25000
X37620Y25000
X41430Y25000
X30000Y25000
X33810Y25000
X37620Y25000
X41430Y25000
;
; T6: NPTH Mounting holes M3 (3.2mm)
;
T6
X05000Y05000
X05000Y145000
X195000Y05000
X195000Y145000
M30
