G04 EcoSynTech PCB v6.3 - Front Silkscreen (F.SilkS)*
G04 Board: 200mm x 150mm | 2-Layer | ENIG*
%FSLAX46Y46*%
%MOMM*%

%FSLAX46Y46*%
%MOMM*%

%ADD10C,0.1500*%

G01*
X0011299999Y0019300000Y0011299999Y0019300000D02*

X0011900000Y0019300000Y0011900000Y0019300000D01*

X0011900000Y0019900000Y0011900000Y0019900000D01*

X0011299999Y0019900000Y0011299999Y0019900000D01*

X0011299999Y0019300000Y0011299999Y0019300000D01*

G01*
X0023300000Y0019300000Y0023300000Y0019300000D02*

X0023900000Y0019300000Y0023900000Y0019300000D01*

X0023900000Y0019900000Y0023900000Y0019900000D01*

X0023300000Y0019900000Y0023300000Y0019900000D01*

X0023300000Y0019300000Y0023300000Y0019300000D01*

G01*
X0036100000Y0019099999Y0036100000Y0019099999D02*

X0036699999Y0019099999Y0036699999Y0019099999D01*

X0036699999Y0019700000Y0036699999Y0019700000D01*

X0036100000Y0019700000Y0036100000Y0019700000D01*

X0036100000Y0019099999Y0036100000Y0019099999D01*

G01*
X0049100000Y0019099999Y0049100000Y0019099999D02*

X0049699999Y0019099999Y0049699999Y0019099999D01*

X0049699999Y0019700000Y0049699999Y0019700000D01*

X0049100000Y0019700000Y0049100000Y0019700000D01*

X0049100000Y0019099999Y0049100000Y0019099999D01*

G01*
X0063900000Y0019050000Y0063900000Y0019050000D02*

X0064500000Y0019050000Y0064500000Y0019050000D01*

X0064500000Y0019650000Y0064500000Y0019650000D01*

X0063900000Y0019650000Y0063900000Y0019650000D01*

X0063900000Y0019050000Y0063900000Y0019050000D01*

G01*
X0076200000Y0019200000Y0076200000Y0019200000D02*

X0076800000Y0019200000Y0076800000Y0019200000D01*

X0076800000Y0019800000Y0076800000Y0019800000D01*

X0076200000Y0019800000Y0076200000Y0019800000D01*

X0076200000Y0019200000Y0076200000Y0019200000D01*

G01*
X0091500000Y0019050000Y0091500000Y0019050000D02*

X0092100000Y0019050000Y0092100000Y0019050000D01*

X0092100000Y0019650000Y0092100000Y0019650000D01*

X0091500000Y0019650000Y0091500000Y0019650000D01*

X0091500000Y0019050000Y0091500000Y0019050000D01*

G01*
X0105300000Y0018970000Y0105300000Y0018970000D02*

X0105899999Y0018970000Y0105899999Y0018970000D01*

X0105899999Y0019570000Y0105899999Y0019570000D01*

X0105300000Y0019570000Y0105300000Y0019570000D01*

X0105300000Y0018970000Y0105300000Y0018970000D01*

G01*
X0105500000Y0010200000Y0105500000Y0010200000D02*

X0106100000Y0010200000Y0106100000Y0010200000D01*

X0106100000Y0010800000Y0106100000Y0010800000D01*

X0105500000Y0010800000Y0105500000Y0010800000D01*

X0105500000Y0010200000Y0105500000Y0010200000D01*

G01*
X0105500000Y0005200000Y0105500000Y0005200000D02*

X0106100000Y0005200000Y0106100000Y0005200000D01*

X0106100000Y0005800000Y0106100000Y0005800000D01*

X0105500000Y0005800000Y0105500000Y0005800000D01*

X0105500000Y0005200000Y0105500000Y0005200000D01*

G01*
X0105500000Y0027200000Y0105500000Y0027200000D02*

X0106100000Y0027200000Y0106100000Y0027200000D01*

X0106100000Y0027800000Y0106100000Y0027800000D01*

X0105500000Y0027800000Y0105500000Y0027800000D01*

X0105500000Y0027200000Y0105500000Y0027200000D01*

G01*
X0121300000Y0019300000Y0121300000Y0019300000D02*

X0121899999Y0019300000Y0121899999Y0019300000D01*

X0121899999Y0019900000Y0121899999Y0019900000D01*

X0121300000Y0019900000Y0121300000Y0019900000D01*

X0121300000Y0019300000Y0121300000Y0019300000D01*

G01*
X0131100000Y0012600000Y0131100000Y0012600000D02*

X0131700000Y0012600000Y0131700000Y0012600000D01*

X0131700000Y0013200000Y0131700000Y0013200000D01*

X0131100000Y0013200000Y0131100000Y0013200000D01*

X0131100000Y0012600000Y0131100000Y0012600000D01*

G01*
X0130500000Y0023200000Y0130500000Y0023200000D02*

X0131100000Y0023200000Y0131100000Y0023200000D01*

X0131100000Y0023800000Y0131100000Y0023800000D01*

X0130500000Y0023800000Y0130500000Y0023800000D01*

X0130500000Y0023200000Y0130500000Y0023200000D01*

G01*
X0072300000Y0035970000Y0072300000Y0035970000D02*

X0072899999Y0035970000Y0072899999Y0035970000D01*

X0072899999Y0036570000Y0072899999Y0036570000D01*

X0072300000Y0036570000Y0072300000Y0036570000D01*

X0072300000Y0035970000Y0072300000Y0035970000D01*

G01*
X0061100000Y0042600000Y0061100000Y0042600000D02*

X0061699999Y0042600000Y0061699999Y0042600000D01*

X0061699999Y0043199999Y0061699999Y0043199999D01*

X0061100000Y0043199999Y0061100000Y0043199999D01*

X0061100000Y0042600000Y0061100000Y0042600000D01*

G01*
X0060500000Y0035200000Y0060500000Y0035200000D02*

X0061099999Y0035200000Y0061099999Y0035200000D01*

X0061099999Y0035800000Y0061099999Y0035800000D01*

X0060500000Y0035800000Y0060500000Y0035800000D01*

X0060500000Y0035200000Y0060500000Y0035200000D01*

G01*
X0084100000Y0036100000Y0084100000Y0036100000D02*

X0084700000Y0036100000Y0084700000Y0036100000D01*

X0084700000Y0036699999Y0084700000Y0036699999D01*

X0084100000Y0036699999Y0084100000Y0036699999D01*

X0084100000Y0036100000Y0084100000Y0036100000D01*

G01*
X0094100000Y0042600000Y0094100000Y0042600000D02*

X0094700000Y0042600000Y0094700000Y0042600000D01*

X0094700000Y0043199999Y0094700000Y0043199999D01*

X0094100000Y0043199999Y0094100000Y0043199999D01*

X0094100000Y0042600000Y0094100000Y0042600000D01*

G01*
X0094100000Y0038600000Y0094100000Y0038600000D02*

X0094700000Y0038600000Y0094700000Y0038600000D01*

X0094700000Y0039199999Y0094700000Y0039199999D01*

X0094100000Y0039199999Y0094100000Y0039199999D01*

X0094100000Y0038600000Y0094100000Y0038600000D01*

G01*
X0093500000Y0034200000Y0093500000Y0034200000D02*

X0094100000Y0034200000Y0094100000Y0034200000D01*

X0094100000Y0034800000Y0094100000Y0034800000D01*

X0093500000Y0034800000Y0093500000Y0034800000D01*

X0093500000Y0034200000Y0093500000Y0034200000D01*

G01*
X0082500000Y0028200000Y0082500000Y0028200000D02*

X0083100000Y0028200000Y0083100000Y0028200000D01*

X0083100000Y0028800000Y0083100000Y0028800000D01*

X0082500000Y0028800000Y0082500000Y0028800000D01*

X0082500000Y0028200000Y0082500000Y0028200000D01*

G01*
X0082500000Y0024200000Y0082500000Y0024200000D02*

X0083100000Y0024200000Y0083100000Y0024200000D01*

X0083100000Y0024800000Y0083100000Y0024800000D01*

X0082500000Y0024800000Y0082500000Y0024800000D01*

X0082500000Y0024200000Y0082500000Y0024200000D01*

G01*
X0060500000Y0028200000Y0060500000Y0028200000D02*

X0061099999Y0028200000Y0061099999Y0028200000D01*

X0061099999Y0028800000Y0061099999Y0028800000D01*

X0060500000Y0028800000Y0060500000Y0028800000D01*

X0060500000Y0028200000Y0060500000Y0028200000D01*

G01*
X0091500000Y0051050000Y0091500000Y0051050000D02*

X0092100000Y0051050000Y0092100000Y0051050000D01*

X0092100000Y0051650000Y0092100000Y0051650000D01*

X0091500000Y0051650000Y0091500000Y0051650000D01*

X0091500000Y0051050000Y0091500000Y0051050000D01*

G01*
X0112300000Y0035970000Y0112300000Y0035970000D02*

X0112899999Y0035970000Y0112899999Y0035970000D01*

X0112899999Y0036570000Y0112899999Y0036570000D01*

X0112300000Y0036570000Y0112300000Y0036570000D01*

X0112300000Y0035970000Y0112300000Y0035970000D01*

G01*
X0101100000Y0042600000Y0101100000Y0042600000D02*

X0101700000Y0042600000Y0101700000Y0042600000D01*

X0101700000Y0043199999Y0101700000Y0043199999D01*

X0101100000Y0043199999Y0101100000Y0043199999D01*

X0101100000Y0042600000Y0101100000Y0042600000D01*

G01*
X0100500000Y0035200000Y0100500000Y0035200000D02*

X0101100000Y0035200000Y0101100000Y0035200000D01*

X0101100000Y0035800000Y0101100000Y0035800000D01*

X0100500000Y0035800000Y0100500000Y0035800000D01*

X0100500000Y0035200000Y0100500000Y0035200000D01*

G01*
X0124100000Y0036100000Y0124100000Y0036100000D02*

X0124700000Y0036100000Y0124700000Y0036100000D01*

X0124700000Y0036699999Y0124700000Y0036699999D01*

X0124100000Y0036699999Y0124100000Y0036699999D01*

X0124100000Y0036100000Y0124100000Y0036100000D01*

G01*
X0134100000Y0042600000Y0134100000Y0042600000D02*

X0134700000Y0042600000Y0134700000Y0042600000D01*

X0134700000Y0043199999Y0134700000Y0043199999D01*

X0134100000Y0043199999Y0134100000Y0043199999D01*

X0134100000Y0042600000Y0134100000Y0042600000D01*

G01*
X0134100000Y0038600000Y0134100000Y0038600000D02*

X0134700000Y0038600000Y0134700000Y0038600000D01*

X0134700000Y0039199999Y0134700000Y0039199999D01*

X0134100000Y0039199999Y0134100000Y0039199999D01*

X0134100000Y0038600000Y0134100000Y0038600000D01*

G01*
X0133500000Y0034200000Y0133500000Y0034200000D02*

X0134100000Y0034200000Y0134100000Y0034200000D01*

X0134100000Y0034800000Y0134100000Y0034800000D01*

X0133500000Y0034800000Y0133500000Y0034800000D01*

X0133500000Y0034200000Y0133500000Y0034200000D01*

G01*
X0122500000Y0028200000Y0122500000Y0028200000D02*

X0123100000Y0028200000Y0123100000Y0028200000D01*

X0123100000Y0028800000Y0123100000Y0028800000D01*

X0122500000Y0028800000Y0122500000Y0028800000D01*

X0122500000Y0028200000Y0122500000Y0028200000D01*

G01*
X0122500000Y0024200000Y0122500000Y0024200000D02*

X0123100000Y0024200000Y0123100000Y0024200000D01*

X0123100000Y0024800000Y0123100000Y0024800000D01*

X0122500000Y0024800000Y0122500000Y0024800000D01*

X0122500000Y0024200000Y0122500000Y0024200000D01*

G01*
X0100500000Y0028200000Y0100500000Y0028200000D02*

X0101100000Y0028200000Y0101100000Y0028200000D01*

X0101100000Y0028800000Y0101100000Y0028800000D01*

X0100500000Y0028800000Y0100500000Y0028800000D01*

X0100500000Y0028200000Y0100500000Y0028200000D01*

G01*
X0058500000Y0047200000Y0058500000Y0047200000D02*

X0059099999Y0047200000Y0059099999Y0047200000D01*

X0059099999Y0047800000Y0059099999Y0047800000D01*

X0058500000Y0047800000Y0058500000Y0047800000D01*

X0058500000Y0047200000Y0058500000Y0047200000D01*

G01*
X0063500000Y0047200000Y0063500000Y0047200000D02*

X0064099999Y0047200000Y0064099999Y0047200000D01*

X0064099999Y0047800000Y0064099999Y0047800000D01*

X0063500000Y0047800000Y0063500000Y0047800000D01*

X0063500000Y0047200000Y0063500000Y0047200000D01*

G01*
X0066500000Y0047200000Y0066500000Y0047200000D02*

X0067099999Y0047200000Y0067099999Y0047200000D01*

X0067099999Y0047800000Y0067099999Y0047800000D01*

X0066500000Y0047800000Y0066500000Y0047800000D01*

X0066500000Y0047200000Y0066500000Y0047200000D01*

G01*
X0058500000Y0067200000Y0058500000Y0067200000D02*

X0059099999Y0067200000Y0059099999Y0067200000D01*

X0059099999Y0067800000Y0059099999Y0067800000D01*

X0058500000Y0067800000Y0058500000Y0067800000D01*

X0058500000Y0067200000Y0058500000Y0067200000D01*

G01*
X0063500000Y0067200000Y0063500000Y0067200000D02*

X0064099999Y0067200000Y0064099999Y0067200000D01*

X0064099999Y0067800000Y0064099999Y0067800000D01*

X0063500000Y0067800000Y0063500000Y0067800000D01*

X0063500000Y0067200000Y0063500000Y0067200000D01*

G01*
X0066500000Y0067200000Y0066500000Y0067200000D02*

X0067099999Y0067200000Y0067099999Y0067200000D01*

X0067099999Y0067800000Y0067099999Y0067800000D01*

X0066500000Y0067800000Y0066500000Y0067800000D01*

X0066500000Y0067200000Y0066500000Y0067200000D01*

G01*
X0138299999Y0057600000Y0138299999Y0057600000D02*

X0138900000Y0057600000Y0138900000Y0057600000D01*

X0138900000Y0058199999Y0138900000Y0058199999D01*

X0138299999Y0058199999Y0138299999Y0058199999D01*

X0138299999Y0057600000Y0138299999Y0057600000D01*

G01*
X0141500000Y0057200000Y0141500000Y0057200000D02*

X0142100000Y0057200000Y0142100000Y0057200000D01*

X0142100000Y0057800000Y0142100000Y0057800000D01*

X0141500000Y0057800000Y0141500000Y0057800000D01*

X0141500000Y0057200000Y0141500000Y0057200000D01*

G01*
X0021500000Y0036050000Y0021500000Y0036050000D02*

X0022100000Y0036050000Y0022100000Y0036050000D01*

X0022100000Y0036650000Y0022100000Y0036650000D01*

X0021500000Y0036650000Y0021500000Y0036650000D01*

X0021500000Y0036050000Y0021500000Y0036050000D01*

G01*
X0028500000Y0036050000Y0028500000Y0036050000D02*

X0029100000Y0036050000Y0029100000Y0036050000D01*

X0029100000Y0036650000Y0029100000Y0036650000D01*

X0028500000Y0036650000Y0028500000Y0036650000D01*

X0028500000Y0036050000Y0028500000Y0036050000D01*

G01*
X0036100000Y0035600000Y0036100000Y0035600000D02*

X0036699999Y0035600000Y0036699999Y0035600000D01*

X0036699999Y0036199999Y0036699999Y0036199999D01*

X0036100000Y0036199999Y0036100000Y0036199999D01*

X0036100000Y0035600000Y0036100000Y0035600000D01*

G01*
X0040500000Y0035200000Y0040500000Y0035200000D02*

X0041099999Y0035200000Y0041099999Y0035200000D01*

X0041099999Y0035800000Y0041099999Y0035800000D01*

X0040500000Y0035800000Y0040500000Y0035800000D01*

X0040500000Y0035200000Y0040500000Y0035200000D01*

G01*
X0165200000Y0058100000Y0165200000Y0058100000D02*

X0165800000Y0058100000Y0165800000Y0058100000D01*

X0165800000Y0058699999Y0165800000Y0058699999D01*

X0165200000Y0058699999Y0165200000Y0058699999D01*

X0165200000Y0058100000Y0165200000Y0058100000D01*

G01*
X0150500000Y0070200000Y0150500000Y0070200000D02*

X0151100000Y0070200000Y0151100000Y0070200000D01*

X0151100000Y0070800000Y0151100000Y0070800000D01*

X0150500000Y0070800000Y0150500000Y0070800000D01*

X0150500000Y0070200000Y0150500000Y0070200000D01*

G01*
X0152500000Y0073200000Y0152500000Y0073200000D02*

X0153100000Y0073200000Y0153100000Y0073200000D01*

X0153100000Y0073800000Y0153100000Y0073800000D01*

X0152500000Y0073800000Y0152500000Y0073800000D01*

X0152500000Y0073200000Y0152500000Y0073200000D01*

G01*
X0154500000Y0076200000Y0154500000Y0076200000D02*

X0155100000Y0076200000Y0155100000Y0076200000D01*

X0155100000Y0076800000Y0155100000Y0076800000D01*

X0154500000Y0076800000Y0154500000Y0076800000D01*

X0154500000Y0076200000Y0154500000Y0076200000D01*

G01*
X0160500000Y0068200000Y0160500000Y0068200000D02*

X0161100000Y0068200000Y0161100000Y0068200000D01*

X0161100000Y0068800000Y0161100000Y0068800000D01*

X0160500000Y0068800000Y0160500000Y0068800000D01*

X0160500000Y0068200000Y0160500000Y0068200000D01*

G01*
X0163500000Y0068200000Y0163500000Y0068200000D02*

X0164100000Y0068200000Y0164100000Y0068200000D01*

X0164100000Y0068800000Y0164100000Y0068800000D01*

X0163500000Y0068800000Y0163500000Y0068800000D01*

X0163500000Y0068200000Y0163500000Y0068200000D01*

G01*
X0166500000Y0068200000Y0166500000Y0068200000D02*

X0167100000Y0068200000Y0167100000Y0068200000D01*

X0167100000Y0068800000Y0167100000Y0068800000D01*

X0166500000Y0068800000Y0166500000Y0068800000D01*

X0166500000Y0068200000Y0166500000Y0068200000D01*

G01*
X0155500000Y0050200000Y0155500000Y0050200000D02*

X0156100000Y0050200000Y0156100000Y0050200000D01*

X0156100000Y0050800000Y0156100000Y0050800000D01*

X0155500000Y0050800000Y0155500000Y0050800000D01*

X0155500000Y0050200000Y0155500000Y0050200000D01*

G01*
X0152500000Y0050200000Y0152500000Y0050200000D02*

X0153100000Y0050200000Y0153100000Y0050200000D01*

X0153100000Y0050800000Y0153100000Y0050800000D01*

X0152500000Y0050800000Y0152500000Y0050800000D01*

X0152500000Y0050200000Y0152500000Y0050200000D01*

G01*
X0155500000Y0053200000Y0155500000Y0053200000D02*

X0156100000Y0053200000Y0156100000Y0053200000D01*

X0156100000Y0053800000Y0156100000Y0053800000D01*

X0155500000Y0053800000Y0155500000Y0053800000D01*

X0155500000Y0053200000Y0155500000Y0053200000D01*

G01*
X0152500000Y0053200000Y0152500000Y0053200000D02*

X0153100000Y0053200000Y0153100000Y0053200000D01*

X0153100000Y0053800000Y0153100000Y0053800000D01*

X0152500000Y0053800000Y0152500000Y0053800000D01*

X0152500000Y0053200000Y0152500000Y0053200000D01*

G01*
X0155500000Y0056200000Y0155500000Y0056200000D02*

X0156100000Y0056200000Y0156100000Y0056200000D01*

X0156100000Y0056800000Y0156100000Y0056800000D01*

X0155500000Y0056800000Y0155500000Y0056800000D01*

X0155500000Y0056200000Y0155500000Y0056200000D01*

G01*
X0152500000Y0056200000Y0152500000Y0056200000D02*

X0153100000Y0056200000Y0153100000Y0056200000D01*

X0153100000Y0056800000Y0153100000Y0056800000D01*

X0152500000Y0056800000Y0152500000Y0056800000D01*

X0152500000Y0056200000Y0152500000Y0056200000D01*

G01*
X0155500000Y0059200000Y0155500000Y0059200000D02*

X0156100000Y0059200000Y0156100000Y0059200000D01*

X0156100000Y0059800000Y0156100000Y0059800000D01*

X0155500000Y0059800000Y0155500000Y0059800000D01*

X0155500000Y0059200000Y0155500000Y0059200000D01*

G01*
X0152500000Y0059200000Y0152500000Y0059200000D02*

X0153100000Y0059200000Y0153100000Y0059200000D01*

X0153100000Y0059800000Y0153100000Y0059800000D01*

X0152500000Y0059800000Y0152500000Y0059800000D01*

X0152500000Y0059200000Y0152500000Y0059200000D01*

G01*
X0040500000Y0045200000Y0040500000Y0045200000D02*

X0041099999Y0045200000Y0041099999Y0045200000D01*

X0041099999Y0045800000Y0041099999Y0045800000D01*

X0040500000Y0045800000Y0040500000Y0045800000D01*

X0040500000Y0045200000Y0040500000Y0045200000D01*

G01*
X0040500000Y0055200000Y0040500000Y0055200000D02*

X0041099999Y0055200000Y0041099999Y0055200000D01*

X0041099999Y0055800000Y0041099999Y0055800000D01*

X0040500000Y0055800000Y0040500000Y0055800000D01*

X0040500000Y0055200000Y0040500000Y0055200000D01*

G01*
X0170500000Y0072200000Y0170500000Y0072200000D02*

X0171100000Y0072200000Y0171100000Y0072200000D01*

X0171100000Y0072800000Y0171100000Y0072800000D01*

X0170500000Y0072800000Y0170500000Y0072800000D01*

X0170500000Y0072200000Y0170500000Y0072200000D01*

G01*
X0025700000Y0030500000Y0025700000Y0030500000D02*

X0026700000Y0030500000Y0026700000Y0030500000D01*

X0026700000Y0031700000Y0026700000Y0031700000D01*

X0025700000Y0031700000Y0025700000Y0031700000D01*

X0025700000Y0030500000Y0025700000Y0030500000D01*

G01*
X0033100000Y0031099999Y0033100000Y0031099999D02*

X0033699999Y0031099999Y0033699999Y0031099999D01*

X0033699999Y0031700000Y0033699999Y0031700000D01*

X0033100000Y0031700000Y0033100000Y0031700000D01*

X0033100000Y0031099999Y0033100000Y0031099999D01*

G01*
X0040500000Y0031050000Y0040500000Y0031050000D02*

X0041099999Y0031050000Y0041099999Y0031050000D01*

X0041099999Y0031650000Y0041099999Y0031650000D01*

X0040500000Y0031650000Y0040500000Y0031650000D01*

X0040500000Y0031050000Y0040500000Y0031050000D01*

G01*
X0047100000Y0030599999Y0047100000Y0030599999D02*

X0047699999Y0030599999Y0047699999Y0030599999D01*

X0047699999Y0031200000Y0047699999Y0031200000D01*

X0047100000Y0031200000Y0047100000Y0031200000D01*

X0047100000Y0030599999Y0047100000Y0030599999D01*

G01*
X0053300000Y0030599999Y0053300000Y0030599999D02*

X0053900000Y0030599999Y0053900000Y0030599999D01*

X0053900000Y0031200000Y0053900000Y0031200000D01*

X0053300000Y0031200000Y0053300000Y0031200000D01*

X0053300000Y0030599999Y0053300000Y0030599999D01*

G01*
X0034950000Y0053200000Y0034950000Y0053200000D02*

X0035800000Y0053200000Y0035800000Y0053200000D01*

X0035800000Y0053800000Y0035800000Y0053800000D01*

X0034950000Y0053800000Y0034950000Y0053800000D01*

X0034950000Y0053200000Y0034950000Y0053200000D01*

G01*
X0040300000Y0060600000Y0040300000Y0060600000D02*

X0040900000Y0060600000Y0040900000Y0060600000D01*

X0040900000Y0061199999Y0040900000Y0061199999D01*

X0040300000Y0061199999Y0040300000Y0061199999D01*

X0040300000Y0060600000Y0040300000Y0060600000D01*

G01*
X0037500000Y0060200000Y0037500000Y0060200000D02*

X0038099999Y0060200000Y0038099999Y0060200000D01*

X0038099999Y0060800000Y0038099999Y0060800000D01*

X0037500000Y0060800000Y0037500000Y0060800000D01*

X0037500000Y0060200000Y0037500000Y0060200000D01*

G01*
X0040300000Y0065600000Y0040300000Y0065600000D02*

X0040900000Y0065600000Y0040900000Y0065600000D01*

X0040900000Y0066200000Y0040900000Y0066200000D01*

X0040300000Y0066200000Y0040300000Y0066200000D01*

X0040300000Y0065600000Y0040300000Y0065600000D01*

G01*
X0037500000Y0065200000Y0037500000Y0065200000D02*

X0038099999Y0065200000Y0038099999Y0065200000D01*

X0038099999Y0065800000Y0038099999Y0065800000D01*

X0037500000Y0065800000Y0037500000Y0065800000D01*

X0037500000Y0065200000Y0037500000Y0065200000D01*

G01*
X0050300000Y0058600000Y0050300000Y0058600000D02*

X0050900000Y0058600000Y0050900000Y0058600000D01*

X0050900000Y0059199999Y0050900000Y0059199999D01*

X0050300000Y0059199999Y0050300000Y0059199999D01*

X0050300000Y0058600000Y0050300000Y0058600000D01*

G01*
X0058500000Y0058200000Y0058500000Y0058200000D02*

X0059099999Y0058200000Y0059099999Y0058200000D01*

X0059099999Y0058800000Y0059099999Y0058800000D01*

X0058500000Y0058800000Y0058500000Y0058800000D01*

X0058500000Y0058200000Y0058500000Y0058200000D01*

G01*
X0047500000Y0061200000Y0047500000Y0061200000D02*

X0048099999Y0061200000Y0048099999Y0061200000D01*

X0048099999Y0061800000Y0048099999Y0061800000D01*

X0047500000Y0061800000Y0047500000Y0061800000D01*

X0047500000Y0061200000Y0047500000Y0061200000D01*

G01*
X0055500000Y0061200000Y0055500000Y0061200000D02*

X0056099999Y0061200000Y0056099999Y0061200000D01*

X0056099999Y0061800000Y0056099999Y0061800000D01*

X0055500000Y0061800000Y0055500000Y0061800000D01*

X0055500000Y0061200000Y0055500000Y0061200000D01*

G01*
X0050500000Y0064200000Y0050500000Y0064200000D02*

X0051099999Y0064200000Y0051099999Y0064200000D01*

X0051099999Y0064800000Y0051099999Y0064800000D01*

X0050500000Y0064800000Y0050500000Y0064800000D01*

X0050500000Y0064200000Y0050500000Y0064200000D01*

G01*
X0055300000Y0060600000Y0055300000Y0060600000D02*

X0055900000Y0060600000Y0055900000Y0060600000D01*

X0055900000Y0061199999Y0055900000Y0061199999D01*

X0055300000Y0061199999Y0055300000Y0061199999D01*

X0055300000Y0060600000Y0055300000Y0060600000D01*

G01*
X0016900000Y0089050000Y0016900000Y0089050000D02*

X0017500000Y0089050000Y0017500000Y0089050000D01*

X0017500000Y0089649999Y0017500000Y0089649999D01*

X0016900000Y0089649999Y0016900000Y0089649999D01*

X0016900000Y0089050000Y0016900000Y0089050000D01*

G01*
X0029300000Y0089300000Y0029300000Y0089300000D02*

X0029900000Y0089300000Y0029900000Y0089300000D01*

X0029900000Y0089899999Y0029900000Y0089899999D01*

X0029300000Y0089899999Y0029300000Y0089899999D01*

X0029300000Y0089300000Y0029300000Y0089300000D01*

G01*
X0041500000Y0089050000Y0041500000Y0089050000D02*

X0042099999Y0089050000Y0042099999Y0089050000D01*

X0042099999Y0089649999Y0042099999Y0089649999D01*

X0041500000Y0089649999Y0041500000Y0089649999D01*

X0041500000Y0089050000Y0041500000Y0089050000D01*

G01*
X0148299999Y0093600000Y0148299999Y0093600000D02*

X0148900000Y0093600000Y0148900000Y0093600000D01*

X0148900000Y0094200000Y0148900000Y0094200000D01*

X0148299999Y0094200000Y0148299999Y0094200000D01*

X0148299999Y0093600000Y0148299999Y0093600000D01*

G01*
X0165200000Y0093300000Y0165200000Y0093300000D02*

X0165800000Y0093300000Y0165800000Y0093300000D01*

X0165800000Y0093899999Y0165800000Y0093899999D01*

X0165200000Y0093899999Y0165200000Y0093899999D01*

X0165200000Y0093300000Y0165200000Y0093300000D01*

G01*
X0173500000Y0093200000Y0173500000Y0093200000D02*

X0174100000Y0093200000Y0174100000Y0093200000D01*

X0174100000Y0093800000Y0174100000Y0093800000D01*

X0173500000Y0093800000Y0173500000Y0093800000D01*

X0173500000Y0093200000Y0173500000Y0093200000D01*

G01*
X0155500000Y0093200000Y0155500000Y0093200000D02*

X0156100000Y0093200000Y0156100000Y0093200000D01*

X0156100000Y0093800000Y0156100000Y0093800000D01*

X0155500000Y0093800000Y0155500000Y0093800000D01*

X0155500000Y0093200000Y0155500000Y0093200000D01*

G01*
X0167500000Y0093200000Y0167500000Y0093200000D02*

X0168100000Y0093200000Y0168100000Y0093200000D01*

X0168100000Y0093800000Y0168100000Y0093800000D01*

X0167500000Y0093800000Y0167500000Y0093800000D01*

X0167500000Y0093200000Y0167500000Y0093200000D01*

G01*
X0140500000Y0093200000Y0140500000Y0093200000D02*

X0141100000Y0093200000Y0141100000Y0093200000D01*

X0141100000Y0093800000Y0141100000Y0093800000D01*

X0140500000Y0093800000Y0140500000Y0093800000D01*

X0140500000Y0093200000Y0140500000Y0093200000D01*

G01*
X0148299999Y0110600000Y0148299999Y0110600000D02*

X0148900000Y0110600000Y0148900000Y0110600000D01*

X0148900000Y0111200000Y0148900000Y0111200000D01*

X0148299999Y0111200000Y0148299999Y0111200000D01*

X0148299999Y0110600000Y0148299999Y0110600000D01*

G01*
X0165200000Y0110300000Y0165200000Y0110300000D02*

X0165800000Y0110300000Y0165800000Y0110300000D01*

X0165800000Y0110899999Y0165800000Y0110899999D01*

X0165200000Y0110899999Y0165200000Y0110899999D01*

X0165200000Y0110300000Y0165200000Y0110300000D01*

G01*
X0173500000Y0110200000Y0173500000Y0110200000D02*

X0174100000Y0110200000Y0174100000Y0110200000D01*

X0174100000Y0110800000Y0174100000Y0110800000D01*

X0173500000Y0110800000Y0173500000Y0110800000D01*

X0173500000Y0110200000Y0173500000Y0110200000D01*

G01*
X0155500000Y0110200000Y0155500000Y0110200000D02*

X0156100000Y0110200000Y0156100000Y0110200000D01*

X0156100000Y0110800000Y0156100000Y0110800000D01*

X0155500000Y0110800000Y0155500000Y0110800000D01*

X0155500000Y0110200000Y0155500000Y0110200000D01*

G01*
X0167500000Y0110200000Y0167500000Y0110200000D02*

X0168100000Y0110200000Y0168100000Y0110200000D01*

X0168100000Y0110800000Y0168100000Y0110800000D01*

X0167500000Y0110800000Y0167500000Y0110800000D01*

X0167500000Y0110200000Y0167500000Y0110200000D01*

G01*
X0140500000Y0110200000Y0140500000Y0110200000D02*

X0141100000Y0110200000Y0141100000Y0110200000D01*

X0141100000Y0110800000Y0141100000Y0110800000D01*

X0140500000Y0110800000Y0140500000Y0110800000D01*

X0140500000Y0110200000Y0140500000Y0110200000D01*

G01*
X0148299999Y0127600000Y0148299999Y0127600000D02*

X0148900000Y0127600000Y0148900000Y0127600000D01*

X0148900000Y0128200000Y0148900000Y0128200000D01*

X0148299999Y0128200000Y0148299999Y0128200000D01*

X0148299999Y0127600000Y0148299999Y0127600000D01*

G01*
X0165200000Y0127300000Y0165200000Y0127300000D02*

X0165800000Y0127300000Y0165800000Y0127300000D01*

X0165800000Y0127899999Y0165800000Y0127899999D01*

X0165200000Y0127899999Y0165200000Y0127899999D01*

X0165200000Y0127300000Y0165200000Y0127300000D01*

G01*
X0173500000Y0127200000Y0173500000Y0127200000D02*

X0174100000Y0127200000Y0174100000Y0127200000D01*

X0174100000Y0127800000Y0174100000Y0127800000D01*

X0173500000Y0127800000Y0173500000Y0127800000D01*

X0173500000Y0127200000Y0173500000Y0127200000D01*

G01*
X0155500000Y0127200000Y0155500000Y0127200000D02*

X0156100000Y0127200000Y0156100000Y0127200000D01*

X0156100000Y0127800000Y0156100000Y0127800000D01*

X0155500000Y0127800000Y0155500000Y0127800000D01*

X0155500000Y0127200000Y0155500000Y0127200000D01*

G01*
X0167500000Y0127200000Y0167500000Y0127200000D02*

X0168100000Y0127200000Y0168100000Y0127200000D01*

X0168100000Y0127800000Y0168100000Y0127800000D01*

X0167500000Y0127800000Y0167500000Y0127800000D01*

X0167500000Y0127200000Y0167500000Y0127200000D01*

G01*
X0140500000Y0127200000Y0140500000Y0127200000D02*

X0141100000Y0127200000Y0141100000Y0127200000D01*

X0141100000Y0127800000Y0141100000Y0127800000D01*

X0140500000Y0127800000Y0140500000Y0127800000D01*

X0140500000Y0127200000Y0140500000Y0127200000D01*

G01*
X0148299999Y0144600000Y0148299999Y0144600000D02*

X0148900000Y0144600000Y0148900000Y0144600000D01*

X0148900000Y0145200000Y0148900000Y0145200000D01*

X0148299999Y0145200000Y0148299999Y0145200000D01*

X0148299999Y0144600000Y0148299999Y0144600000D01*

G01*
X0165200000Y0144299999Y0165200000Y0144299999D02*

X0165800000Y0144299999Y0165800000Y0144299999D01*

X0165800000Y0144900000Y0165800000Y0144900000D01*

X0165200000Y0144900000Y0165200000Y0144900000D01*

X0165200000Y0144299999Y0165200000Y0144299999D01*

G01*
X0173500000Y0144200000Y0173500000Y0144200000D02*

X0174100000Y0144200000Y0174100000Y0144200000D01*

X0174100000Y0144800000Y0174100000Y0144800000D01*

X0173500000Y0144800000Y0173500000Y0144800000D01*

X0173500000Y0144200000Y0173500000Y0144200000D01*

G01*
X0155500000Y0144200000Y0155500000Y0144200000D02*

X0156100000Y0144200000Y0156100000Y0144200000D01*

X0156100000Y0144800000Y0156100000Y0144800000D01*

X0155500000Y0144800000Y0155500000Y0144800000D01*

X0155500000Y0144200000Y0155500000Y0144200000D01*

G01*
X0167500000Y0144200000Y0167500000Y0144200000D02*

X0168100000Y0144200000Y0168100000Y0144200000D01*

X0168100000Y0144800000Y0168100000Y0144800000D01*

X0167500000Y0144800000Y0167500000Y0144800000D01*

X0167500000Y0144200000Y0167500000Y0144200000D01*

G01*
X0140500000Y0144200000Y0140500000Y0144200000D02*

X0141100000Y0144200000Y0141100000Y0144200000D01*

X0141100000Y0144800000Y0141100000Y0144800000D01*

X0140500000Y0144800000Y0140500000Y0144800000D01*

X0140500000Y0144200000Y0140500000Y0144200000D01*

G01*
X0176100000Y0094100000Y0176100000Y0094100000D02*

X0176700000Y0094100000Y0176700000Y0094100000D01*

X0176700000Y0094700000Y0176700000Y0094700000D01*

X0176100000Y0094700000Y0176100000Y0094700000D01*

X0176100000Y0094100000Y0176100000Y0094100000D01*

G01*
X0186100000Y0094100000Y0186100000Y0094100000D02*

X0186700000Y0094100000Y0186700000Y0094100000D01*

X0186700000Y0094700000Y0186700000Y0094700000D01*

X0186100000Y0094700000Y0186100000Y0094700000D01*

X0186100000Y0094100000Y0186100000Y0094100000D01*

G01*
X0183500000Y0096200000Y0183500000Y0096200000D02*

X0184100000Y0096200000Y0184100000Y0096200000D01*

X0184100000Y0096800000Y0184100000Y0096800000D01*

X0183500000Y0096800000Y0183500000Y0096800000D01*

X0183500000Y0096200000Y0183500000Y0096200000D01*

G01*
X0180500000Y0096200000Y0180500000Y0096200000D02*

X0181100000Y0096200000Y0181100000Y0096200000D01*

X0181100000Y0096800000Y0181100000Y0096800000D01*

X0180500000Y0096800000Y0180500000Y0096800000D01*

X0180500000Y0096200000Y0180500000Y0096200000D01*

G01*
X0176100000Y0111100000Y0176100000Y0111100000D02*

X0176700000Y0111100000Y0176700000Y0111100000D01*

X0176700000Y0111700000Y0176700000Y0111700000D01*

X0176100000Y0111700000Y0176100000Y0111700000D01*

X0176100000Y0111100000Y0176100000Y0111100000D01*

G01*
X0186100000Y0111100000Y0186100000Y0111100000D02*

X0186700000Y0111100000Y0186700000Y0111100000D01*

X0186700000Y0111700000Y0186700000Y0111700000D01*

X0186100000Y0111700000Y0186100000Y0111700000D01*

X0186100000Y0111100000Y0186100000Y0111100000D01*

G01*
X0183500000Y0113200000Y0183500000Y0113200000D02*

X0184100000Y0113200000Y0184100000Y0113200000D01*

X0184100000Y0113800000Y0184100000Y0113800000D01*

X0183500000Y0113800000Y0183500000Y0113800000D01*

X0183500000Y0113200000Y0183500000Y0113200000D01*

G01*
X0180500000Y0113200000Y0180500000Y0113200000D02*

X0181100000Y0113200000Y0181100000Y0113200000D01*

X0181100000Y0113800000Y0181100000Y0113800000D01*

X0180500000Y0113800000Y0180500000Y0113800000D01*

X0180500000Y0113200000Y0180500000Y0113200000D01*

G01*
X0176100000Y0128100000Y0176100000Y0128100000D02*

X0176700000Y0128100000Y0176700000Y0128100000D01*

X0176700000Y0128700000Y0176700000Y0128700000D01*

X0176100000Y0128700000Y0176100000Y0128700000D01*

X0176100000Y0128100000Y0176100000Y0128100000D01*

G01*
X0186100000Y0128100000Y0186100000Y0128100000D02*

X0186700000Y0128100000Y0186700000Y0128100000D01*

X0186700000Y0128700000Y0186700000Y0128700000D01*

X0186100000Y0128700000Y0186100000Y0128700000D01*

X0186100000Y0128100000Y0186100000Y0128100000D01*

G01*
X0183500000Y0130199999Y0183500000Y0130199999D02*

X0184100000Y0130199999Y0184100000Y0130199999D01*

X0184100000Y0130800000Y0184100000Y0130800000D01*

X0183500000Y0130800000Y0183500000Y0130800000D01*

X0183500000Y0130199999Y0183500000Y0130199999D01*

G01*
X0180500000Y0130199999Y0180500000Y0130199999D02*

X0181100000Y0130199999Y0181100000Y0130199999D01*

X0181100000Y0130800000Y0181100000Y0130800000D01*

X0180500000Y0130800000Y0180500000Y0130800000D01*

X0180500000Y0130199999Y0180500000Y0130199999D01*

G01*
X0176100000Y0145100000Y0176100000Y0145100000D02*

X0176700000Y0145100000Y0176700000Y0145100000D01*

X0176700000Y0145700000Y0176700000Y0145700000D01*

X0176100000Y0145700000Y0176100000Y0145700000D01*

X0176100000Y0145100000Y0176100000Y0145100000D01*

G01*
X0186100000Y0145100000Y0186100000Y0145100000D02*

X0186700000Y0145100000Y0186700000Y0145100000D01*

X0186700000Y0145700000Y0186700000Y0145700000D01*

X0186100000Y0145700000Y0186100000Y0145700000D01*

X0186100000Y0145100000Y0186100000Y0145100000D01*

G01*
X0183500000Y0147200000Y0183500000Y0147200000D02*

X0184100000Y0147200000Y0184100000Y0147200000D01*

X0184100000Y0147800000Y0184100000Y0147800000D01*

X0183500000Y0147800000Y0183500000Y0147800000D01*

X0183500000Y0147200000Y0183500000Y0147200000D01*

G01*
X0180500000Y0147200000Y0180500000Y0147200000D02*

X0181100000Y0147200000Y0181100000Y0147200000D01*

X0181100000Y0147800000Y0181100000Y0147800000D01*

X0180500000Y0147800000Y0180500000Y0147800000D01*

X0180500000Y0147200000Y0180500000Y0147200000D01*

G01*
X0045300000Y0093600000Y0045300000Y0093600000D02*

X0045900000Y0093600000Y0045900000Y0093600000D01*

X0045900000Y0094200000Y0045900000Y0094200000D01*

X0045300000Y0094200000Y0045300000Y0094200000D01*

X0045300000Y0093600000Y0045300000Y0093600000D01*

G01*
X0055300000Y0093600000Y0055300000Y0093600000D02*

X0055900000Y0093600000Y0055900000Y0093600000D01*

X0055900000Y0094200000Y0055900000Y0094200000D01*

X0055300000Y0094200000Y0055300000Y0094200000D01*

X0055300000Y0093600000Y0055300000Y0093600000D01*

G01*
X0065500000Y0093200000Y0065500000Y0093200000D02*

X0066099999Y0093200000Y0066099999Y0093200000D01*

X0066099999Y0093800000Y0066099999Y0093800000D01*

X0065500000Y0093800000Y0065500000Y0093800000D01*

X0065500000Y0093200000Y0065500000Y0093200000D01*

G01*
X0065500000Y0088200000Y0065500000Y0088200000D02*

X0066099999Y0088200000Y0066099999Y0088200000D01*

X0066099999Y0088800000Y0066099999Y0088800000D01*

X0065500000Y0088800000Y0065500000Y0088800000D01*

X0065500000Y0088200000Y0065500000Y0088200000D01*

G01*
X0051100000Y0046100000Y0051100000Y0046100000D02*

X0051699999Y0046100000Y0051699999Y0046100000D01*

X0051699999Y0046699999Y0051699999Y0046699999D01*

X0051100000Y0046699999Y0051100000Y0046699999D01*

X0051100000Y0046100000Y0051100000Y0046100000D01*

G01*
X0041100000Y0036100000Y0041100000Y0036100000D02*

X0041699999Y0036100000Y0041699999Y0036100000D01*

X0041699999Y0036699999Y0041699999Y0036699999D01*

X0041100000Y0036699999Y0041100000Y0036699999D01*

X0041100000Y0036100000Y0041100000Y0036100000D01*

G01*
X0048500000Y0038200000Y0048500000Y0038200000D02*

X0049099999Y0038200000Y0049099999Y0038200000D01*

X0049099999Y0038800000Y0049099999Y0038800000D01*

X0048500000Y0038800000Y0048500000Y0038800000D01*

X0048500000Y0038200000Y0048500000Y0038200000D01*

G01*
X0055500000Y0040200000Y0055500000Y0040200000D02*

X0056099999Y0040200000Y0056099999Y0040200000D01*

X0056099999Y0040800000Y0056099999Y0040800000D01*

X0055500000Y0040800000Y0055500000Y0040800000D01*

X0055500000Y0040200000Y0055500000Y0040200000D01*

G01*
X0051100000Y0056100000Y0051100000Y0056100000D02*

X0051699999Y0056100000Y0051699999Y0056100000D01*

X0051699999Y0056699999Y0051699999Y0056699999D01*

X0051100000Y0056699999Y0051100000Y0056699999D01*

X0051100000Y0056100000Y0051100000Y0056100000D01*

G01*
X0041100000Y0046100000Y0041100000Y0046100000D02*

X0041699999Y0046100000Y0041699999Y0046100000D01*

X0041699999Y0046699999Y0041699999Y0046699999D01*

X0041100000Y0046699999Y0041100000Y0046699999D01*

X0041100000Y0046100000Y0041100000Y0046100000D01*

G01*
X0048500000Y0048200000Y0048500000Y0048200000D02*

X0049099999Y0048200000Y0049099999Y0048200000D01*

X0049099999Y0048800000Y0049099999Y0048800000D01*

X0048500000Y0048800000Y0048500000Y0048800000D01*

X0048500000Y0048200000Y0048500000Y0048200000D01*

G01*
X0055500000Y0050200000Y0055500000Y0050200000D02*

X0056099999Y0050200000Y0056099999Y0050200000D01*

X0056099999Y0050800000Y0056099999Y0050800000D01*

X0055500000Y0050800000Y0055500000Y0050800000D01*

X0055500000Y0050200000Y0055500000Y0050200000D01*

G01*
X0082000000Y0053300000Y0082000000Y0053300000D02*

X0082600000Y0053300000Y0082600000Y0053300000D01*

X0082600000Y0053900000Y0082600000Y0053900000D01*

X0082000000Y0053900000Y0082000000Y0053900000D01*

X0082000000Y0053300000Y0082000000Y0053300000D01*

G01*
X0087500000Y0057200000Y0087500000Y0057200000D02*

X0088100000Y0057200000Y0088100000Y0057200000D01*

X0088100000Y0057800000Y0088100000Y0057800000D01*

X0087500000Y0057800000Y0087500000Y0057800000D01*

X0087500000Y0057200000Y0087500000Y0057200000D01*

G01*
X0090500000Y0057200000Y0090500000Y0057200000D02*

X0091100000Y0057200000Y0091100000Y0057200000D01*

X0091100000Y0057800000Y0091100000Y0057800000D01*

X0090500000Y0057800000Y0090500000Y0057800000D01*

X0090500000Y0057200000Y0090500000Y0057200000D01*

G01*
X0075500000Y0048200000Y0075500000Y0048200000D02*

X0076100000Y0048200000Y0076100000Y0048200000D01*

X0076100000Y0048800000Y0076100000Y0048800000D01*

X0075500000Y0048800000Y0075500000Y0048800000D01*

X0075500000Y0048200000Y0075500000Y0048200000D01*

G01*
X0078500000Y0048200000Y0078500000Y0048200000D02*

X0079100000Y0048200000Y0079100000Y0048200000D01*

X0079100000Y0048800000Y0079100000Y0048800000D01*

X0078500000Y0048800000Y0078500000Y0048800000D01*

X0078500000Y0048200000Y0078500000Y0048200000D01*

G01*
X0078500000Y0048200000Y0078500000Y0048200000D02*

X0079100000Y0048200000Y0079100000Y0048200000D01*

X0079100000Y0048800000Y0079100000Y0048800000D01*

X0078500000Y0048800000Y0078500000Y0048800000D01*

X0078500000Y0048200000Y0078500000Y0048200000D01*

G01*
X0081500000Y0048200000Y0081500000Y0048200000D02*

X0082100000Y0048200000Y0082100000Y0048200000D01*

X0082100000Y0048800000Y0082100000Y0048800000D01*

X0081500000Y0048800000Y0081500000Y0048800000D01*

X0081500000Y0048200000Y0081500000Y0048200000D01*

G01*
X0081500000Y0048200000Y0081500000Y0048200000D02*

X0082100000Y0048200000Y0082100000Y0048200000D01*

X0082100000Y0048800000Y0082100000Y0048800000D01*

X0081500000Y0048800000Y0081500000Y0048800000D01*

X0081500000Y0048200000Y0081500000Y0048200000D01*

G01*
X0084500000Y0048200000Y0084500000Y0048200000D02*

X0085100000Y0048200000Y0085100000Y0048200000D01*

X0085100000Y0048800000Y0085100000Y0048800000D01*

X0084500000Y0048800000Y0084500000Y0048800000D01*

X0084500000Y0048200000Y0084500000Y0048200000D01*

G01*
X0084500000Y0048200000Y0084500000Y0048200000D02*

X0085100000Y0048200000Y0085100000Y0048200000D01*

X0085100000Y0048800000Y0085100000Y0048800000D01*

X0084500000Y0048800000Y0084500000Y0048800000D01*

X0084500000Y0048200000Y0084500000Y0048200000D01*

G01*
X0087500000Y0048200000Y0087500000Y0048200000D02*

X0088100000Y0048200000Y0088100000Y0048200000D01*

X0088100000Y0048800000Y0088100000Y0048800000D01*

X0087500000Y0048800000Y0087500000Y0048800000D01*

X0087500000Y0048200000Y0087500000Y0048200000D01*

G01*
X0113600000Y0061100000Y0113600000Y0061100000D02*

X0114200000Y0061100000Y0114200000Y0061100000D01*

X0114200000Y0061699999Y0114200000Y0061699999D01*

X0113600000Y0061699999Y0113600000Y0061699999D01*

X0113600000Y0061100000Y0113600000Y0061100000D01*

G01*
X0191299999Y0029300000Y0191299999Y0029300000D02*

X0191900000Y0029300000Y0191900000Y0029300000D01*

X0191900000Y0029900000Y0191900000Y0029900000D01*

X0191299999Y0029900000Y0191299999Y0029900000D01*

X0191299999Y0029300000Y0191299999Y0029300000D01*

G01*
X0178500000Y0028200000Y0178500000Y0028200000D02*

X0179100000Y0028200000Y0179100000Y0028200000D01*

X0179100000Y0028800000Y0179100000Y0028800000D01*

X0178500000Y0028800000Y0178500000Y0028800000D01*

X0178500000Y0028200000Y0178500000Y0028200000D01*

G01*
X0175500000Y0025200000Y0175500000Y0025200000D02*

X0176100000Y0025200000Y0176100000Y0025200000D01*

X0176100000Y0025800000Y0176100000Y0025800000D01*

X0175500000Y0025800000Y0175500000Y0025800000D01*

X0175500000Y0025200000Y0175500000Y0025200000D01*

G01*
X0178500000Y0022200000Y0178500000Y0022200000D02*

X0179100000Y0022200000Y0179100000Y0022200000D01*

X0179100000Y0022800000Y0179100000Y0022800000D01*

X0178500000Y0022800000Y0178500000Y0022800000D01*

X0178500000Y0022200000Y0178500000Y0022200000D01*

G01*
X0173500000Y0028200000Y0173500000Y0028200000D02*

X0174100000Y0028200000Y0174100000Y0028200000D01*

X0174100000Y0028800000Y0174100000Y0028800000D01*

X0173500000Y0028800000Y0173500000Y0028800000D01*

X0173500000Y0028200000Y0173500000Y0028200000D01*

G01*
X0170299999Y0028599999Y0170299999Y0028599999D02*

X0170900000Y0028599999Y0170900000Y0028599999D01*

X0170900000Y0029200000Y0170900000Y0029200000D01*

X0170299999Y0029200000Y0170299999Y0029200000D01*

X0170299999Y0028599999Y0170299999Y0028599999D01*

G01*
X0041100000Y0056100000Y0041100000Y0056100000D02*

X0041699999Y0056100000Y0041699999Y0056100000D01*

X0041699999Y0056699999Y0041699999Y0056699999D01*

X0041100000Y0056699999Y0041100000Y0056699999D01*

X0041100000Y0056100000Y0041100000Y0056100000D01*

G01*
X0035500000Y0055200000Y0035500000Y0055200000D02*

X0036099999Y0055200000Y0036099999Y0055200000D01*

X0036099999Y0055800000Y0036099999Y0055800000D01*

X0035500000Y0055800000Y0035500000Y0055800000D01*

X0035500000Y0055200000Y0035500000Y0055200000D01*

G01*
X0032500000Y0055200000Y0032500000Y0055200000D02*

X0033099999Y0055200000Y0033099999Y0055200000D01*

X0033099999Y0055800000Y0033099999Y0055800000D01*

X0032500000Y0055800000Y0032500000Y0055800000D01*

X0032500000Y0055200000Y0032500000Y0055200000D01*

G01*
X0029500000Y0055200000Y0029500000Y0055200000D02*

X0030100000Y0055200000Y0030100000Y0055200000D01*

X0030100000Y0055800000Y0030100000Y0055800000D01*

X0029500000Y0055800000Y0029500000Y0055800000D01*

X0029500000Y0055200000Y0029500000Y0055200000D01*

G01*
X0036100000Y0024099999Y0036100000Y0024099999D02*

X0036699999Y0024099999Y0036699999Y0024099999D01*

X0036699999Y0024700000Y0036699999Y0024700000D01*

X0036100000Y0024700000Y0036100000Y0024700000D01*

X0036100000Y0024099999Y0036100000Y0024099999D01*

G01*
X0036100000Y0026099999Y0036100000Y0026099999D02*

X0036699999Y0026099999Y0036699999Y0026099999D01*

X0036699999Y0026700000Y0036699999Y0026700000D01*

X0036100000Y0026700000Y0036100000Y0026700000D01*

X0036100000Y0026099999Y0036100000Y0026099999D01*

G01*
X0060500000Y0043200000Y0060500000Y0043200000D02*

X0061099999Y0043200000Y0061099999Y0043200000D01*

X0061099999Y0043800000Y0061099999Y0043800000D01*

X0060500000Y0043800000Y0060500000Y0043800000D01*

X0060500000Y0043200000Y0060500000Y0043200000D01*

G01*
X0060500000Y0048200000Y0060500000Y0048200000D02*

X0061099999Y0048200000Y0061099999Y0048200000D01*

X0061099999Y0048800000Y0061099999Y0048800000D01*

X0060500000Y0048800000Y0060500000Y0048800000D01*

X0060500000Y0048200000Y0060500000Y0048200000D01*

G01*
X0048500000Y0043200000Y0048500000Y0043200000D02*

X0049099999Y0043200000Y0049099999Y0043200000D01*

X0049099999Y0043800000Y0049099999Y0043800000D01*

X0048500000Y0043800000Y0048500000Y0043800000D01*

X0048500000Y0043200000Y0048500000Y0043200000D01*

G01*
X0048500000Y0048200000Y0048500000Y0048200000D02*

X0049099999Y0048200000Y0049099999Y0048200000D01*

X0049099999Y0048800000Y0049099999Y0048800000D01*

X0048500000Y0048800000Y0048500000Y0048800000D01*

X0048500000Y0048200000Y0048500000Y0048200000D01*

G01*
X0043500000Y0043200000Y0043500000Y0043200000D02*

X0044099999Y0043200000Y0044099999Y0043200000D01*

X0044099999Y0043800000Y0044099999Y0043800000D01*

X0043500000Y0043800000Y0043500000Y0043800000D01*

X0043500000Y0043200000Y0043500000Y0043200000D01*

G01*
X0043500000Y0048200000Y0043500000Y0048200000D02*

X0044099999Y0048200000Y0044099999Y0048200000D01*

X0044099999Y0048800000Y0044099999Y0048800000D01*

X0043500000Y0048800000Y0043500000Y0048800000D01*

X0043500000Y0048200000Y0043500000Y0048200000D01*

G01*
X0127500000Y0055200000Y0127500000Y0055200000D02*

X0128100000Y0055200000Y0128100000Y0055200000D01*

X0128100000Y0055800000Y0128100000Y0055800000D01*

X0127500000Y0055800000Y0127500000Y0055800000D01*

X0127500000Y0055200000Y0127500000Y0055200000D01*

G01*
X0145000000Y0055200000Y0145000000Y0055200000D02*

X0145600000Y0055200000Y0145600000Y0055200000D01*

X0145600000Y0055800000Y0145600000Y0055800000D01*

X0145000000Y0055800000Y0145000000Y0055800000D01*

X0145000000Y0055200000Y0145000000Y0055200000D01*

G01*
X0140899999Y0080500000Y0140899999Y0080500000D02*

X0141700000Y0080500000Y0141700000Y0080500000D01*

X0141700000Y0081700000Y0141700000Y0081700000D01*

X0140899999Y0081700000Y0140899999Y0081700000D01*

X0140899999Y0080500000Y0140899999Y0080500000D01*

G01*
X0134500000Y0083200000Y0134500000Y0083200000D02*

X0135100000Y0083200000Y0135100000Y0083200000D01*

X0135100000Y0083800000Y0135100000Y0083800000D01*

X0134500000Y0083800000Y0134500000Y0083800000D01*

X0134500000Y0083200000Y0134500000Y0083200000D01*

G01*
X0134500000Y0080200000Y0134500000Y0080200000D02*

X0135100000Y0080200000Y0135100000Y0080200000D01*

X0135100000Y0080800000Y0135100000Y0080800000D01*

X0134500000Y0080800000Y0134500000Y0080800000D01*

X0134500000Y0080200000Y0134500000Y0080200000D01*

G01*
X0134500000Y0077200000Y0134500000Y0077200000D02*

X0135100000Y0077200000Y0135100000Y0077200000D01*

X0135100000Y0077800000Y0135100000Y0077800000D01*

X0134500000Y0077800000Y0134500000Y0077800000D01*

X0134500000Y0077200000Y0134500000Y0077200000D01*

G01*
X0134500000Y0074200000Y0134500000Y0074200000D02*

X0135100000Y0074200000Y0135100000Y0074200000D01*

X0135100000Y0074800000Y0135100000Y0074800000D01*

X0134500000Y0074800000Y0134500000Y0074800000D01*

X0134500000Y0074200000Y0134500000Y0074200000D01*

G01*
X0134500000Y0071200000Y0134500000Y0071200000D02*

X0135100000Y0071200000Y0135100000Y0071200000D01*

X0135100000Y0071800000Y0135100000Y0071800000D01*

X0134500000Y0071800000Y0134500000Y0071800000D01*

X0134500000Y0071200000Y0134500000Y0071200000D01*

G01*
X0137500000Y0083200000Y0137500000Y0083200000D02*

X0138100000Y0083200000Y0138100000Y0083200000D01*

X0138100000Y0083800000Y0138100000Y0083800000D01*

X0137500000Y0083800000Y0137500000Y0083800000D01*

X0137500000Y0083200000Y0137500000Y0083200000D01*

G01*
X0050000000Y0110300000Y0050000000Y0110300000D02*

X0050599999Y0110300000Y0050599999Y0110300000D01*

X0050599999Y0110899999Y0050599999Y0110899999D01*

X0050000000Y0110899999Y0050000000Y0110899999D01*

X0050000000Y0110300000Y0050000000Y0110300000D01*

G01*
X0050000000Y0125300000Y0050000000Y0125300000D02*

X0050599999Y0125300000Y0050599999Y0125300000D01*

X0050599999Y0125899999Y0050599999Y0125899999D01*

X0050000000Y0125899999Y0050000000Y0125899999D01*

X0050000000Y0125300000Y0050000000Y0125300000D01*

G01*
X0105500000Y0115200000Y0105500000Y0115200000D02*

X0106100000Y0115200000Y0106100000Y0115200000D01*

X0106100000Y0115800000Y0106100000Y0115800000D01*

X0105500000Y0115800000Y0105500000Y0115800000D01*

X0105500000Y0115200000Y0105500000Y0115200000D01*

G01*
X0108500000Y0115200000Y0108500000Y0115200000D02*

X0109100000Y0115200000Y0109100000Y0115200000D01*

X0109100000Y0115800000Y0109100000Y0115800000D01*

X0108500000Y0115800000Y0108500000Y0115800000D01*

X0108500000Y0115200000Y0108500000Y0115200000D01*

G01*
X0120500000Y0130199999Y0120500000Y0130199999D02*

X0121100000Y0130199999Y0121100000Y0130199999D01*

X0121100000Y0130800000Y0121100000Y0130800000D01*

X0120500000Y0130800000Y0120500000Y0130800000D01*

X0120500000Y0130199999Y0120500000Y0130199999D01*

G01*
X0123500000Y0130199999Y0123500000Y0130199999D02*

X0124100000Y0130199999Y0124100000Y0130199999D01*

X0124100000Y0130800000Y0124100000Y0130800000D01*

X0123500000Y0130800000Y0123500000Y0130800000D01*

X0123500000Y0130199999Y0123500000Y0130199999D01*

G01*
X0148299999Y0093600000Y0148299999Y0093600000D02*

X0148900000Y0093600000Y0148900000Y0093600000D01*

X0148900000Y0094200000Y0148900000Y0094200000D01*

X0148299999Y0094200000Y0148299999Y0094200000D01*

X0148299999Y0093600000Y0148299999Y0093600000D01*

G01*
X0165200000Y0093300000Y0165200000Y0093300000D02*

X0165800000Y0093300000Y0165800000Y0093300000D01*

X0165800000Y0093899999Y0165800000Y0093899999D01*

X0165200000Y0093899999Y0165200000Y0093899999D01*

X0165200000Y0093300000Y0165200000Y0093300000D01*

G01*
X0173500000Y0093200000Y0173500000Y0093200000D02*

X0174100000Y0093200000Y0174100000Y0093200000D01*

X0174100000Y0093800000Y0174100000Y0093800000D01*

X0173500000Y0093800000Y0173500000Y0093800000D01*

X0173500000Y0093200000Y0173500000Y0093200000D01*

G01*
X0155500000Y0093200000Y0155500000Y0093200000D02*

X0156100000Y0093200000Y0156100000Y0093200000D01*

X0156100000Y0093800000Y0156100000Y0093800000D01*

X0155500000Y0093800000Y0155500000Y0093800000D01*

X0155500000Y0093200000Y0155500000Y0093200000D01*

G01*
X0162500000Y0093200000Y0162500000Y0093200000D02*

X0163100000Y0093200000Y0163100000Y0093200000D01*

X0163100000Y0093800000Y0163100000Y0093800000D01*

X0162500000Y0093800000Y0162500000Y0093800000D01*

X0162500000Y0093200000Y0162500000Y0093200000D01*

G01*
X0169100000Y0094100000Y0169100000Y0094100000D02*

X0169700000Y0094100000Y0169700000Y0094100000D01*

X0169700000Y0094700000Y0169700000Y0094700000D01*

X0169100000Y0094700000Y0169100000Y0094700000D01*

X0169100000Y0094100000Y0169100000Y0094100000D01*

G01*
X0179100000Y0094100000Y0179100000Y0094100000D02*

X0179700000Y0094100000Y0179700000Y0094100000D01*

X0179700000Y0094700000Y0179700000Y0094700000D01*

X0179100000Y0094700000Y0179100000Y0094700000D01*

X0179100000Y0094100000Y0179100000Y0094100000D01*

G01*
X0183500000Y0096200000Y0183500000Y0096200000D02*

X0184100000Y0096200000Y0184100000Y0096200000D01*

X0184100000Y0096800000Y0184100000Y0096800000D01*

X0183500000Y0096800000Y0183500000Y0096800000D01*

X0183500000Y0096200000Y0183500000Y0096200000D01*

G01*
X0180500000Y0096200000Y0180500000Y0096200000D02*

X0181100000Y0096200000Y0181100000Y0096200000D01*

X0181100000Y0096800000Y0181100000Y0096800000D01*

X0180500000Y0096800000Y0180500000Y0096800000D01*

X0180500000Y0096200000Y0180500000Y0096200000D01*

G01*
X0148299999Y0110600000Y0148299999Y0110600000D02*

X0148900000Y0110600000Y0148900000Y0110600000D01*

X0148900000Y0111200000Y0148900000Y0111200000D01*

X0148299999Y0111200000Y0148299999Y0111200000D01*

X0148299999Y0110600000Y0148299999Y0110600000D01*

G01*
X0165200000Y0110300000Y0165200000Y0110300000D02*

X0165800000Y0110300000Y0165800000Y0110300000D01*

X0165800000Y0110899999Y0165800000Y0110899999D01*

X0165200000Y0110899999Y0165200000Y0110899999D01*

X0165200000Y0110300000Y0165200000Y0110300000D01*

G01*
X0173500000Y0110200000Y0173500000Y0110200000D02*

X0174100000Y0110200000Y0174100000Y0110200000D01*

X0174100000Y0110800000Y0174100000Y0110800000D01*

X0173500000Y0110800000Y0173500000Y0110800000D01*

X0173500000Y0110200000Y0173500000Y0110200000D01*

G01*
X0155500000Y0110200000Y0155500000Y0110200000D02*

X0156100000Y0110200000Y0156100000Y0110200000D01*

X0156100000Y0110800000Y0156100000Y0110800000D01*

X0155500000Y0110800000Y0155500000Y0110800000D01*

X0155500000Y0110200000Y0155500000Y0110200000D01*

G01*
X0162500000Y0110200000Y0162500000Y0110200000D02*

X0163100000Y0110200000Y0163100000Y0110200000D01*

X0163100000Y0110800000Y0163100000Y0110800000D01*

X0162500000Y0110800000Y0162500000Y0110800000D01*

X0162500000Y0110200000Y0162500000Y0110200000D01*

G01*
X0169100000Y0111100000Y0169100000Y0111100000D02*

X0169700000Y0111100000Y0169700000Y0111100000D01*

X0169700000Y0111700000Y0169700000Y0111700000D01*

X0169100000Y0111700000Y0169100000Y0111700000D01*

X0169100000Y0111100000Y0169100000Y0111100000D01*

G01*
X0179100000Y0111100000Y0179100000Y0111100000D02*

X0179700000Y0111100000Y0179700000Y0111100000D01*

X0179700000Y0111700000Y0179700000Y0111700000D01*

X0179100000Y0111700000Y0179100000Y0111700000D01*

X0179100000Y0111100000Y0179100000Y0111100000D01*

G01*
X0183500000Y0113200000Y0183500000Y0113200000D02*

X0184100000Y0113200000Y0184100000Y0113200000D01*

X0184100000Y0113800000Y0184100000Y0113800000D01*

X0183500000Y0113800000Y0183500000Y0113800000D01*

X0183500000Y0113200000Y0183500000Y0113200000D01*

G01*
X0180500000Y0113200000Y0180500000Y0113200000D02*

X0181100000Y0113200000Y0181100000Y0113200000D01*

X0181100000Y0113800000Y0181100000Y0113800000D01*

X0180500000Y0113800000Y0180500000Y0113800000D01*

X0180500000Y0113200000Y0180500000Y0113200000D01*

G01*
X0148299999Y0127600000Y0148299999Y0127600000D02*

X0148900000Y0127600000Y0148900000Y0127600000D01*

X0148900000Y0128200000Y0148900000Y0128200000D01*

X0148299999Y0128200000Y0148299999Y0128200000D01*

X0148299999Y0127600000Y0148299999Y0127600000D01*

G01*
X0165200000Y0127300000Y0165200000Y0127300000D02*

X0165800000Y0127300000Y0165800000Y0127300000D01*

X0165800000Y0127899999Y0165800000Y0127899999D01*

X0165200000Y0127899999Y0165200000Y0127899999D01*

X0165200000Y0127300000Y0165200000Y0127300000D01*

G01*
X0173500000Y0127200000Y0173500000Y0127200000D02*

X0174100000Y0127200000Y0174100000Y0127200000D01*

X0174100000Y0127800000Y0174100000Y0127800000D01*

X0173500000Y0127800000Y0173500000Y0127800000D01*

X0173500000Y0127200000Y0173500000Y0127200000D01*

G01*
X0155500000Y0127200000Y0155500000Y0127200000D02*

X0156100000Y0127200000Y0156100000Y0127200000D01*

X0156100000Y0127800000Y0156100000Y0127800000D01*

X0155500000Y0127800000Y0155500000Y0127800000D01*

X0155500000Y0127200000Y0155500000Y0127200000D01*

G01*
X0162500000Y0127200000Y0162500000Y0127200000D02*

X0163100000Y0127200000Y0163100000Y0127200000D01*

X0163100000Y0127800000Y0163100000Y0127800000D01*

X0162500000Y0127800000Y0162500000Y0127800000D01*

X0162500000Y0127200000Y0162500000Y0127200000D01*

G01*
X0169100000Y0128100000Y0169100000Y0128100000D02*

X0169700000Y0128100000Y0169700000Y0128100000D01*

X0169700000Y0128700000Y0169700000Y0128700000D01*

X0169100000Y0128700000Y0169100000Y0128700000D01*

X0169100000Y0128100000Y0169100000Y0128100000D01*

G01*
X0179100000Y0128100000Y0179100000Y0128100000D02*

X0179700000Y0128100000Y0179700000Y0128100000D01*

X0179700000Y0128700000Y0179700000Y0128700000D01*

X0179100000Y0128700000Y0179100000Y0128700000D01*

X0179100000Y0128100000Y0179100000Y0128100000D01*

G01*
X0183500000Y0130199999Y0183500000Y0130199999D02*

X0184100000Y0130199999Y0184100000Y0130199999D01*

X0184100000Y0130800000Y0184100000Y0130800000D01*

X0183500000Y0130800000Y0183500000Y0130800000D01*

X0183500000Y0130199999Y0183500000Y0130199999D01*

G01*
X0180500000Y0130199999Y0180500000Y0130199999D02*

X0181100000Y0130199999Y0181100000Y0130199999D01*

X0181100000Y0130800000Y0181100000Y0130800000D01*

X0180500000Y0130800000Y0180500000Y0130800000D01*

X0180500000Y0130199999Y0180500000Y0130199999D01*

G01*
X0148299999Y0144600000Y0148299999Y0144600000D02*

X0148900000Y0144600000Y0148900000Y0144600000D01*

X0148900000Y0145200000Y0148900000Y0145200000D01*

X0148299999Y0145200000Y0148299999Y0145200000D01*

X0148299999Y0144600000Y0148299999Y0144600000D01*

G01*
X0165200000Y0144299999Y0165200000Y0144299999D02*

X0165800000Y0144299999Y0165800000Y0144299999D01*

X0165800000Y0144900000Y0165800000Y0144900000D01*

X0165200000Y0144900000Y0165200000Y0144900000D01*

X0165200000Y0144299999Y0165200000Y0144299999D01*

G01*
X0173500000Y0144200000Y0173500000Y0144200000D02*

X0174100000Y0144200000Y0174100000Y0144200000D01*

X0174100000Y0144800000Y0174100000Y0144800000D01*

X0173500000Y0144800000Y0173500000Y0144800000D01*

X0173500000Y0144200000Y0173500000Y0144200000D01*

G01*
X0155500000Y0144200000Y0155500000Y0144200000D02*

X0156100000Y0144200000Y0156100000Y0144200000D01*

X0156100000Y0144800000Y0156100000Y0144800000D01*

X0155500000Y0144800000Y0155500000Y0144800000D01*

X0155500000Y0144200000Y0155500000Y0144200000D01*

G01*
X0162500000Y0144200000Y0162500000Y0144200000D02*

X0163100000Y0144200000Y0163100000Y0144200000D01*

X0163100000Y0144800000Y0163100000Y0144800000D01*

X0162500000Y0144800000Y0162500000Y0144800000D01*

X0162500000Y0144200000Y0162500000Y0144200000D01*

G01*
X0169100000Y0145100000Y0169100000Y0145100000D02*

X0169700000Y0145100000Y0169700000Y0145100000D01*

X0169700000Y0145700000Y0169700000Y0145700000D01*

X0169100000Y0145700000Y0169100000Y0145700000D01*

X0169100000Y0145100000Y0169100000Y0145100000D01*

G01*
X0179100000Y0145100000Y0179100000Y0145100000D02*

X0179700000Y0145100000Y0179700000Y0145100000D01*

X0179700000Y0145700000Y0179700000Y0145700000D01*

X0179100000Y0145700000Y0179100000Y0145700000D01*

X0179100000Y0145100000Y0179100000Y0145100000D01*

G01*
X0183500000Y0147200000Y0183500000Y0147200000D02*

X0184100000Y0147200000Y0184100000Y0147200000D01*

X0184100000Y0147800000Y0184100000Y0147800000D01*

X0183500000Y0147800000Y0183500000Y0147800000D01*

X0183500000Y0147200000Y0183500000Y0147200000D01*

G01*
X0180500000Y0147200000Y0180500000Y0147200000D02*

X0181100000Y0147200000Y0181100000Y0147200000D01*

X0181100000Y0147800000Y0181100000Y0147800000D01*

X0180500000Y0147800000Y0180500000Y0147800000D01*

X0180500000Y0147200000Y0180500000Y0147200000D01*

G01*
X0191100000Y0021099999Y0191100000Y0021099999D02*

X0191700000Y0021099999Y0191700000Y0021099999D01*

X0191700000Y0021700000Y0191700000Y0021700000D01*

X0191100000Y0021700000Y0191100000Y0021700000D01*

X0191100000Y0021099999Y0191100000Y0021099999D01*

G01*
X0091100000Y0043600000Y0091100000Y0043600000D02*

X0091700000Y0043600000Y0091700000Y0043600000D01*

X0091700000Y0044199999Y0091700000Y0044199999D01*

X0091100000Y0044199999Y0091100000Y0044199999D01*

X0091100000Y0043600000Y0091100000Y0043600000D01*

G01*
X0075300000Y0040600000Y0075300000Y0040600000D02*

X0075899999Y0040600000Y0075899999Y0040600000D01*

X0075899999Y0041199999Y0075899999Y0041199999D01*

X0075300000Y0041199999Y0075300000Y0041199999D01*

X0075300000Y0040600000Y0075300000Y0040600000D01*

G01*
X0075300000Y0044600000Y0075300000Y0044600000D02*

X0075899999Y0044600000Y0075899999Y0044600000D01*

X0075899999Y0045199999Y0075899999Y0045199999D01*

X0075300000Y0045199999Y0075300000Y0045199999D01*

X0075300000Y0044600000Y0075300000Y0044600000D01*

G01*
X0075300000Y0048600000Y0075300000Y0048600000D02*

X0075899999Y0048600000Y0075899999Y0048600000D01*

X0075899999Y0049199999Y0075899999Y0049199999D01*

X0075300000Y0049199999Y0075300000Y0049199999D01*

X0075300000Y0048600000Y0075300000Y0048600000D01*

G01*
X0075300000Y0052600000Y0075300000Y0052600000D02*

X0075899999Y0052600000Y0075899999Y0052600000D01*

X0075899999Y0053199999Y0075899999Y0053199999D01*

X0075300000Y0053199999Y0075300000Y0053199999D01*

X0075300000Y0052600000Y0075300000Y0052600000D01*

%ADD10C,0.1000*%

G01*
X0000000000Y0000000000Y0000000000Y0000000000D02*

X0003000000Y0000000000Y0003000000Y0000000000D01*

G01*
X0003000000Y0000000000Y0003000000Y0000000000D02*

X0197000000Y0000000000Y0197000000Y0000000000D01*

G01*
X0197000000Y0000000000Y0197000000Y0000000000D02*

X0200000000Y0003000000Y0200000000Y0003000000D01*

G01*
X0200000000Y0003000000Y0200000000Y0003000000D02*

X0200000000Y0147000000Y0200000000Y0147000000D01*

G01*
X0200000000Y0147000000Y0200000000Y0147000000D02*

X0197000000Y0150000000Y0197000000Y0150000000D01*

G01*
X0197000000Y0150000000Y0197000000Y0150000000D02*

X0003000000Y0150000000Y0003000000Y0150000000D01*

G01*
X0003000000Y0150000000Y0003000000Y0150000000D02*

X0000000000Y0147000000Y0000000000Y0147000000D01*

G01*
X0000000000Y0147000000Y0000000000Y0147000000D02*

X0000000000Y0003000000Y0000000000Y0003000000D01*

G01*
X0000000000Y0003000000Y0000000000Y0003000000D02*

X0000000000Y0000000000Y0000000000Y0000000000D01*

%ADD10C,0.3000*%
G01*
X0101500000Y0149000000D02*

G01*
X0100000000Y0149000000D02*

G01*
X0100000000Y0146500000D02*

G01*
X0101500000Y0146500000D02*

G01*
X0100000000Y0147750000D02*

G01*
X0100375000Y0147750000D02*

G01*
X0102500000Y0148750000D02*

G01*
X0101375000Y0149000000D02*

G01*
X0100250000Y0149000000D02*

G01*
X0100250000Y0146500000D02*

G01*
X0101375000Y0146500000D02*

G01*
X0102500000Y0146750000D02*

G01*
X0102000000Y0149000000D02*

G01*
X0102000000Y0146500000D02*

G01*
X0103500000Y0146500000D02*

G01*
X0103500000Y0149000000D02*

X0102000000Y0149000000D01*

X0102000000Y0146500000D01*

X0103500000Y0146500000D01*

X0103500000Y0149000000D01*

G01*
X0104500000Y0148750000D02*

G01*
X0103375000Y0149000000D02*

G01*
X0102250000Y0149000000D02*

G01*
X0102250000Y0147750000D02*

G01*
X0103000000Y0147750000D02*

X0103375000Y0147750000D01*

X0104500000Y0147750000D01*

G01*
X0104500000Y0146750000D02*

G01*
X0103375000Y0146500000D02*

G01*
X0102250000Y0146500000D02*

X0102250000Y0146500000D01*

X0103375000Y0146500000D01*

X0104500000Y0146750000D01*

G01*
X0104000000Y0149000000D02*

G01*
X0104750000Y0147750000D02*

G01*
X0105500000Y0149000000D02*

X0104750000Y0147750000D01*

X0104750000Y0146500000D01*

G01*
X0105000000Y0149000000D02*

G01*
X0105000000Y0146500000D02*

G01*
X0106500000Y0149000000D02*

G01*
X0106500000Y0146500000D02*

G01*
X0106000000Y0149000000D02*

G01*
X0107500000Y0149000000D02*

G01*
X0106750000Y0149000000D02*

G01*
X0106750000Y0146500000D02*

G01*
X0108500000Y0149000000D02*

G01*
X0107000000Y0149000000D02*

G01*
X0107000000Y0146500000D02*

G01*
X0108500000Y0146500000D02*

G01*
X0107000000Y0147750000D02*

G01*
X0107375000Y0147750000D02*

G01*
X0109500000Y0148750000D02*

G01*
X0108375000Y0149000000D02*

G01*
X0107250000Y0149000000D02*

G01*
X0107250000Y0146500000D02*

G01*
X0108375000Y0146500000D02*

G01*
X0109500000Y0146750000D02*

G01*
X0109000000Y0149000000D02*

G01*
X0109000000Y0146500000D02*

G01*
X0109000000Y0147750000D02*

G01*
X0110500000Y0147750000D02*

G01*
X0110500000Y0149000000D02*

G01*
X0110500000Y0146500000D02*

G01*
X0111200000Y0149000000D02*

G01*
X0111950000Y0146500000D02*

G01*
X0112700000Y0149000000D02*

G01*
X0113700000Y0148375000D02*

G01*
X0112575000Y0146500000D02*

G01*
X0112200000Y0146500000D02*

G01*
X0112200000Y0149000000D02*

G01*
X0113700000Y0149000000D02*

X0113700000Y0148375000D01*

X0112200000Y0148375000D01*

G01*
X0113575000Y0148750000D02*

X0113575000Y0148750000D01*

G01*
X0113600000Y0148750000D02*

G01*
X0113975000Y0149000000D02*

G01*
X0115100000Y0148375000D02*

G01*
X0113975000Y0147750000D02*

G01*
X0115100000Y0147750000D02*

G01*
X0113975000Y0146500000D02*

G01*
X0113600000Y0146500000D02*

G01*
X0116175000Y0149000000D02*

G01*
X0116175000Y0146500000D02*

X0115800000Y0149000000D01*

X0117300000Y0149000000D01*

X0115800000Y0146500000D01*

X0117300000Y0146500000D01*

G01*
X0116400000Y0149000000D02*

G01*
X0116400000Y0146500000D02*

G01*
X0117900000Y0149000000D02*

G01*
X0117900000Y0146500000D02*

G01*
X0117400000Y0149000000D02*

G01*
X0117400000Y0146500000D02*

G01*
X0117775000Y0146500000D02*

G01*
X0118900000Y0148375000D02*

G01*
X0118900000Y0147750000D02*

X0118900000Y0148375000D01*

X0117775000Y0149000000D01*

X0117400000Y0149000000D01*

G01*
X0118400000Y0149000000D02*

G01*
X0118400000Y0146875000D02*

G01*
X0118775000Y0146500000D02*

G01*
X0119525000Y0146500000D02*

G01*
X0119900000Y0149000000D02*

G01*
X0120900000Y0148750000D02*

G01*
X0119775000Y0149000000D02*

G01*
X0118650000Y0149000000D02*

G01*
X0118650000Y0147750000D02*

G01*
X0119400000Y0147750000D02*

X0119775000Y0147750000D01*

X0120900000Y0147750000D01*

G01*
X0120900000Y0146750000D02*

G01*
X0119775000Y0146500000D02*

G01*
X0118650000Y0146500000D02*

X0118650000Y0146500000D01*

X0119775000Y0146500000D01*

X0120900000Y0146750000D01*

G01*
X0120400000Y0149000000D02*

G01*
X0121900000Y0149000000D02*

G01*
X0121150000Y0149000000D02*

G01*
X0121150000Y0146500000D02*

G01*
X0121400000Y0149000000D02*

G01*
X0121400000Y0146500000D02*

G01*
X0122900000Y0146500000D02*

G01*
X0122900000Y0147750000D02*

G01*
X0121400000Y0147750000D02*

G01*
X0121775000Y0147750000D02*

G01*
X0122900000Y0149000000D02*

G01*
X0122775000Y0149000000D02*

G01*
X0122775000Y0146500000D02*

X0122400000Y0149000000D01*

X0123900000Y0149000000D01*

X0122400000Y0146500000D01*

X0123900000Y0146500000D01*

G01*
X0123000000Y0149000000D02*

G01*
X0122250000Y0149000000D02*

G01*
X0123000000Y0146500000D02*

G01*
X0123750000Y0149000000D02*

G01*
X0122625000Y0148375000D02*

G01*
X0123375000Y0148375000D02*

G01*
X0124000000Y0149000000D02*

G01*
X0124000000Y0146500000D02*

G01*
X0125500000Y0146500000D02*

G01*
X0126000000Y0149000000D02*

G01*
X0126000000Y0146500000D02*

G01*
X0127500000Y0146500000D02*

G01*
X0127500000Y0147750000D02*

G01*
X0126000000Y0147750000D02*

G01*
X0127000000Y0149000000D02*

G01*
X0127000000Y0146500000D02*

G01*
X0128500000Y0146500000D02*

G01*
X0128500000Y0147750000D02*

G01*
X0127000000Y0147750000D02*

G01*
X0127375000Y0147750000D02*

G01*
X0128500000Y0149000000D02*

G01*
X0128000000Y0149000000D02*

G01*
X0128000000Y0146500000D02*

G01*
X0129500000Y0146500000D02*

G01*
X0129500000Y0149000000D02*

X0128000000Y0149000000D01*

X0128000000Y0146500000D01*

X0129500000Y0146500000D01*

X0129500000Y0149000000D01*

%ADD10C,0.2000*%
G01*
X0100000000Y0145300000D02*

G01*
X0100000000Y0143500000D02*

G01*
X0101080000Y0143500000D02*

G01*
X0101080000Y0144400000D02*

G01*
X0100000000Y0144400000D02*

G01*
X0100270000Y0144400000D02*

G01*
X0101080000Y0145300000D02*

G01*
X0102080000Y0145300000D02*

G01*
X0101000000Y0145300000D02*

G01*
X0101000000Y0143500000D02*

G01*
X0102080000Y0143500000D02*

G01*
X0101000000Y0144400000D02*

G01*
X0101270000Y0144400000D02*

G01*
X0102000000Y0145300000D02*

G01*
X0102540000Y0143500000D02*

G01*
X0103080000Y0145300000D02*

G01*
X0105280000Y0144850000D02*

G01*
X0104470000Y0143500000D02*

G01*
X0104200000Y0143500000D02*

G01*
X0104200000Y0145300000D02*

G01*
X0105280000Y0145300000D02*

X0105280000Y0144850000D01*

X0104200000Y0144850000D01*

G01*
X0105470000Y0145120000D02*

X0105470000Y0145120000D01*

G01*
X0105600000Y0145120000D02*

G01*
X0105870000Y0145300000D02*

G01*
X0106680000Y0144850000D02*

G01*
X0105870000Y0144400000D02*

G01*
X0106680000Y0144400000D02*

G01*
X0105870000Y0143500000D02*

G01*
X0105600000Y0143500000D02*

G01*
X0108880000Y0145300000D02*

G01*
X0107800000Y0145300000D02*

G01*
X0107800000Y0143500000D02*

G01*
X0107800000Y0144400000D02*

G01*
X0108070000Y0144400000D02*

G01*
X0109070000Y0145300000D02*

G01*
X0109070000Y0143500000D02*

X0108800000Y0145300000D01*

X0109880000Y0145300000D01*

X0108800000Y0143500000D01*

X0109880000Y0143500000D01*

G01*
X0109400000Y0145300000D02*

G01*
X0109400000Y0143500000D02*

G01*
X0110480000Y0145300000D02*

G01*
X0110480000Y0143500000D02*

G01*
X0110400000Y0145300000D02*

G01*
X0109860000Y0145300000D02*

G01*
X0110400000Y0143500000D02*

G01*
X0110940000Y0145300000D02*

G01*
X0110130000Y0144850000D02*

G01*
X0110670000Y0144850000D02*

G01*
X0111400000Y0145300000D02*

G01*
X0111400000Y0143500000D02*

G01*
X0112480000Y0143500000D02*

G01*
X0114870000Y0145300000D02*

G01*
X0114870000Y0143500000D02*

G01*
X0117400000Y0145120000D02*

G01*
X0117670000Y0145300000D02*

G01*
X0118480000Y0144850000D02*

G01*
X0118480000Y0143500000D02*

G01*
X0117400000Y0143500000D02*

G01*
X0117400000Y0144400000D02*

X0117670000Y0144400000D01*

X0118480000Y0144400000D01*

G01*
X0118508000Y0144400000D02*

G01*
X0119372000Y0144400000D02*

G01*
X0119200000Y0145300000D02*

G01*
X0119200000Y0143500000D02*

G01*
X0120280000Y0143500000D02*

G01*
X0120000000Y0145300000D02*

G01*
X0119460000Y0145300000D02*

G01*
X0120000000Y0143500000D02*

G01*
X0120540000Y0145300000D02*

G01*
X0119730000Y0144850000D02*

G01*
X0120270000Y0144850000D02*

G01*
X0121000000Y0145300000D02*

G01*
X0121540000Y0144400000D02*

G01*
X0122080000Y0145300000D02*

X0121540000Y0144400000D01*

X0121540000Y0143500000D01*

G01*
X0123080000Y0145300000D02*

G01*
X0122000000Y0145300000D02*

G01*
X0122000000Y0143500000D02*

G01*
X0123080000Y0143500000D02*

G01*
X0122000000Y0144400000D02*

G01*
X0122270000Y0144400000D02*

G01*
X0123000000Y0145300000D02*

G01*
X0123000000Y0143500000D02*

G01*
X0124080000Y0143500000D02*

G01*
X0124080000Y0144400000D02*

G01*
X0123000000Y0144400000D02*

G01*
X0123270000Y0144400000D02*

G01*
X0124080000Y0145300000D02*

G01*
X0126670000Y0145300000D02*

G01*
X0126670000Y0143500000D02*

G01*
X0130280000Y0145300000D02*

G01*
X0129200000Y0145300000D02*

G01*
X0129200000Y0143500000D02*

G01*
X0130280000Y0143500000D02*

G01*
X0129200000Y0144400000D02*

G01*
X0129470000Y0144400000D02*

G01*
X0130200000Y0145300000D02*

G01*
X0130200000Y0143500000D02*

G01*
X0131280000Y0145300000D02*

G01*
X0131280000Y0143500000D02*

G01*
X0131470000Y0145300000D02*

G01*
X0131470000Y0143500000D02*

X0131200000Y0145300000D01*

X0132280000Y0145300000D01*

X0131200000Y0143500000D01*

X0132280000Y0143500000D01*

G01*
X0132880000Y0145120000D02*

G01*
X0132070000Y0145300000D02*

G01*
X0131260000Y0145300000D02*

G01*
X0131260000Y0143500000D02*

G01*
X0132070000Y0143500000D02*

G01*
X0132880000Y0143680000D02*

G01*
X0132880000Y0144400000D02*

G01*
X0132070000Y0144400000D02*

G01*
X0135470000Y0145300000D02*

G01*
X0135470000Y0143500000D02*

G01*
X0139079999Y0145300000D02*

G01*
X0137999999Y0145300000D02*

G01*
X0137999999Y0143500000D02*

G01*
X0137999999Y0144400000D02*

G01*
X0138269999Y0144400000D02*

G01*
X0138999999Y0145300000D02*

G01*
X0138999999Y0143500000D02*

G01*
X0140079999Y0143500000D02*

G01*
X0140079999Y0144400000D02*

G01*
X0138999999Y0144400000D02*

G01*
X0139269999Y0144400000D02*

G01*
X0140079999Y0145300000D02*

G01*
X0140107999Y0144400000D02*

G01*
X0140971999Y0144400000D02*

G01*
X0140799999Y0145300000D02*

G01*
X0140799999Y0144400000D02*

G01*
X0141880000Y0144400000D02*

G01*
X0141880000Y0145300000D02*

G01*
X0141880000Y0143500000D02*

G01*
X0142999999Y0145300000D02*

G01*
X0144079999Y0145300000D02*

G01*
X0143539999Y0145300000D02*

G01*
X0143539999Y0143500000D02*

G01*
X0145079999Y0145120000D02*

G01*
X0144269999Y0145300000D02*

G01*
X0143459999Y0145300000D02*

G01*
X0143459999Y0143500000D02*

G01*
X0144269999Y0143500000D02*

G01*
X0145079999Y0143680000D02*

G01*
X0145079999Y0144400000D02*

G01*
X0144269999Y0144400000D02*

G01*
X0145107999Y0145120000D02*

G01*
X0145269999Y0145300000D02*

G01*
X0145269999Y0143500000D02*

X0144999999Y0143770000D01*

X0146079999Y0143770000D01*

G01*
X0145599999Y0145120000D02*

G01*
X0145869999Y0145300000D02*

G01*
X0146679999Y0144850000D02*

G01*
X0145869999Y0144400000D02*

G01*
X0146679999Y0144400000D02*

G01*
X0145869999Y0143500000D02*

G01*
X0145599999Y0143500000D02*

G01*
X0146599999Y0145300000D02*

G01*
X0146599999Y0143500000D02*

G01*
X0147679999Y0143500000D02*

G01*
X0147679999Y0145300000D02*

X0146599999Y0145300000D01*

X0147679999Y0145300000D01*

%ADD10C,0.1500*%
G01*
X0100900000Y0004500000D02*

G01*
X0100000000Y0004500000D02*

G01*
X0100000000Y0003000000D02*

G01*
X0100900000Y0003000000D02*

G01*
X0100000000Y0003750000D02*

G01*
X0100225000Y0003750000D02*

G01*
X0101900000Y0004350000D02*

G01*
X0101225000Y0004500000D02*

G01*
X0100550000Y0004500000D02*

G01*
X0100550000Y0003000000D02*

G01*
X0101225000Y0003000000D02*

G01*
X0101900000Y0003150000D02*

G01*
X0102000000Y0004500000D02*

G01*
X0102000000Y0003000000D02*

G01*
X0102900000Y0003000000D02*

G01*
X0102900000Y0004500000D02*

X0102000000Y0004500000D01*

X0102000000Y0003000000D01*

X0102900000Y0003000000D01*

X0102900000Y0004500000D01*

G01*
X0103090000Y0003750000D02*

G01*
X0103810000Y0003750000D02*

G01*
X0104700000Y0004350000D02*

G01*
X0104024999Y0004500000D02*

G01*
X0103350000Y0004500000D02*

G01*
X0103350000Y0003750000D02*

G01*
X0103800000Y0003750000D02*

X0104024999Y0003750000D01*

X0104700000Y0003750000D01*

G01*
X0104700000Y0003150000D02*

G01*
X0104024999Y0003000000D02*

G01*
X0103350000Y0003000000D02*

X0103350000Y0003000000D01*

X0104024999Y0003000000D01*

X0104700000Y0003150000D01*

G01*
X0104800000Y0004500000D02*

G01*
X0105250000Y0003750000D02*

G01*
X0105700000Y0004500000D02*

X0105250000Y0003750000D01*

X0105250000Y0003000000D01*

G01*
X0105800000Y0004500000D02*

G01*
X0105800000Y0003000000D02*

G01*
X0106700000Y0004500000D02*

G01*
X0106700000Y0003000000D02*

G01*
X0106800000Y0004500000D02*

G01*
X0107700000Y0004500000D02*

G01*
X0107250000Y0004500000D02*

G01*
X0107250000Y0003000000D02*

G01*
X0108700000Y0004500000D02*

G01*
X0107800000Y0004500000D02*

G01*
X0107800000Y0003000000D02*

G01*
X0108700000Y0003000000D02*

G01*
X0107800000Y0003750000D02*

G01*
X0108024999Y0003750000D02*

G01*
X0109700000Y0004350000D02*

G01*
X0109024999Y0004500000D02*

G01*
X0108350000Y0004500000D02*

G01*
X0108350000Y0003000000D02*

G01*
X0109024999Y0003000000D02*

G01*
X0109700000Y0003150000D02*

G01*
X0109800000Y0004500000D02*

G01*
X0109800000Y0003000000D02*

G01*
X0109800000Y0003750000D02*

G01*
X0110700000Y0003750000D02*

G01*
X0110700000Y0004500000D02*

G01*
X0110700000Y0003000000D02*

G01*
X0112900000Y0004350000D02*

G01*
X0112225000Y0004500000D02*

G01*
X0111550000Y0004500000D02*

G01*
X0111550000Y0003000000D02*

G01*
X0112225000Y0003000000D02*

G01*
X0112900000Y0003150000D02*

G01*
X0112900000Y0003750000D02*

G01*
X0112225000Y0003750000D02*

G01*
X0113000000Y0004500000D02*

G01*
X0113000000Y0003000000D02*

G01*
X0113900000Y0003000000D02*

G01*
X0113800000Y0004500000D02*

G01*
X0113800000Y0003000000D02*

G01*
X0114700000Y0003000000D02*

G01*
X0114700000Y0004500000D02*

X0113800000Y0004500000D01*

X0113800000Y0003000000D01*

X0114700000Y0003000000D01*

X0114700000Y0004500000D01*

G01*
X0114800000Y0004500000D02*

G01*
X0114800000Y0003000000D02*

G01*
X0115700000Y0004350000D02*

G01*
X0115700000Y0004125000D02*

G01*
X0114800000Y0004125000D02*

X0115700000Y0004125000D01*

X0114800000Y0004125000D01*

G01*
X0115700000Y0003750000D02*

G01*
X0114800000Y0003750000D02*

G01*
X0115700000Y0003150000D02*

G01*
X0114800000Y0003000000D02*

G01*
X0115800000Y0004500000D02*

G01*
X0115350000Y0004500000D02*

G01*
X0115800000Y0003000000D02*

G01*
X0116250000Y0004500000D02*

G01*
X0115575000Y0004125000D02*

G01*
X0116024999Y0004125000D02*

G01*
X0116800000Y0004500000D02*

G01*
X0116800000Y0003000000D02*

G01*
X0117700000Y0003000000D02*

G01*
X0120225000Y0004500000D02*

G01*
X0120225000Y0003000000D02*

G01*
X0123700000Y0004500000D02*

G01*
X0122800000Y0004500000D02*

G01*
X0122800000Y0003000000D02*

G01*
X0123700000Y0003000000D02*

G01*
X0122800000Y0003750000D02*

G01*
X0123025000Y0003750000D02*

G01*
X0124700000Y0004350000D02*

G01*
X0124025000Y0004500000D02*

G01*
X0123350000Y0004500000D02*

G01*
X0123350000Y0003000000D02*

G01*
X0124025000Y0003000000D02*

G01*
X0124700000Y0003150000D02*

G01*
X0124800000Y0004500000D02*

G01*
X0124800000Y0003000000D02*

G01*
X0125700000Y0003000000D02*

G01*
X0125700000Y0004500000D02*

X0124800000Y0004500000D01*

X0124800000Y0003000000D01*

X0125700000Y0003000000D01*

X0125700000Y0004500000D01*

G01*
X0126700000Y0004350000D02*

G01*
X0126025000Y0004500000D02*

G01*
X0125350000Y0004500000D02*

G01*
X0125350000Y0003750000D02*

G01*
X0125800000Y0003750000D02*

X0126025000Y0003750000D01*

X0126700000Y0003750000D01*

G01*
X0126700000Y0003150000D02*

G01*
X0126025000Y0003000000D02*

G01*
X0125350000Y0003000000D02*

X0125350000Y0003000000D01*

X0126025000Y0003000000D01*

X0126700000Y0003150000D01*

G01*
X0126800000Y0004500000D02*

G01*
X0127250000Y0003750000D02*

G01*
X0127700000Y0004500000D02*

X0127250000Y0003750000D01*

X0127250000Y0003000000D01*

G01*
X0127800000Y0004500000D02*

G01*
X0127800000Y0003000000D02*

G01*
X0128700000Y0004500000D02*

G01*
X0128700000Y0003000000D02*

G01*
X0128800000Y0004500000D02*

G01*
X0129700000Y0004500000D02*

G01*
X0129250000Y0004500000D02*

G01*
X0129250000Y0003000000D02*

G01*
X0130700000Y0004500000D02*

G01*
X0129800000Y0004500000D02*

G01*
X0129800000Y0003000000D02*

G01*
X0130700000Y0003000000D02*

G01*
X0129800000Y0003750000D02*

G01*
X0130025000Y0003750000D02*

G01*
X0131700000Y0004350000D02*

G01*
X0131025000Y0004500000D02*

G01*
X0130350000Y0004500000D02*

G01*
X0130350000Y0003000000D02*

G01*
X0131025000Y0003000000D02*

G01*
X0131700000Y0003150000D02*

G01*
X0131800000Y0004500000D02*

G01*
X0131800000Y0003000000D02*

G01*
X0131800000Y0003750000D02*

G01*
X0132700000Y0003750000D02*

G01*
X0132700000Y0004500000D02*

G01*
X0132700000Y0003000000D02*

G01*
X0133700000Y0004125000D02*

G01*
X0133025000Y0003000000D02*

G01*
X0132800000Y0003000000D02*

G01*
X0132800000Y0004500000D02*

G01*
X0133700000Y0004500000D02*

X0133700000Y0004125000D01*

X0132800000Y0004125000D01*

G01*
X0133800000Y0004500000D02*

G01*
X0133800000Y0003000000D02*

G01*
X0134700000Y0003000000D02*

G01*
X0134700000Y0004500000D02*

X0133800000Y0004500000D01*

X0134700000Y0004500000D01*

G01*
X0133800000Y0004125000D02*

G01*
X0134700000Y0004125000D02*

G01*
X0133800000Y0003750000D02*

G01*
X0134700000Y0003750000D02*

X0133800000Y0003000000D01*

X0134700000Y0003000000D01*

G01*
X0134800000Y0004500000D02*

G01*
X0135250000Y0003000000D02*

G01*
X0135700000Y0004500000D02*

G01*
X0135800000Y0004500000D02*

G01*
X0135800000Y0003000000D02*

G01*
X0136700000Y0004500000D02*

G01*
X0136700000Y0003000000D02*

G01*
X0139424999Y0004500000D02*

G01*
X0139424999Y0003000000D02*

G01*
X0141999999Y0004350000D02*

G01*
X0142224999Y0004500000D02*

G01*
X0142899999Y0004125000D02*

G01*
X0142899999Y0003000000D02*

G01*
X0141999999Y0003000000D02*

G01*
X0141999999Y0003750000D02*

X0142224999Y0003750000D01*

X0142899999Y0003750000D01*

G01*
X0142999999Y0004500000D02*

G01*
X0142999999Y0003000000D02*

G01*
X0143899999Y0003000000D02*

G01*
X0143899999Y0004500000D02*

X0142999999Y0004500000D01*

X0143899999Y0004500000D01*

G01*
X0143999999Y0004350000D02*

G01*
X0144224999Y0004500000D02*

G01*
X0144899999Y0004125000D02*

G01*
X0144899999Y0003000000D02*

G01*
X0143999999Y0003000000D02*

G01*
X0143999999Y0003750000D02*

X0144224999Y0003750000D01*

X0144899999Y0003750000D01*

G01*
X0145899999Y0004125000D02*

G01*
X0145224999Y0003000000D02*

G01*
X0144999999Y0003000000D02*

G01*
X0144999999Y0004500000D02*

G01*
X0145899999Y0004500000D02*

X0145899999Y0004125000D01*

X0144999999Y0004125000D01*

G01*
X0146089999Y0003750000D02*

G01*
X0146809999Y0003750000D02*

G01*
X0146799999Y0004500000D02*

G01*
X0146799999Y0003000000D02*

G01*
X0147700000Y0003000000D02*

G01*
X0147700000Y0004500000D02*

X0146799999Y0004500000D01*

X0147700000Y0004500000D01*

G01*
X0147799999Y0004500000D02*

G01*
X0147799999Y0003750000D02*

G01*
X0148700000Y0003750000D02*

G01*
X0148700000Y0004500000D02*

G01*
X0148700000Y0003000000D02*

G01*
X0148890000Y0003750000D02*

G01*
X0149610000Y0003750000D02*

G01*
X0149690000Y0004350000D02*

G01*
X0149825000Y0004500000D02*

G01*
X0149825000Y0003000000D02*

X0149600000Y0003225000D01*

X0150500000Y0003225000D01*

G01*
X0151100000Y0004125000D02*

G01*
X0150424999Y0003000000D02*

G01*
X0150200000Y0003000000D02*

G01*
X0150200000Y0004500000D02*

G01*
X0151100000Y0004500000D02*

X0151100000Y0004125000D01*

X0150200000Y0004125000D01*

%ADD10C,0.2500*%
G01*
X0101320000Y0098980000D02*

G01*
X0100330000Y0099200000D02*

G01*
X0099340000Y0099200000D02*

G01*
X0099340000Y0097000000D02*

G01*
X0100330000Y0097000000D02*

G01*
X0101320000Y0097220000D02*

G01*
X0101000000Y0099200000D02*

G01*
X0100340000Y0099200000D02*

G01*
X0101000000Y0097000000D02*

G01*
X0101660000Y0099200000D02*

G01*
X0100670000Y0098650000D02*

G01*
X0101330000Y0098650000D02*

G01*
X0102000000Y0099200000D02*

G01*
X0102000000Y0097330000D02*

G01*
X0102330000Y0097000000D02*

G01*
X0102990000Y0097000000D02*

G01*
X0103320000Y0099200000D02*

G01*
X0103000000Y0099200000D02*

G01*
X0104320000Y0099200000D02*

G01*
X0103660000Y0099200000D02*

G01*
X0103660000Y0097000000D02*

G01*
X0104330000Y0099200000D02*

G01*
X0104330000Y0097000000D02*

X0104000000Y0099200000D01*

X0105320000Y0099200000D01*

X0104000000Y0097000000D01*

X0105320000Y0097000000D01*

G01*
X0104600000Y0099200000D02*

G01*
X0104600000Y0097000000D02*

G01*
X0105919999Y0097000000D02*

G01*
X0105919999Y0099200000D02*

X0104600000Y0099200000D01*

X0104600000Y0097000000D01*

X0105919999Y0097000000D01*

X0105919999Y0099200000D01*

G01*
X0105600000Y0099200000D02*

G01*
X0105600000Y0097000000D02*

G01*
X0106919999Y0099200000D02*

G01*
X0106919999Y0097000000D02*

G01*
X0106930000Y0098980000D02*

G01*
X0106930000Y0098650000D02*

G01*
X0106930000Y0098100000D02*

G01*
X0108200000Y0099200000D02*

G01*
X0108200000Y0097000000D02*

G01*
X0108200000Y0098100000D02*

G01*
X0109520000Y0098100000D02*

G01*
X0109520000Y0099200000D02*

G01*
X0109520000Y0097000000D02*

G01*
X0109530000Y0099200000D02*

G01*
X0109530000Y0097000000D02*

X0109200000Y0099200000D01*

X0110520000Y0099200000D01*

X0109200000Y0097000000D01*

X0110520000Y0097000000D01*

G01*
X0111119999Y0098980000D02*

G01*
X0110130000Y0099200000D02*

G01*
X0109140000Y0099200000D02*

G01*
X0109140000Y0097000000D02*

G01*
X0110130000Y0097000000D02*

G01*
X0111119999Y0097220000D02*

G01*
X0111119999Y0098100000D02*

G01*
X0110130000Y0098100000D02*

G01*
X0110800000Y0099200000D02*

G01*
X0110800000Y0097000000D02*

G01*
X0110800000Y0098100000D02*

G01*
X0112119999Y0098100000D02*

G01*
X0112119999Y0099200000D02*

G01*
X0112119999Y0097000000D02*

G01*
X0113000000Y0099200000D02*

G01*
X0113660000Y0097000000D02*

G01*
X0114320000Y0099200000D02*

G01*
X0114000000Y0099200000D02*

G01*
X0114000000Y0097000000D02*

G01*
X0115320000Y0097000000D02*

G01*
X0115320000Y0099200000D02*

X0114000000Y0099200000D01*

X0114000000Y0097000000D01*

X0115320000Y0097000000D01*

X0115320000Y0099200000D01*

G01*
X0115000000Y0099200000D02*

G01*
X0115000000Y0097000000D02*

G01*
X0116320000Y0097000000D02*

G01*
X0115800000Y0099200000D02*

G01*
X0117119999Y0099200000D02*

G01*
X0116460000Y0099200000D02*

G01*
X0116460000Y0097000000D02*

G01*
X0116800000Y0099200000D02*

G01*
X0116140000Y0099200000D02*

G01*
X0116800000Y0097000000D02*

G01*
X0117460000Y0099200000D02*

G01*
X0116470000Y0098650000D02*

G01*
X0117130000Y0098650000D02*

G01*
X0119119999Y0098980000D02*

G01*
X0118130000Y0099200000D02*

G01*
X0117140000Y0099200000D02*

G01*
X0117140000Y0097000000D02*

G01*
X0118130000Y0097000000D02*

G01*
X0119119999Y0097220000D02*

G01*
X0119119999Y0098100000D02*

G01*
X0118130000Y0098100000D02*

G01*
X0120119999Y0099200000D02*

G01*
X0118800000Y0099200000D02*

G01*
X0118800000Y0097000000D02*

G01*
X0120119999Y0097000000D02*

G01*
X0118800000Y0098100000D02*

G01*
X0119130000Y0098100000D02*

G01*
X0121000000Y0098980000D02*

G01*
X0121330000Y0099200000D02*

G01*
X0122320000Y0098650000D02*

G01*
X0122320000Y0097000000D02*

G01*
X0121000000Y0097000000D02*

G01*
X0121000000Y0098100000D02*

X0121330000Y0098100000D01*

X0122320000Y0098100000D01*

G01*
X0122000000Y0098980000D02*

G01*
X0122330000Y0099200000D02*

G01*
X0123320000Y0098650000D02*

G01*
X0123320000Y0097000000D02*

G01*
X0122000000Y0097000000D02*

G01*
X0122000000Y0098100000D02*

X0122330000Y0098100000D01*

X0123320000Y0098100000D01*

G01*
X0123000000Y0099200000D02*

G01*
X0123000000Y0097000000D02*

G01*
X0124320000Y0097000000D02*

G01*
X0124320000Y0099200000D02*

X0123000000Y0099200000D01*

X0124320000Y0099200000D01*

G01*
X0124000000Y0099200000D02*

G01*
X0124660000Y0097000000D02*

G01*
X0125320000Y0099200000D02*

G01*
X0125000000Y0099200000D02*

G01*
X0124340000Y0099200000D02*

G01*
X0125000000Y0097000000D02*

G01*
X0125660000Y0099200000D02*

G01*
X0124670000Y0098650000D02*

G01*
X0125330000Y0098650000D02*

G01*
X0127320000Y0098980000D02*

G01*
X0126330000Y0099200000D02*

G01*
X0125340000Y0099200000D02*

G01*
X0125340000Y0097000000D02*

G01*
X0126330000Y0097000000D02*

G01*
X0127320000Y0097220000D02*

%ADD10C,0.1200*%
G01*
X0100150000Y0085500000D02*

G01*
X0100150000Y0084500000D02*

X0100000000Y0085500000D01*

X0100600000Y0085500000D01*

X0100000000Y0084500000D01*

X0100600000Y0084500000D01*

G01*
X0101199999Y0085400000D02*

G01*
X0100750000Y0085500000D02*

G01*
X0100300000Y0085500000D02*

G01*
X0100300000Y0085000000D02*

G01*
X0100600000Y0085000000D02*

X0100750000Y0085000000D01*

X0101199999Y0085000000D01*

G01*
X0101199999Y0084600000D02*

G01*
X0100750000Y0084500000D02*

G01*
X0100300000Y0084500000D02*

X0100300000Y0084500000D01*

X0100750000Y0084500000D01*

X0101199999Y0084600000D01*

G01*
X0101600000Y0085500000D02*

G01*
X0101600000Y0084500000D02*

G01*
X0102199999Y0084500000D02*

G01*
X0102199999Y0085500000D02*

X0101600000Y0085500000D01*

X0101600000Y0084500000D01*

X0102199999Y0084500000D01*

X0102199999Y0085500000D01*

G01*
X0102600000Y0085500000D02*

G01*
X0102600000Y0084500000D02*

G01*
X0103199999Y0084500000D02*

G01*
X0103399999Y0085500000D02*

G01*
X0103100000Y0085500000D02*

G01*
X0103399999Y0084500000D02*

G01*
X0103699999Y0085500000D02*

G01*
X0103249999Y0085250000D02*

G01*
X0103550000Y0085250000D02*

G01*
X0104399999Y0085500000D02*

G01*
X0104999999Y0085500000D02*

G01*
X0104699999Y0085500000D02*

G01*
X0104699999Y0084500000D02*

G01*
X0105550000Y0085500000D02*

G01*
X0105550000Y0084500000D02*

X0105399999Y0085500000D01*

X0105999999Y0085500000D01*

X0105399999Y0084500000D01*

X0105999999Y0084500000D01*

G01*
X0105999999Y0085500000D02*

G01*
X0105999999Y0084500000D02*

G01*
X0106599999Y0084500000D02*

G01*
X0106599999Y0085500000D02*

X0105999999Y0085500000D01*

X0105999999Y0084500000D01*

X0106599999Y0084500000D01*

X0106599999Y0085500000D01*

G01*
X0106999999Y0085500000D02*

G01*
X0106999999Y0084500000D02*

G01*
X0107599999Y0085500000D02*

G01*
X0107599999Y0084500000D02*

G01*
X0109799999Y0085400000D02*

G01*
X0109350000Y0085500000D02*

G01*
X0108899999Y0085500000D02*

G01*
X0108899999Y0085000000D02*

G01*
X0109199999Y0085000000D02*

X0109350000Y0085000000D01*

X0109799999Y0085000000D01*

G01*
X0109799999Y0084600000D02*

G01*
X0109350000Y0084500000D02*

G01*
X0108899999Y0084500000D02*

X0108899999Y0084500000D01*

X0109350000Y0084500000D01*

X0109799999Y0084600000D01*

G01*
X0110199999Y0085500000D02*

G01*
X0110199999Y0084500000D02*

G01*
X0110799999Y0084500000D02*

G01*
X0110999999Y0085500000D02*

G01*
X0110999999Y0084500000D02*

G01*
X0111599999Y0084500000D02*

G01*
X0111599999Y0085500000D02*

X0110999999Y0085500000D01*

X0110999999Y0084500000D01*

X0111599999Y0084500000D01*

X0111599999Y0085500000D01*

G01*
X0111999999Y0085500000D02*

G01*
X0112599999Y0085500000D02*

G01*
X0112299999Y0085500000D02*

G01*
X0112299999Y0084500000D02*

%ADD10C,0.1200*%
G01*
X0165000000Y0078000000D02*

G01*
X0164700000Y0078000000D02*

G01*
X0165000000Y0077000000D02*

G01*
X0165300000Y0078000000D02*

G01*
X0164850000Y0077750000D02*

G01*
X0165150000Y0077750000D02*

G01*
X0166000000Y0078000000D02*

G01*
X0166000000Y0077000000D02*

G01*
X0166600000Y0078000000D02*

G01*
X0166600000Y0077000000D02*

G01*
X0167000000Y0078000000D02*

G01*
X0167600000Y0078000000D02*

G01*
X0167300000Y0078000000D02*

G01*
X0167300000Y0077000000D02*

G01*
X0168600000Y0078000000D02*

G01*
X0168000000Y0078000000D02*

G01*
X0168000000Y0077000000D02*

G01*
X0168600000Y0077000000D02*

G01*
X0168000000Y0077500000D02*

G01*
X0168150000Y0077500000D02*

G01*
X0169000000Y0078000000D02*

G01*
X0169000000Y0077000000D02*

G01*
X0169600000Y0078000000D02*

G01*
X0169600000Y0077000000D02*

G01*
X0170000000Y0078000000D02*

G01*
X0170000000Y0077000000D02*

G01*
X0170600000Y0078000000D02*

G01*
X0170600000Y0077000000D02*

G01*
X0171000000Y0078000000D02*

G01*
X0170700000Y0078000000D02*

G01*
X0171000000Y0077000000D02*

G01*
X0171300000Y0078000000D02*

G01*
X0170850000Y0077750000D02*

G01*
X0171150000Y0077750000D02*

G01*
X0173200000Y0078000000D02*

G01*
X0173200000Y0077000000D02*

G01*
X0173799999Y0077000000D02*

G01*
X0173200000Y0077500000D02*

G01*
X0173799999Y0078000000D02*

G01*
X0174799999Y0078000000D02*

G01*
X0174200000Y0078000000D02*

G01*
X0174200000Y0077000000D02*

G01*
X0174799999Y0077000000D02*

G01*
X0174200000Y0077500000D02*

G01*
X0174350000Y0077500000D02*

G01*
X0175799999Y0078000000D02*

G01*
X0175200000Y0078000000D02*

G01*
X0175200000Y0077000000D02*

G01*
X0175799999Y0077000000D02*

G01*
X0175200000Y0077500000D02*

G01*
X0175350000Y0077500000D02*

G01*
X0176200000Y0078000000D02*

G01*
X0176200000Y0077000000D02*

G01*
X0176799999Y0077000000D02*

G01*
X0176799999Y0077500000D02*

G01*
X0176200000Y0077500000D02*

G01*
X0177200000Y0078000000D02*

G01*
X0177200000Y0077000000D02*

G01*
X0177799999Y0077000000D02*

G01*
X0177799999Y0078000000D02*

X0177200000Y0078000000D01*

X0177200000Y0077000000D01*

X0177799999Y0077000000D01*

X0177799999Y0078000000D01*

G01*
X0178200000Y0078000000D02*

G01*
X0178200000Y0077150000D02*

G01*
X0178350000Y0077000000D02*

G01*
X0178649999Y0077000000D02*

G01*
X0178799999Y0078000000D02*

G01*
X0179200000Y0078000000D02*

G01*
X0179799999Y0078000000D02*

G01*
X0179500000Y0078000000D02*

G01*
X0179500000Y0077000000D02*

G01*
X0181399999Y0078000000D02*

G01*
X0181999999Y0078000000D02*

G01*
X0181399999Y0077000000D02*

G01*
X0181999999Y0077000000D02*

G01*
X0182399999Y0078000000D02*

G01*
X0182399999Y0077000000D02*

G01*
X0182999999Y0077000000D02*

G01*
X0182999999Y0078000000D02*

X0182399999Y0078000000D01*

X0182399999Y0077000000D01*

X0182999999Y0077000000D01*

X0182999999Y0078000000D01*

G01*
X0183399999Y0078000000D02*

G01*
X0183399999Y0077000000D02*

G01*
X0183999999Y0078000000D02*

G01*
X0183999999Y0077000000D02*

G01*
X0184999999Y0078000000D02*

G01*
X0184399999Y0078000000D02*

G01*
X0184399999Y0077000000D02*

G01*
X0184999999Y0077000000D02*

G01*
X0184399999Y0077500000D02*

G01*
X0184549999Y0077500000D02*

%ADD10C,0.1000*%
G01*
X0165480000Y0074800000D02*

G01*
X0165000000Y0074800000D02*

G01*
X0165000000Y0074000000D02*

G01*
X0165480000Y0074000000D02*

G01*
X0165000000Y0074400000D02*

G01*
X0165120000Y0074400000D02*

G01*
X0166480000Y0074720000D02*

G01*
X0166120000Y0074800000D02*

G01*
X0165760000Y0074800000D02*

G01*
X0165760000Y0074400000D02*

G01*
X0166000000Y0074400000D02*

X0166120000Y0074400000D01*

X0166480000Y0074400000D01*

G01*
X0166480000Y0074080000D02*

G01*
X0166120000Y0074000000D02*

G01*
X0165760000Y0074000000D02*

X0165760000Y0074000000D01*

X0166120000Y0074000000D01*

X0166480000Y0074080000D01*

G01*
X0167000000Y0074800000D02*

G01*
X0167000000Y0074000000D02*

G01*
X0167480000Y0074000000D02*

G01*
X0167480000Y0074400000D02*

G01*
X0167000000Y0074400000D02*

G01*
X0168000000Y0074720000D02*

G01*
X0168120000Y0074800000D02*

G01*
X0168480000Y0074600000D02*

G01*
X0168120000Y0074400000D02*

G01*
X0168480000Y0074400000D02*

G01*
X0168120000Y0074000000D02*

G01*
X0168000000Y0074000000D02*

G01*
X0169000000Y0074720000D02*

G01*
X0169120000Y0074800000D02*

G01*
X0169480000Y0074600000D02*

G01*
X0169480000Y0074000000D02*

G01*
X0169000000Y0074000000D02*

G01*
X0169000000Y0074400000D02*

X0169120000Y0074400000D01*

X0169480000Y0074400000D01*

G01*
X0171200000Y0074800000D02*

G01*
X0171200000Y0074000000D02*

G01*
X0171440000Y0074400000D02*

G01*
X0171679999Y0074000000D02*

G01*
X0171679999Y0074800000D02*

G01*
X0172399999Y0074800000D02*

G01*
X0172399999Y0074000000D02*

G01*
X0172879999Y0074000000D02*

G01*
X0172879999Y0074800000D02*

X0172399999Y0074800000D01*

X0172399999Y0074000000D01*

X0172879999Y0074000000D01*

X0172879999Y0074800000D01*

G01*
X0173399999Y0074800000D02*

G01*
X0173399999Y0074000000D02*

G01*
X0173519999Y0074000000D02*

G01*
X0173879999Y0074600000D02*

G01*
X0173879999Y0074400000D02*

X0173879999Y0074600000D01*

X0173519999Y0074800000D01*

X0173399999Y0074800000D01*

G01*
X0174399999Y0074800000D02*

G01*
X0174399999Y0074120000D02*

G01*
X0174519999Y0074000000D02*

G01*
X0174760000Y0074000000D02*

G01*
X0174879999Y0074800000D02*

G01*
X0175399999Y0074800000D02*

G01*
X0175399999Y0074000000D02*

G01*
X0175879999Y0074000000D02*

G01*
X0176679999Y0074800000D02*

G01*
X0176200000Y0074800000D02*

G01*
X0176200000Y0074000000D02*

G01*
X0176679999Y0074000000D02*

G01*
X0176200000Y0074400000D02*

G01*
X0176320000Y0074400000D02*

%ADD10C,0.1200*%
G01*
X0050000000Y0013000000D02*

G01*
X0050000000Y0012000000D02*

G01*
X0050600000Y0012000000D02*

G01*
X0050600000Y0012500000D02*

G01*
X0050000000Y0012500000D02*

G01*
X0051000000Y0013000000D02*

G01*
X0051000000Y0012000000D02*

G01*
X0051600000Y0012000000D02*

G01*
X0051600000Y0013000000D02*

X0051000000Y0013000000D01*

X0051000000Y0012000000D01*

X0051600000Y0012000000D01*

X0051600000Y0013000000D01*

G01*
X0052000000Y0013000000D02*

G01*
X0052150000Y0012000000D02*

G01*
X0052300000Y0012500000D02*

G01*
X0052450000Y0012000000D02*

G01*
X0052600000Y0013000000D02*

G01*
X0054000000Y0013000000D02*

G01*
X0053400000Y0013000000D02*

G01*
X0053400000Y0012000000D02*

G01*
X0054000000Y0012000000D02*

G01*
X0053400000Y0012500000D02*

G01*
X0053550000Y0012500000D02*

G01*
X0054400000Y0013000000D02*

G01*
X0054400000Y0012000000D02*

G01*
X0055000000Y0012000000D02*

G01*
X0055000000Y0012500000D02*

G01*
X0054400000Y0012500000D02*

G01*
X0054550000Y0012500000D02*

G01*
X0055000000Y0013000000D02*

G01*
X0057200000Y0012900000D02*

G01*
X0056750000Y0013000000D02*

G01*
X0056300000Y0013000000D02*

G01*
X0056300000Y0012500000D02*

G01*
X0056600000Y0012500000D02*

X0056750000Y0012500000D01*

X0057200000Y0012500000D01*

G01*
X0057200000Y0012100000D02*

G01*
X0056750000Y0012000000D02*

G01*
X0056300000Y0012000000D02*

X0056300000Y0012000000D01*

X0056750000Y0012000000D01*

X0057200000Y0012100000D01*

G01*
X0058200000Y0013000000D02*

G01*
X0057600000Y0013000000D02*

G01*
X0057600000Y0012000000D02*

G01*
X0058200000Y0012000000D02*

G01*
X0057600000Y0012500000D02*

G01*
X0057750000Y0012500000D02*

G01*
X0059200000Y0012900000D02*

G01*
X0058750000Y0013000000D02*

G01*
X0058300000Y0013000000D02*

G01*
X0058300000Y0012000000D02*

G01*
X0058750000Y0012000000D02*

G01*
X0059200000Y0012100000D02*

G01*
X0059600000Y0013000000D02*

G01*
X0060200000Y0013000000D02*

G01*
X0059900000Y0013000000D02*

G01*
X0059900000Y0012000000D02*

G01*
X0060750000Y0013000000D02*

G01*
X0060750000Y0012000000D02*

X0060600000Y0013000000D01*

X0061200000Y0013000000D01*

X0060600000Y0012000000D01*

X0061200000Y0012000000D01*

G01*
X0061200000Y0013000000D02*

G01*
X0061200000Y0012000000D02*

G01*
X0061800000Y0012000000D02*

G01*
X0061800000Y0013000000D02*

X0061200000Y0013000000D01*

X0061200000Y0012000000D01*

X0061800000Y0012000000D01*

X0061800000Y0013000000D01*

G01*
X0062200000Y0013000000D02*

G01*
X0062200000Y0012000000D02*

G01*
X0062800000Y0013000000D02*

G01*
X0062800000Y0012000000D02*

%ADD10C,0.1200*%
G01*
X0100000000Y0136000000D02*

G01*
X0100000000Y0135000000D02*

G01*
X0100600000Y0135000000D02*

G01*
X0100600000Y0135500000D02*

G01*
X0100000000Y0135500000D02*

G01*
X0100150000Y0135500000D02*

G01*
X0100600000Y0136000000D02*

G01*
X0101600000Y0136000000D02*

G01*
X0101000000Y0136000000D02*

G01*
X0101000000Y0135000000D02*

G01*
X0101600000Y0135000000D02*

G01*
X0101000000Y0135500000D02*

G01*
X0101150000Y0135500000D02*

G01*
X0102000000Y0136000000D02*

G01*
X0102000000Y0135000000D02*

G01*
X0102600000Y0135000000D02*

G01*
X0102800000Y0136000000D02*

G01*
X0102500000Y0136000000D02*

G01*
X0102800000Y0135000000D02*

G01*
X0103100000Y0136000000D02*

G01*
X0102649999Y0135750000D02*

G01*
X0102950000Y0135750000D02*

G01*
X0103800000Y0136000000D02*

G01*
X0104100000Y0135500000D02*

G01*
X0104399999Y0136000000D02*

X0104100000Y0135500000D01*

X0104100000Y0135000000D01*

G01*
X0106000000Y0136000000D02*

G01*
X0106600000Y0136000000D02*

G01*
X0106000000Y0135000000D02*

G01*
X0106600000Y0135000000D02*

G01*
X0107000000Y0136000000D02*

G01*
X0107000000Y0135000000D02*

G01*
X0107600000Y0135000000D02*

G01*
X0107600000Y0136000000D02*

X0107000000Y0136000000D01*

X0107000000Y0135000000D01*

X0107600000Y0135000000D01*

X0107600000Y0136000000D01*

G01*
X0108000000Y0136000000D02*

G01*
X0108000000Y0135000000D02*

G01*
X0108600000Y0136000000D02*

G01*
X0108600000Y0135000000D02*

G01*
X0109600000Y0136000000D02*

G01*
X0109000000Y0136000000D02*

G01*
X0109000000Y0135000000D02*

G01*
X0109600000Y0135000000D02*

G01*
X0109000000Y0135500000D02*

G01*
X0109150000Y0135500000D02*

%ADD10C,0.1500*%
G01*
X0100900000Y0096350000D02*

G01*
X0100225000Y0096500000D02*

G01*
X0099550000Y0096500000D02*

G01*
X0099550000Y0095000000D02*

G01*
X0100225000Y0095000000D02*

G01*
X0100900000Y0095150000D02*

G01*
X0101000000Y0096500000D02*

G01*
X0100550000Y0096500000D02*

G01*
X0101000000Y0095000000D02*

G01*
X0101450000Y0096500000D02*

G01*
X0100775000Y0096125000D02*

G01*
X0101225000Y0096125000D02*

G01*
X0102000000Y0096500000D02*

G01*
X0102000000Y0095225000D02*

G01*
X0102225000Y0095000000D02*

G01*
X0102675000Y0095000000D02*

G01*
X0102900000Y0096500000D02*

G01*
X0103000000Y0096500000D02*

G01*
X0103900000Y0096500000D02*

G01*
X0103450000Y0096500000D02*

G01*
X0103450000Y0095000000D02*

G01*
X0104225000Y0096500000D02*

G01*
X0104225000Y0095000000D02*

X0104000000Y0096500000D01*

X0104900000Y0096500000D01*

X0104000000Y0095000000D01*

X0104900000Y0095000000D01*

G01*
X0104600000Y0096500000D02*

G01*
X0104600000Y0095000000D02*

G01*
X0105500000Y0095000000D02*

G01*
X0105500000Y0096500000D02*

X0104600000Y0096500000D01*

X0104600000Y0095000000D01*

X0105500000Y0095000000D01*

X0105500000Y0096500000D01*

G01*
X0105600000Y0096500000D02*

G01*
X0105600000Y0095000000D02*

G01*
X0106500000Y0096500000D02*

G01*
X0106500000Y0095000000D02*

G01*
X0107800000Y0096350000D02*

G01*
X0108024999Y0096500000D02*

G01*
X0108700000Y0096125000D02*

G01*
X0108700000Y0095000000D02*

G01*
X0107800000Y0095000000D02*

G01*
X0107800000Y0095750000D02*

X0108024999Y0095750000D01*

X0108700000Y0095750000D01*

G01*
X0108800000Y0096350000D02*

G01*
X0109024999Y0096500000D02*

G01*
X0109700000Y0096125000D02*

G01*
X0109700000Y0095000000D02*

G01*
X0108800000Y0095000000D02*

G01*
X0108800000Y0095750000D02*

X0109024999Y0095750000D01*

X0109700000Y0095750000D01*

G01*
X0109800000Y0096500000D02*

G01*
X0109800000Y0095000000D02*

G01*
X0110700000Y0095000000D02*

G01*
X0110700000Y0096500000D02*

X0109800000Y0096500000D01*

X0110700000Y0096500000D01*

G01*
X0110800000Y0096500000D02*

G01*
X0111250000Y0095000000D02*

G01*
X0111700000Y0096500000D02*

G01*
X0111800000Y0096500000D02*

G01*
X0111350000Y0096500000D02*

G01*
X0111800000Y0095000000D02*

G01*
X0112250000Y0096500000D02*

G01*
X0111575000Y0096125000D02*

G01*
X0112024999Y0096125000D02*

G01*
X0113700000Y0096350000D02*

G01*
X0113024999Y0096500000D02*

G01*
X0112350000Y0096500000D02*

G01*
X0112350000Y0095000000D02*

G01*
X0113024999Y0095000000D02*

G01*
X0113700000Y0095150000D02*

%ADD10C,0.1200*%
G01*
X0100000000Y0100200000D02*

G01*
X0100000000Y0099000000D02*

G01*
X0100180000Y0099000000D02*

G01*
X0100720000Y0099900000D02*

G01*
X0100720000Y0099600000D02*

X0100720000Y0099900000D01*

X0100180000Y0100200000D01*

X0100000000Y0100200000D01*

G01*
X0101000000Y0100200000D02*

G01*
X0101000000Y0099000000D02*

G01*
X0101720000Y0099000000D02*

G01*
X0101720000Y0100200000D02*

X0101000000Y0100200000D01*

X0101000000Y0099000000D01*

X0101720000Y0099000000D01*

X0101720000Y0100200000D01*

G01*
X0103200000Y0100200000D02*

G01*
X0103200000Y0099000000D02*

G01*
X0103920000Y0100200000D02*

G01*
X0103920000Y0099000000D02*

G01*
X0104200000Y0100200000D02*

G01*
X0104200000Y0099000000D02*

G01*
X0104920000Y0099000000D02*

G01*
X0104920000Y0100200000D02*

X0104200000Y0100200000D01*

X0104200000Y0099000000D01*

X0104920000Y0099000000D01*

X0104920000Y0100200000D01*

G01*
X0105200000Y0100200000D02*

G01*
X0105920000Y0100200000D02*

G01*
X0105560000Y0100200000D02*

G01*
X0105560000Y0099000000D02*

G01*
X0107400000Y0100200000D02*

G01*
X0107400000Y0099000000D02*

G01*
X0108120000Y0099000000D02*

G01*
X0108120000Y0099600000D02*

G01*
X0107400000Y0099600000D02*

G01*
X0107580000Y0099600000D02*

G01*
X0108120000Y0100200000D02*

G01*
X0109120000Y0100200000D02*

G01*
X0108400000Y0100200000D02*

G01*
X0108400000Y0099000000D02*

G01*
X0109120000Y0099000000D02*

G01*
X0108400000Y0099600000D02*

G01*
X0108580000Y0099600000D02*

G01*
X0109400000Y0100200000D02*

G01*
X0109400000Y0099000000D02*

G01*
X0109760000Y0099600000D02*

G01*
X0110120000Y0099000000D02*

G01*
X0110120000Y0100200000D02*

G01*
X0110600000Y0100200000D02*

G01*
X0110600000Y0099000000D02*

G01*
X0111320000Y0099000000D02*

G01*
X0111320000Y0100200000D02*

X0110600000Y0100200000D01*

X0110600000Y0099000000D01*

X0111320000Y0099000000D01*

X0111320000Y0100200000D01*

G01*
X0111600000Y0100200000D02*

G01*
X0111960000Y0099000000D02*

G01*
X0112320000Y0100200000D02*

G01*
X0113320000Y0100200000D02*

G01*
X0112600000Y0100200000D02*

G01*
X0112600000Y0099000000D02*

G01*
X0113320000Y0099000000D02*

G01*
X0112600000Y0099600000D02*

G01*
X0112780000Y0099600000D02*

G01*
X0114872000Y0099600000D02*

G01*
X0115448000Y0099600000D02*

G01*
X0116800000Y0100200000D02*

G01*
X0116440000Y0100200000D02*

G01*
X0116800000Y0099000000D02*

G01*
X0117160000Y0100200000D02*

G01*
X0116620000Y0099900000D02*

G01*
X0116980000Y0099900000D02*

G01*
X0117800000Y0100200000D02*

G01*
X0117800000Y0099000000D02*

G01*
X0118520000Y0099000000D02*

G01*
X0118520000Y0099600000D02*

G01*
X0117800000Y0099600000D02*

G01*
X0117980000Y0099600000D02*

G01*
X0118520000Y0100200000D02*

G01*
X0119520000Y0100080000D02*

G01*
X0118980000Y0100200000D02*

G01*
X0118440000Y0100200000D02*

G01*
X0118440000Y0099000000D02*

G01*
X0118980000Y0099000000D02*

G01*
X0119520000Y0099120000D02*

G01*
X0121000000Y0100200000D02*

G01*
X0121000000Y0099000000D02*

G01*
X0121000000Y0099600000D02*

G01*
X0121720000Y0099600000D02*

G01*
X0121720000Y0100200000D02*

G01*
X0121720000Y0099000000D02*

G01*
X0122000000Y0100200000D02*

G01*
X0121640000Y0100200000D02*

G01*
X0122000000Y0099000000D02*

G01*
X0122360000Y0100200000D02*

G01*
X0121820000Y0099900000D02*

G01*
X0122180000Y0099900000D02*

G01*
X0123000000Y0100200000D02*

G01*
X0123720000Y0100200000D02*

G01*
X0123000000Y0099000000D02*

G01*
X0123720000Y0099000000D02*

G01*
X0124000000Y0100200000D02*

G01*
X0123640000Y0100200000D02*

G01*
X0124000000Y0099000000D02*

G01*
X0124360000Y0100200000D02*

G01*
X0123820000Y0099900000D02*

G01*
X0124180000Y0099900000D02*

G01*
X0125000000Y0100200000D02*

G01*
X0125000000Y0099000000D02*

G01*
X0125720000Y0099000000D02*

G01*
X0125720000Y0099600000D02*

G01*
X0125000000Y0099600000D02*

G01*
X0125180000Y0099600000D02*

G01*
X0125720000Y0100200000D02*

G01*
X0126000000Y0100200000D02*

G01*
X0126000000Y0099000000D02*

G01*
X0126180000Y0099000000D02*

G01*
X0126720000Y0099900000D02*

G01*
X0126720000Y0099600000D02*

X0126720000Y0099900000D01*

X0126180000Y0100200000D01*

X0126000000Y0100200000D01*

%ADD10C,0.1000*%
G01*
X0100000000Y0081500000D02*

G01*
X0100000000Y0080500000D02*

G01*
X0100600000Y0081400000D02*

G01*
X0100600000Y0081250000D02*

G01*
X0100000000Y0081250000D02*

X0100600000Y0081250000D01*

X0100000000Y0081250000D01*

G01*
X0100600000Y0081000000D02*

G01*
X0100000000Y0081000000D02*

G01*
X0100600000Y0080600000D02*

G01*
X0100000000Y0080500000D02*

G01*
X0101000000Y0081500000D02*

G01*
X0101000000Y0080500000D02*

G01*
X0101600000Y0080500000D02*

G01*
X0101600000Y0081500000D02*

X0101000000Y0081500000D01*

X0101000000Y0080500000D01*

X0101600000Y0080500000D01*

X0101600000Y0081500000D01*

G01*
X0102000000Y0081500000D02*

G01*
X0102600000Y0081500000D02*

G01*
X0102300000Y0081500000D02*

G01*
X0102300000Y0080500000D02*

G01*
X0103000000Y0081500000D02*

G01*
X0103600000Y0081500000D02*

G01*
X0103300000Y0081500000D02*

G01*
X0103300000Y0080500000D02*

G01*
X0104000000Y0081500000D02*

G01*
X0104000000Y0080500000D02*

G01*
X0104600000Y0080500000D02*

G01*
X0104600000Y0081500000D02*

X0104000000Y0081500000D01*

X0104000000Y0080500000D01*

X0104600000Y0080500000D01*

X0104600000Y0081500000D01*

G01*
X0105000000Y0081500000D02*

G01*
X0105000000Y0080500000D02*

G01*
X0105300000Y0081000000D02*

G01*
X0105600000Y0080500000D02*

G01*
X0105600000Y0081500000D02*

G01*
X0107400000Y0081500000D02*

G01*
X0107400000Y0080500000D02*

G01*
X0108000000Y0080500000D02*

G01*
X0108200000Y0081500000D02*

G01*
X0107900000Y0081500000D02*

G01*
X0108200000Y0080500000D02*

G01*
X0108500000Y0081500000D02*

G01*
X0108050000Y0081250000D02*

G01*
X0108350000Y0081250000D02*

G01*
X0109200000Y0081500000D02*

G01*
X0109500000Y0081000000D02*

G01*
X0109800000Y0081500000D02*

X0109500000Y0081000000D01*

X0109500000Y0080500000D01*

G01*
X0110800000Y0081500000D02*

G01*
X0110200000Y0081500000D02*

G01*
X0110200000Y0080500000D02*

G01*
X0110800000Y0080500000D02*

G01*
X0110200000Y0081000000D02*

G01*
X0110350000Y0081000000D02*

G01*
X0111200000Y0081500000D02*

G01*
X0111200000Y0080500000D02*

G01*
X0111800000Y0080500000D02*

G01*
X0111800000Y0081000000D02*

G01*
X0111200000Y0081000000D02*

G01*
X0111350000Y0081000000D02*

G01*
X0111800000Y0081500000D02*

G01*
X0113400000Y0081400000D02*

G01*
X0113550000Y0081500000D02*

G01*
X0114000000Y0081250000D02*

G01*
X0114000000Y0080500000D02*

G01*
X0113400000Y0080500000D02*

G01*
X0113400000Y0081000000D02*

X0113550000Y0081000000D01*

X0114000000Y0081000000D01*

G01*
X0114400000Y0081500000D02*

G01*
X0114400000Y0080500000D02*

G01*
X0115000000Y0080500000D02*

G01*
X0115000000Y0081500000D02*

X0114400000Y0081500000D01*

X0114400000Y0080500000D01*

X0115000000Y0080500000D01*

X0115000000Y0081500000D01*

G01*
X0115400000Y0081500000D02*

G01*
X0116000000Y0081500000D02*

G01*
X0115400000Y0080500000D02*

G01*
X0116000000Y0080500000D02*

G01*
X0118200000Y0081400000D02*

G01*
X0117750000Y0081500000D02*

G01*
X0117300000Y0081500000D02*

G01*
X0117300000Y0080500000D02*

G01*
X0117750000Y0080500000D02*

G01*
X0118200000Y0080600000D02*

G01*
X0118600000Y0081500000D02*

G01*
X0118600000Y0080500000D02*

G01*
X0119200000Y0080500000D02*

G01*
X0119200000Y0081500000D02*

X0118600000Y0081500000D01*

X0118600000Y0080500000D01*

X0119200000Y0080500000D01*

X0119200000Y0081500000D01*

G01*
X0119600000Y0081500000D02*

G01*
X0119600000Y0080500000D02*

G01*
X0120200000Y0080500000D02*

G01*
X0120200000Y0081000000D02*

G01*
X0119600000Y0081000000D02*

G01*
X0120600000Y0081500000D02*

G01*
X0120600000Y0080500000D02*

G01*
X0121200000Y0080500000D02*

G01*
X0121200000Y0081000000D02*

G01*
X0120600000Y0081000000D02*

G01*
X0122200000Y0081500000D02*

G01*
X0121600000Y0081500000D02*

G01*
X0121600000Y0080500000D02*

G01*
X0122200000Y0080500000D02*

G01*
X0121600000Y0081000000D02*

G01*
X0121750000Y0081000000D02*

G01*
X0122600000Y0081500000D02*

G01*
X0122600000Y0080500000D02*

G01*
X0123200000Y0080500000D02*

G01*
X0123200000Y0081000000D02*

G01*
X0122600000Y0081000000D02*

G01*
X0122750000Y0081000000D02*

G01*
X0123200000Y0081500000D02*

%ADD10C,0.1200*%
G01*
X0010000000Y0013200000D02*

G01*
X0010720000Y0013200000D02*

G01*
X0010360000Y0013200000D02*

G01*
X0010360000Y0012000000D02*

G01*
X0011000000Y0013200000D02*

G01*
X0011000000Y0012000000D02*

G01*
X0011000000Y0012600000D02*

G01*
X0011720000Y0012600000D02*

G01*
X0011720000Y0013200000D02*

G01*
X0011720000Y0012000000D02*

G01*
X0012000000Y0013200000D02*

G01*
X0011640000Y0013200000D02*

G01*
X0012000000Y0012000000D02*

G01*
X0012360000Y0013200000D02*

G01*
X0011820000Y0012900000D02*

G01*
X0012180000Y0012900000D02*

G01*
X0013000000Y0013200000D02*

G01*
X0013360000Y0012600000D02*

G01*
X0013720000Y0013200000D02*

X0013360000Y0012600000D01*

X0013360000Y0012000000D01*

G01*
X0015200000Y0013200000D02*

G01*
X0015200000Y0012000000D02*

G01*
X0015379999Y0012000000D02*

G01*
X0015920000Y0012900000D02*

G01*
X0015920000Y0012600000D02*

X0015920000Y0012900000D01*

X0015379999Y0013200000D01*

X0015200000Y0013200000D01*

G01*
X0016200000Y0013200000D02*

G01*
X0016200000Y0012180000D02*

G01*
X0016379999Y0012000000D02*

G01*
X0016739999Y0012000000D02*

G01*
X0016920000Y0013200000D02*

G01*
X0017200000Y0013200000D02*

G01*
X0017200000Y0012000000D02*

G01*
X0017920000Y0013200000D02*

G01*
X0017920000Y0012000000D02*

G01*
X0018920000Y0013080000D02*

G01*
X0018380000Y0013200000D02*

G01*
X0017840000Y0013200000D02*

G01*
X0017840000Y0012000000D02*

G01*
X0018380000Y0012000000D02*

G01*
X0018920000Y0012120000D02*

G01*
X0018920000Y0012600000D02*

G01*
X0018380000Y0012600000D02*

G01*
X0021119999Y0013080000D02*

G01*
X0020580000Y0013200000D02*

G01*
X0020040000Y0013200000D02*

G01*
X0020040000Y0012000000D02*

G01*
X0020580000Y0012000000D02*

G01*
X0021119999Y0012120000D02*

G01*
X0021119999Y0012600000D02*

G01*
X0020580000Y0012600000D02*

G01*
X0021580000Y0013200000D02*

G01*
X0021580000Y0012000000D02*

X0021400000Y0013200000D01*

X0022119999Y0013200000D01*

X0021400000Y0012000000D01*

X0022119999Y0012000000D01*

G01*
X0022000000Y0013200000D02*

G01*
X0021640000Y0013200000D02*

G01*
X0022000000Y0012000000D02*

G01*
X0022360000Y0013200000D02*

G01*
X0021820000Y0012900000D02*

G01*
X0022180000Y0012900000D02*

G01*
X0024200000Y0013200000D02*

G01*
X0024920000Y0013200000D02*

G01*
X0024560000Y0013200000D02*

G01*
X0024560000Y0012000000D02*

G01*
X0025200000Y0013200000D02*

G01*
X0025200000Y0012000000D02*

G01*
X0025920000Y0012000000D02*

G01*
X0025920000Y0012600000D02*

G01*
X0025200000Y0012600000D02*

G01*
X0025380000Y0012600000D02*

G01*
X0025920000Y0013200000D02*

G01*
X0026380000Y0013200000D02*

G01*
X0026380000Y0012000000D02*

X0026200000Y0013200000D01*

X0026920000Y0013200000D01*

X0026200000Y0012000000D01*

X0026920000Y0012000000D01*

G01*
X0028720000Y0013080000D02*

G01*
X0028180000Y0013200000D02*

G01*
X0027640000Y0013200000D02*

G01*
X0027640000Y0012000000D02*

G01*
X0028180000Y0012000000D02*

G01*
X0028720000Y0012120000D02*

G01*
X0029000000Y0013200000D02*

G01*
X0028640000Y0013200000D02*

G01*
X0029000000Y0012000000D02*

G01*
X0029360000Y0013200000D02*

G01*
X0028820000Y0012900000D02*

G01*
X0029180000Y0012900000D02*

G01*
X0030000000Y0013200000D02*

G01*
X0030000000Y0012180000D02*

G01*
X0030180000Y0012000000D02*

G01*
X0030540000Y0012000000D02*

G01*
X0030720000Y0013200000D02*

G01*
X0032920000Y0013080000D02*

G01*
X0032380000Y0013200000D02*

G01*
X0031840000Y0013200000D02*

G01*
X0031840000Y0012000000D02*

G01*
X0032380000Y0012000000D02*

G01*
X0032920000Y0012120000D02*

G01*
X0033200000Y0013200000D02*

G01*
X0033200000Y0012000000D02*

G01*
X0033200000Y0012600000D02*

G01*
X0033920000Y0012600000D02*

G01*
X0033920000Y0013200000D02*

G01*
X0033920000Y0012000000D02*

G01*
X0034380000Y0013200000D02*

G01*
X0034380000Y0012000000D02*

X0034200000Y0013200000D01*

X0034920000Y0013200000D01*

X0034200000Y0012000000D01*

X0034920000Y0012000000D01*

G01*
X0036072000Y0012600000D02*

G01*
X0036648000Y0012600000D02*

G01*
X0038720000Y0013200000D02*

G01*
X0038000000Y0013200000D02*

G01*
X0038000000Y0012000000D02*

G01*
X0038000000Y0012600000D02*

G01*
X0038180000Y0012600000D02*

G01*
X0039072000Y0013080000D02*

G01*
X0039180000Y0013200000D02*

G01*
X0039180000Y0012000000D02*

X0039000000Y0012180000D01*

X0039720000Y0012180000D01*

%ADD10C,0.1000*%
G01*
X0035000000Y0013000000D02*

G01*
X0035000000Y0012000000D02*

G01*
X0035600000Y0012000000D02*

G01*
X0035000000Y0012500000D02*

G01*
X0035600000Y0013000000D02*

G01*
X0036150000Y0013000000D02*

G01*
X0036150000Y0012000000D02*

X0036000000Y0013000000D01*

X0036600000Y0013000000D01*

X0036000000Y0012000000D01*

X0036600000Y0012000000D01*

G01*
X0037200000Y0013000000D02*

G01*
X0036600000Y0013000000D02*

G01*
X0036600000Y0012000000D02*

G01*
X0037200000Y0012000000D02*

G01*
X0036600000Y0012500000D02*

G01*
X0036750000Y0012500000D02*

G01*
X0037600000Y0013000000D02*

G01*
X0037600000Y0012000000D02*

G01*
X0037900000Y0012500000D02*

G01*
X0038200000Y0012000000D02*

G01*
X0038200000Y0013000000D02*

G01*
X0040000000Y0013000000D02*

G01*
X0040600000Y0013000000D02*

G01*
X0040300000Y0013000000D02*

G01*
X0040300000Y0012000000D02*

G01*
X0041000000Y0013000000D02*

G01*
X0041000000Y0012000000D02*

G01*
X0041600000Y0012000000D02*

G01*
X0041600000Y0012500000D02*

G01*
X0041000000Y0012500000D02*

G01*
X0041150000Y0012500000D02*

G01*
X0041600000Y0013000000D02*

G01*
X0042000000Y0013000000D02*

G01*
X0041700000Y0013000000D02*

G01*
X0042000000Y0012000000D02*

G01*
X0042300000Y0013000000D02*

G01*
X0041850000Y0012750000D02*

G01*
X0042150000Y0012750000D02*

G01*
X0044800000Y0012900000D02*

G01*
X0044350000Y0013000000D02*

G01*
X0043900000Y0013000000D02*

G01*
X0043900000Y0012000000D02*

G01*
X0044350000Y0012000000D02*

G01*
X0044800000Y0012100000D02*

G01*
X0045200000Y0013000000D02*

G01*
X0045200000Y0012150000D02*

G01*
X0045350000Y0012000000D02*

G01*
X0045650000Y0012000000D02*

G01*
X0045800000Y0013000000D02*

G01*
X0046200000Y0013000000D02*

G01*
X0046200000Y0012000000D02*

G01*
X0046800000Y0012000000D02*

G01*
X0046800000Y0013000000D02*

X0046200000Y0013000000D01*

X0046200000Y0012000000D01*

X0046800000Y0012000000D01*

X0046800000Y0013000000D01*

G01*
X0047800000Y0012900000D02*

G01*
X0047350000Y0013000000D02*

G01*
X0046900000Y0013000000D02*

G01*
X0046900000Y0012000000D02*

G01*
X0047350000Y0012000000D02*

G01*
X0047800000Y0012100000D02*

G01*
X0049400000Y0013000000D02*

G01*
X0050000000Y0013000000D02*

G01*
X0049700000Y0013000000D02*

G01*
X0049700000Y0012000000D02*

G01*
X0050550000Y0013000000D02*

G01*
X0050550000Y0012000000D02*

X0050400000Y0013000000D01*

X0051000000Y0013000000D01*

X0050400000Y0012000000D01*

X0051000000Y0012000000D01*

G01*
X0051000000Y0013000000D02*

G01*
X0051000000Y0012000000D02*

G01*
X0051600000Y0013000000D02*

G01*
X0051600000Y0012000000D02*

G01*
X0052000000Y0013000000D02*

G01*
X0052000000Y0012000000D02*

G01*
X0052000000Y0012500000D02*

G01*
X0052600000Y0012500000D02*

G01*
X0052600000Y0013000000D02*

G01*
X0052600000Y0012000000D02*

G01*
X0054200000Y0013000000D02*

G01*
X0054800000Y0013000000D02*

G01*
X0054500000Y0013000000D02*

G01*
X0054500000Y0012000000D02*

G01*
X0055200000Y0013000000D02*

G01*
X0055200000Y0012000000D02*

G01*
X0055800000Y0012000000D02*

G01*
X0055800000Y0012500000D02*

G01*
X0055200000Y0012500000D02*

G01*
X0055350000Y0012500000D02*

G01*
X0055800000Y0013000000D02*

G01*
X0056200000Y0013000000D02*

G01*
X0056200000Y0012150000D02*

G01*
X0056350000Y0012000000D02*

G01*
X0056650000Y0012000000D02*

G01*
X0056800000Y0013000000D02*

G01*
X0057200000Y0013000000D02*

G01*
X0057200000Y0012000000D02*

G01*
X0057800000Y0012000000D02*

G01*
X0057800000Y0013000000D02*

X0057200000Y0013000000D01*

X0057200000Y0012000000D01*

X0057800000Y0012000000D01*

X0057800000Y0013000000D01*

G01*
X0058800000Y0012900000D02*

G01*
X0058350000Y0013000000D02*

G01*
X0057900000Y0013000000D02*

G01*
X0057900000Y0012000000D02*

G01*
X0058350000Y0012000000D02*

G01*
X0058800000Y0012100000D02*

G01*
X0060400000Y0013000000D02*

G01*
X0060400000Y0012000000D02*

G01*
X0061000000Y0012000000D02*

G01*
X0060400000Y0012500000D02*

G01*
X0061000000Y0013000000D02*

G01*
X0061400000Y0013000000D02*

G01*
X0061400000Y0012000000D02*

G01*
X0061400000Y0012500000D02*

G01*
X0062000000Y0012500000D02*

G01*
X0062000000Y0013000000D02*

G01*
X0062000000Y0012000000D02*

G01*
X0062550000Y0013000000D02*

G01*
X0062550000Y0012000000D02*

X0062400000Y0013000000D01*

X0063000000Y0013000000D01*

X0062400000Y0012000000D01*

X0063000000Y0012000000D01*

G01*
X0064800000Y0012900000D02*

G01*
X0064350000Y0013000000D02*

G01*
X0063900000Y0013000000D02*

G01*
X0063900000Y0012000000D02*

G01*
X0064350000Y0012000000D02*

G01*
X0064800000Y0012100000D02*

G01*
X0065200000Y0013000000D02*

G01*
X0064900000Y0013000000D02*

G01*
X0065200000Y0012000000D02*

G01*
X0065500000Y0013000000D02*

G01*
X0065050000Y0012750000D02*

G01*
X0065350000Y0012750000D02*

G01*
X0066200000Y0013000000D02*

G01*
X0066200000Y0012000000D02*

G01*
X0066800000Y0012000000D02*

G01*
X0066800000Y0012500000D02*

G01*
X0066200000Y0012500000D02*

G01*
X0068400000Y0013000000D02*

G01*
X0068400000Y0012000000D02*

G01*
X0069000000Y0013000000D02*

G01*
X0069000000Y0012000000D02*

G01*
X0070000000Y0012900000D02*

G01*
X0069550000Y0013000000D02*

G01*
X0069100000Y0013000000D02*

G01*
X0069100000Y0012000000D02*

G01*
X0069550000Y0012000000D02*

G01*
X0070000000Y0012100000D02*

G01*
X0070000000Y0012500000D02*

G01*
X0069550000Y0012500000D02*

G01*
X0070400000Y0013000000D02*

G01*
X0070400000Y0012150000D02*

G01*
X0070550000Y0012000000D02*

G01*
X0070850000Y0012000000D02*

G01*
X0071000000Y0013000000D02*

G01*
X0071400000Y0013000000D02*

G01*
X0071400000Y0012000000D02*

G01*
X0072000000Y0012000000D02*

G01*
X0072000000Y0013000000D02*

X0071400000Y0013000000D01*

X0071400000Y0012000000D01*

X0072000000Y0012000000D01*

X0072000000Y0013000000D01*

G01*
X0072400000Y0013000000D02*

G01*
X0072400000Y0012000000D02*

G01*
X0073000000Y0013000000D02*

G01*
X0073000000Y0012000000D02*

%ADD10C,0.1000*%
G01*
X0050120000Y0057800000D02*

G01*
X0050120000Y0057000000D02*

X0050000000Y0057800000D01*

X0050480000Y0057800000D01*

X0050000000Y0057000000D01*

X0050480000Y0057000000D01*

G01*
X0050600000Y0057720000D02*

G01*
X0050720000Y0057800000D02*

G01*
X0051080000Y0057600000D02*

G01*
X0051080000Y0057000000D02*

G01*
X0050600000Y0057000000D02*

G01*
X0050600000Y0057400000D02*

X0050720000Y0057400000D01*

X0051080000Y0057400000D01*

G01*
X0052080000Y0057720000D02*

G01*
X0051720000Y0057800000D02*

G01*
X0051360000Y0057800000D02*

G01*
X0051360000Y0057000000D02*

G01*
X0051720000Y0057000000D02*

G01*
X0052080000Y0057080000D02*

G01*
X0053800000Y0057800000D02*

G01*
X0053800000Y0057000000D02*

G01*
X0054280000Y0057720000D02*

G01*
X0054280000Y0057600000D02*

G01*
X0053800000Y0057600000D02*

X0054280000Y0057600000D01*

X0053800000Y0057600000D01*

G01*
X0054280000Y0057400000D02*

G01*
X0053800000Y0057400000D02*

G01*
X0054280000Y0057080000D02*

G01*
X0053800000Y0057000000D02*

G01*
X0054800000Y0057800000D02*

G01*
X0054800000Y0057120000D02*

G01*
X0054920000Y0057000000D02*

G01*
X0055160000Y0057000000D02*

G01*
X0055280000Y0057800000D02*

G01*
X0056280000Y0057720000D02*

G01*
X0055920000Y0057800000D02*

G01*
X0055560000Y0057800000D02*

G01*
X0055560000Y0057400000D02*

G01*
X0055800000Y0057400000D02*

X0055920000Y0057400000D01*

X0056280000Y0057400000D01*

G01*
X0056280000Y0057080000D02*

G01*
X0055920000Y0057000000D02*

G01*
X0055560000Y0057000000D02*

X0055560000Y0057000000D01*

X0055920000Y0057000000D01*

X0056280000Y0057080000D01*

%ADD10C,0.1000*%
G01*
X0090000000Y0059800000D02*

G01*
X0089760000Y0059800000D02*

G01*
X0090000000Y0059000000D02*

G01*
X0090240000Y0059800000D02*

G01*
X0089880000Y0059600000D02*

G01*
X0090120000Y0059600000D02*

G01*
X0091000000Y0059800000D02*

G01*
X0091000000Y0059000000D02*

G01*
X0091480000Y0059800000D02*

G01*
X0091480000Y0059000000D02*

G01*
X0092000000Y0059800000D02*

G01*
X0091760000Y0059800000D02*

G01*
X0092000000Y0059000000D02*

G01*
X0092240000Y0059800000D02*

G01*
X0091880000Y0059600000D02*

G01*
X0092120000Y0059600000D02*

G01*
X0093000000Y0059800000D02*

G01*
X0093000000Y0059000000D02*

G01*
X0093480000Y0059000000D02*

G01*
X0093800000Y0059800000D02*

G01*
X0093800000Y0059000000D02*

G01*
X0094280000Y0059000000D02*

G01*
X0094280000Y0059800000D02*

X0093800000Y0059800000D01*

X0093800000Y0059000000D01*

X0094280000Y0059000000D01*

X0094280000Y0059800000D01*

G01*
X0095280000Y0059720000D02*

G01*
X0094920000Y0059800000D02*

G01*
X0094560000Y0059800000D02*

G01*
X0094560000Y0059000000D02*

G01*
X0094920000Y0059000000D02*

G01*
X0095280000Y0059080000D02*

G01*
X0095280000Y0059400000D02*

G01*
X0094920000Y0059400000D02*

G01*
X0097480000Y0059720000D02*

G01*
X0097120000Y0059800000D02*

G01*
X0096760000Y0059800000D02*

G01*
X0096760000Y0059400000D02*

G01*
X0097000000Y0059400000D02*

X0097120000Y0059400000D01*

X0097480000Y0059400000D01*

G01*
X0097480000Y0059080000D02*

G01*
X0097120000Y0059000000D02*

G01*
X0096760000Y0059000000D02*

X0096760000Y0059000000D01*

X0097120000Y0059000000D01*

X0097480000Y0059080000D01*

G01*
X0098480000Y0059800000D02*

G01*
X0098000000Y0059800000D02*

G01*
X0098000000Y0059000000D02*

G01*
X0098480000Y0059000000D02*

G01*
X0098000000Y0059400000D02*

G01*
X0098120000Y0059400000D02*

G01*
X0099480000Y0059720000D02*

G01*
X0099120000Y0059800000D02*

G01*
X0098760000Y0059800000D02*

G01*
X0098760000Y0059000000D02*

G01*
X0099120000Y0059000000D02*

G01*
X0099480000Y0059080000D02*

G01*
X0100000000Y0059800000D02*

G01*
X0100480000Y0059800000D02*

G01*
X0100240000Y0059800000D02*

G01*
X0100240000Y0059000000D02*

G01*
X0101120000Y0059800000D02*

G01*
X0101120000Y0059000000D02*

X0101000000Y0059800000D01*

X0101480000Y0059800000D01*

X0101000000Y0059000000D01*

X0101480000Y0059000000D01*

G01*
X0101600000Y0059800000D02*

G01*
X0101600000Y0059000000D02*

G01*
X0102080000Y0059000000D02*

G01*
X0102080000Y0059800000D02*

X0101600000Y0059800000D01*

X0101600000Y0059000000D01*

X0102080000Y0059000000D01*

X0102080000Y0059800000D01*

G01*
X0102600000Y0059800000D02*

G01*
X0102600000Y0059000000D02*

G01*
X0103080000Y0059800000D02*

G01*
X0103080000Y0059000000D02*

M02*