; EcoSynTech PCB v6.3 - Excellon Drill File
; Board: 200mm x 150mm | 2-Layer | ENIG
; Generated: 2026-04-16
M48
; Format: Metric, trailing zeros omitted
METRIC,TZ
;FILE_FORMAT=2:6
;TYPE=PLATED
%
T1F00S00C0.4000
T2F00S00C0.6000
T3F00S00C0.7000
T4F00S00C0.8000
T5F00S00C1.0000
T6F00S00C1.2000
T7F00S00C3.2000
%
;
; T1: 0.4mm
T1
X0005000000Y0005000000Y0005000000Y0005000000
X0005000000Y0015000000Y0005000000Y0015000000
X0005000000Y0025000000Y0005000000Y0025000000
X0005000000Y0035000000Y0005000000Y0035000000
X0005000000Y0045000000Y0005000000Y0045000000
X0005000000Y0055000000Y0005000000Y0055000000
X0005000000Y0065000000Y0005000000Y0065000000
X0005000000Y0075000000Y0005000000Y0075000000
X0005000000Y0085000000Y0005000000Y0085000000
X0005000000Y0095000000Y0005000000Y0095000000
X0005000000Y0105000000Y0005000000Y0105000000
X0005000000Y0115000000Y0005000000Y0115000000
X0005000000Y0125000000Y0005000000Y0125000000
X0005000000Y0135000000Y0005000000Y0135000000
X0005000000Y0145000000Y0005000000Y0145000000
X0015000000Y0005000000Y0015000000Y0005000000
X0015000000Y0015000000Y0015000000Y0015000000
X0015000000Y0025000000Y0015000000Y0025000000
X0015000000Y0035000000Y0015000000Y0035000000
X0015000000Y0045000000Y0015000000Y0045000000
X0015000000Y0055000000Y0015000000Y0055000000
X0015000000Y0065000000Y0015000000Y0065000000
X0015000000Y0075000000Y0015000000Y0075000000
X0015000000Y0085000000Y0015000000Y0085000000
X0015000000Y0095000000Y0015000000Y0095000000
X0015000000Y0105000000Y0015000000Y0105000000
X0015000000Y0115000000Y0015000000Y0115000000
X0015000000Y0125000000Y0015000000Y0125000000
X0015000000Y0135000000Y0015000000Y0135000000
X0015000000Y0145000000Y0015000000Y0145000000
X0025000000Y0005000000Y0025000000Y0005000000
X0025000000Y0015000000Y0025000000Y0015000000
X0025000000Y0025000000Y0025000000Y0025000000
X0025000000Y0035000000Y0025000000Y0035000000
X0025000000Y0045000000Y0025000000Y0045000000
X0025000000Y0055000000Y0025000000Y0055000000
X0025000000Y0065000000Y0025000000Y0065000000
X0025000000Y0075000000Y0025000000Y0075000000
X0025000000Y0085000000Y0025000000Y0085000000
X0025000000Y0095000000Y0025000000Y0095000000
X0025000000Y0105000000Y0025000000Y0105000000
X0025000000Y0115000000Y0025000000Y0115000000
X0025000000Y0125000000Y0025000000Y0125000000
X0025000000Y0135000000Y0025000000Y0135000000
X0025000000Y0145000000Y0025000000Y0145000000
X0035000000Y0005000000Y0035000000Y0005000000
X0035000000Y0015000000Y0035000000Y0015000000
X0035000000Y0025000000Y0035000000Y0025000000
X0035000000Y0035000000Y0035000000Y0035000000
X0035000000Y0045000000Y0035000000Y0045000000
X0035000000Y0055000000Y0035000000Y0055000000
X0035000000Y0065000000Y0035000000Y0065000000
X0035000000Y0075000000Y0035000000Y0075000000
X0035000000Y0085000000Y0035000000Y0085000000
X0035000000Y0095000000Y0035000000Y0095000000
X0035000000Y0105000000Y0035000000Y0105000000
X0035000000Y0115000000Y0035000000Y0115000000
X0035000000Y0125000000Y0035000000Y0125000000
X0035000000Y0135000000Y0035000000Y0135000000
X0035000000Y0145000000Y0035000000Y0145000000
X0045000000Y0005000000Y0045000000Y0005000000
X0045000000Y0015000000Y0045000000Y0015000000
X0045000000Y0025000000Y0045000000Y0025000000
X0045000000Y0035000000Y0045000000Y0035000000
X0045000000Y0045000000Y0045000000Y0045000000
X0045000000Y0055000000Y0045000000Y0055000000
X0045000000Y0065000000Y0045000000Y0065000000
X0045000000Y0075000000Y0045000000Y0075000000
X0045000000Y0085000000Y0045000000Y0085000000
X0045000000Y0095000000Y0045000000Y0095000000
X0045000000Y0105000000Y0045000000Y0105000000
X0045000000Y0115000000Y0045000000Y0115000000
X0045000000Y0125000000Y0045000000Y0125000000
X0045000000Y0135000000Y0045000000Y0135000000
X0045000000Y0145000000Y0045000000Y0145000000
X0055000000Y0005000000Y0055000000Y0005000000
X0055000000Y0015000000Y0055000000Y0015000000
X0055000000Y0025000000Y0055000000Y0025000000
X0055000000Y0035000000Y0055000000Y0035000000
X0055000000Y0045000000Y0055000000Y0045000000
X0055000000Y0055000000Y0055000000Y0055000000
X0055000000Y0065000000Y0055000000Y0065000000
X0055000000Y0075000000Y0055000000Y0075000000
X0055000000Y0085000000Y0055000000Y0085000000
X0055000000Y0095000000Y0055000000Y0095000000
X0055000000Y0105000000Y0055000000Y0105000000
X0055000000Y0115000000Y0055000000Y0115000000
X0055000000Y0125000000Y0055000000Y0125000000
X0055000000Y0135000000Y0055000000Y0135000000
X0055000000Y0145000000Y0055000000Y0145000000
X0065000000Y0005000000Y0065000000Y0005000000
X0065000000Y0015000000Y0065000000Y0015000000
X0065000000Y0025000000Y0065000000Y0025000000
X0065000000Y0035000000Y0065000000Y0035000000
X0065000000Y0045000000Y0065000000Y0045000000
X0065000000Y0055000000Y0065000000Y0055000000
X0065000000Y0065000000Y0065000000Y0065000000
X0065000000Y0075000000Y0065000000Y0075000000
X0065000000Y0085000000Y0065000000Y0085000000
X0065000000Y0095000000Y0065000000Y0095000000
X0065000000Y0105000000Y0065000000Y0105000000
X0065000000Y0115000000Y0065000000Y0115000000
X0065000000Y0125000000Y0065000000Y0125000000
X0065000000Y0135000000Y0065000000Y0135000000
X0065000000Y0145000000Y0065000000Y0145000000
X0068000000Y0032000000Y0068000000Y0032000000
X0068000000Y0035000000Y0068000000Y0035000000
X0068000000Y0038000000Y0068000000Y0038000000
X0075000000Y0005000000Y0075000000Y0005000000
X0075000000Y0015000000Y0075000000Y0015000000
X0075000000Y0025000000Y0075000000Y0025000000
X0075000000Y0035000000Y0075000000Y0035000000
X0075000000Y0045000000Y0075000000Y0045000000
X0075000000Y0055000000Y0075000000Y0055000000
X0075000000Y0065000000Y0075000000Y0065000000
X0075000000Y0075000000Y0075000000Y0075000000
X0075000000Y0085000000Y0075000000Y0085000000
X0075000000Y0095000000Y0075000000Y0095000000
X0075000000Y0105000000Y0075000000Y0105000000
X0075000000Y0115000000Y0075000000Y0115000000
X0075000000Y0125000000Y0075000000Y0125000000
X0075000000Y0135000000Y0075000000Y0135000000
X0075000000Y0145000000Y0075000000Y0145000000
X0076000000Y0032000000Y0076000000Y0032000000
X0076000000Y0035000000Y0076000000Y0035000000
X0076000000Y0038000000Y0076000000Y0038000000
X0085000000Y0005000000Y0085000000Y0005000000
X0085000000Y0015000000Y0085000000Y0015000000
X0085000000Y0025000000Y0085000000Y0025000000
X0085000000Y0035000000Y0085000000Y0035000000
X0085000000Y0045000000Y0085000000Y0045000000
X0085000000Y0055000000Y0085000000Y0055000000
X0085000000Y0065000000Y0085000000Y0065000000
X0085000000Y0075000000Y0085000000Y0075000000
X0085000000Y0085000000Y0085000000Y0085000000
X0085000000Y0095000000Y0085000000Y0095000000
X0085000000Y0105000000Y0085000000Y0105000000
X0085000000Y0115000000Y0085000000Y0115000000
X0085000000Y0125000000Y0085000000Y0125000000
X0085000000Y0135000000Y0085000000Y0135000000
X0085000000Y0145000000Y0085000000Y0145000000
X0095000000Y0005000000Y0095000000Y0005000000
X0095000000Y0015000000Y0095000000Y0015000000
X0095000000Y0025000000Y0095000000Y0025000000
X0095000000Y0035000000Y0095000000Y0035000000
X0095000000Y0045000000Y0095000000Y0045000000
X0095000000Y0055000000Y0095000000Y0055000000
X0095000000Y0065000000Y0095000000Y0065000000
X0095000000Y0075000000Y0095000000Y0075000000
X0095000000Y0085000000Y0095000000Y0085000000
X0095000000Y0095000000Y0095000000Y0095000000
X0095000000Y0105000000Y0095000000Y0105000000
X0095000000Y0115000000Y0095000000Y0115000000
X0095000000Y0125000000Y0095000000Y0125000000
X0095000000Y0135000000Y0095000000Y0135000000
X0095000000Y0145000000Y0095000000Y0145000000
X0105000000Y0005000000Y0105000000Y0005000000
X0105000000Y0015000000Y0105000000Y0015000000
X0105000000Y0025000000Y0105000000Y0025000000
X0105000000Y0035000000Y0105000000Y0035000000
X0105000000Y0045000000Y0105000000Y0045000000
X0105000000Y0055000000Y0105000000Y0055000000
X0105000000Y0065000000Y0105000000Y0065000000
X0105000000Y0075000000Y0105000000Y0075000000
X0105000000Y0085000000Y0105000000Y0085000000
X0105000000Y0095000000Y0105000000Y0095000000
X0105000000Y0105000000Y0105000000Y0105000000
X0105000000Y0115000000Y0105000000Y0115000000
X0105000000Y0125000000Y0105000000Y0125000000
X0105000000Y0135000000Y0105000000Y0135000000
X0105000000Y0145000000Y0105000000Y0145000000
X0108000000Y0032000000Y0108000000Y0032000000
X0108000000Y0035000000Y0108000000Y0035000000
X0108000000Y0038000000Y0108000000Y0038000000
X0115000000Y0005000000Y0115000000Y0005000000
X0115000000Y0015000000Y0115000000Y0015000000
X0115000000Y0025000000Y0115000000Y0025000000
X0115000000Y0035000000Y0115000000Y0035000000
X0115000000Y0045000000Y0115000000Y0045000000
X0115000000Y0055000000Y0115000000Y0055000000
X0115000000Y0065000000Y0115000000Y0065000000
X0115000000Y0075000000Y0115000000Y0075000000
X0115000000Y0085000000Y0115000000Y0085000000
X0115000000Y0095000000Y0115000000Y0095000000
X0115000000Y0105000000Y0115000000Y0105000000
X0115000000Y0115000000Y0115000000Y0115000000
X0115000000Y0125000000Y0115000000Y0125000000
X0115000000Y0135000000Y0115000000Y0135000000
X0115000000Y0145000000Y0115000000Y0145000000
X0116000000Y0032000000Y0116000000Y0032000000
X0116000000Y0035000000Y0116000000Y0035000000
X0116000000Y0038000000Y0116000000Y0038000000
X0125000000Y0005000000Y0125000000Y0005000000
X0125000000Y0015000000Y0125000000Y0015000000
X0125000000Y0025000000Y0125000000Y0025000000
X0125000000Y0035000000Y0125000000Y0035000000
X0125000000Y0045000000Y0125000000Y0045000000
X0125000000Y0055000000Y0125000000Y0055000000
X0125000000Y0065000000Y0125000000Y0065000000
X0125000000Y0075000000Y0125000000Y0075000000
X0125000000Y0085000000Y0125000000Y0085000000
X0125000000Y0095000000Y0125000000Y0095000000
X0125000000Y0105000000Y0125000000Y0105000000
X0125000000Y0115000000Y0125000000Y0115000000
X0125000000Y0125000000Y0125000000Y0125000000
X0125000000Y0135000000Y0125000000Y0135000000
X0125000000Y0145000000Y0125000000Y0145000000
X0135000000Y0005000000Y0135000000Y0005000000
X0135000000Y0015000000Y0135000000Y0015000000
X0135000000Y0025000000Y0135000000Y0025000000
X0135000000Y0035000000Y0135000000Y0035000000
X0135000000Y0045000000Y0135000000Y0045000000
X0135000000Y0055000000Y0135000000Y0055000000
X0135000000Y0065000000Y0135000000Y0065000000
X0135000000Y0075000000Y0135000000Y0075000000
X0135000000Y0085000000Y0135000000Y0085000000
X0135000000Y0095000000Y0135000000Y0095000000
X0135000000Y0105000000Y0135000000Y0105000000
X0135000000Y0115000000Y0135000000Y0115000000
X0135000000Y0125000000Y0135000000Y0125000000
X0135000000Y0135000000Y0135000000Y0135000000
X0135000000Y0145000000Y0135000000Y0145000000
X0145000000Y0005000000Y0145000000Y0005000000
X0145000000Y0015000000Y0145000000Y0015000000
X0145000000Y0025000000Y0145000000Y0025000000
X0145000000Y0035000000Y0145000000Y0035000000
X0145000000Y0045000000Y0145000000Y0045000000
X0145000000Y0055000000Y0145000000Y0055000000
X0145000000Y0065000000Y0145000000Y0065000000
X0145000000Y0075000000Y0145000000Y0075000000
X0145000000Y0085000000Y0145000000Y0085000000
X0145000000Y0095000000Y0145000000Y0095000000
X0145000000Y0105000000Y0145000000Y0105000000
X0145000000Y0115000000Y0145000000Y0115000000
X0145000000Y0125000000Y0145000000Y0125000000
X0145000000Y0135000000Y0145000000Y0135000000
X0145000000Y0145000000Y0145000000Y0145000000
X0155000000Y0005000000Y0155000000Y0005000000
X0155000000Y0015000000Y0155000000Y0015000000
X0155000000Y0025000000Y0155000000Y0025000000
X0155000000Y0035000000Y0155000000Y0035000000
X0155000000Y0045000000Y0155000000Y0045000000
X0155000000Y0055000000Y0155000000Y0055000000
X0155000000Y0065000000Y0155000000Y0065000000
X0155000000Y0075000000Y0155000000Y0075000000
X0155000000Y0085000000Y0155000000Y0085000000
X0155000000Y0095000000Y0155000000Y0095000000
X0155000000Y0105000000Y0155000000Y0105000000
X0155000000Y0115000000Y0155000000Y0115000000
X0155000000Y0125000000Y0155000000Y0125000000
X0155000000Y0135000000Y0155000000Y0135000000
X0155000000Y0145000000Y0155000000Y0145000000
X0165000000Y0005000000Y0165000000Y0005000000
X0165000000Y0015000000Y0165000000Y0015000000
X0165000000Y0025000000Y0165000000Y0025000000
X0165000000Y0035000000Y0165000000Y0035000000
X0165000000Y0045000000Y0165000000Y0045000000
X0165000000Y0055000000Y0165000000Y0055000000
X0165000000Y0065000000Y0165000000Y0065000000
X0165000000Y0075000000Y0165000000Y0075000000
X0165000000Y0085000000Y0165000000Y0085000000
X0165000000Y0095000000Y0165000000Y0095000000
X0165000000Y0105000000Y0165000000Y0105000000
X0165000000Y0115000000Y0165000000Y0115000000
X0165000000Y0125000000Y0165000000Y0125000000
X0165000000Y0135000000Y0165000000Y0135000000
X0165000000Y0145000000Y0165000000Y0145000000
X0175000000Y0005000000Y0175000000Y0005000000
X0175000000Y0015000000Y0175000000Y0015000000
X0175000000Y0025000000Y0175000000Y0025000000
X0175000000Y0035000000Y0175000000Y0035000000
X0175000000Y0045000000Y0175000000Y0045000000
X0175000000Y0055000000Y0175000000Y0055000000
X0175000000Y0065000000Y0175000000Y0065000000
X0175000000Y0075000000Y0175000000Y0075000000
X0175000000Y0085000000Y0175000000Y0085000000
X0175000000Y0095000000Y0175000000Y0095000000
X0175000000Y0105000000Y0175000000Y0105000000
X0175000000Y0115000000Y0175000000Y0115000000
X0175000000Y0125000000Y0175000000Y0125000000
X0175000000Y0135000000Y0175000000Y0135000000
X0175000000Y0145000000Y0175000000Y0145000000
X0185000000Y0005000000Y0185000000Y0005000000
X0185000000Y0015000000Y0185000000Y0015000000
X0185000000Y0025000000Y0185000000Y0025000000
X0185000000Y0035000000Y0185000000Y0035000000
X0185000000Y0045000000Y0185000000Y0045000000
X0185000000Y0055000000Y0185000000Y0055000000
X0185000000Y0065000000Y0185000000Y0065000000
X0185000000Y0075000000Y0185000000Y0075000000
X0185000000Y0085000000Y0185000000Y0085000000
X0185000000Y0095000000Y0185000000Y0095000000
X0185000000Y0105000000Y0185000000Y0105000000
X0185000000Y0115000000Y0185000000Y0115000000
X0185000000Y0125000000Y0185000000Y0125000000
X0185000000Y0135000000Y0185000000Y0135000000
X0185000000Y0145000000Y0185000000Y0145000000
X0195000000Y0005000000Y0195000000Y0005000000
X0195000000Y0015000000Y0195000000Y0015000000
X0195000000Y0025000000Y0195000000Y0025000000
X0195000000Y0035000000Y0195000000Y0035000000
X0195000000Y0045000000Y0195000000Y0045000000
X0195000000Y0055000000Y0195000000Y0055000000
X0195000000Y0065000000Y0195000000Y0065000000
X0195000000Y0075000000Y0195000000Y0075000000
X0195000000Y0085000000Y0195000000Y0085000000
X0195000000Y0095000000Y0195000000Y0095000000
X0195000000Y0105000000Y0195000000Y0105000000
X0195000000Y0115000000Y0195000000Y0115000000
X0195000000Y0125000000Y0195000000Y0125000000
X0195000000Y0135000000Y0195000000Y0135000000
X0195000000Y0145000000Y0195000000Y0145000000
; T2: 0.6mm
T2
X0135000000Y0076500000Y0135000000Y0076500000
X0135000000Y0080000000Y0135000000Y0080000000
X0137500000Y0076500000Y0137500000Y0076500000
X0140000000Y0076500000Y0140000000Y0076500000
X0142500000Y0076500000Y0142500000Y0076500000
X0145000000Y0076500000Y0145000000Y0076500000
X0145000000Y0080000000Y0145000000Y0080000000
; T3: 0.7mm
T3
X0029290000Y0023000000Y0029290000Y0023000000
X0029290000Y0025000000Y0029290000Y0025000000
X0033100000Y0023000000Y0033100000Y0023000000
X0033100000Y0025000000Y0033100000Y0025000000
X0036190000Y0035000000Y0036190000Y0035000000
X0036190000Y0045000000Y0036190000Y0045000000
X0036190000Y0055000000Y0036190000Y0055000000
X0036900000Y0023000000Y0036900000Y0023000000
X0036900000Y0025000000Y0036900000Y0025000000
X0040000000Y0035000000Y0040000000Y0035000000
X0040000000Y0045000000Y0040000000Y0045000000
X0040000000Y0055000000Y0040000000Y0055000000
X0040710000Y0023000000Y0040710000Y0023000000
X0040710000Y0025000000Y0040710000Y0025000000
X0043810000Y0035000000Y0043810000Y0035000000
X0043810000Y0045000000Y0043810000Y0045000000
X0043810000Y0055000000Y0043810000Y0055000000
X0047460000Y0043730000Y0047460000Y0043730000
X0048730000Y0052460000Y0048730000Y0052460000
X0050000000Y0043730000Y0050000000Y0043730000
X0050000000Y0052460000Y0050000000Y0052460000
X0051270000Y0052460000Y0051270000Y0052460000
X0052540000Y0043730000Y0052540000Y0043730000
X0099800000Y0060000000Y0099800000Y0060000000
X0103610000Y0060000000Y0103610000Y0060000000
X0107420000Y0060000000Y0107420000Y0060000000
X0111230000Y0060000000Y0111230000Y0060000000
X0115040000Y0060000000Y0115040000Y0060000000
X0118850000Y0060000000Y0118850000Y0060000000
; T4: 0.8mm
T4
X0021750000Y0088000000Y0021750000Y0088000000
X0025000000Y0027000000Y0025000000Y0027000000
X0025000000Y0029000000Y0025000000Y0029000000
X0025000000Y0031000000Y0025000000Y0031000000
X0025000000Y0033000000Y0025000000Y0033000000
X0030000000Y0030000000Y0030000000Y0030000000
X0034000000Y0030000000Y0034000000Y0030000000
X0034250000Y0088000000Y0034250000Y0088000000
X0087460000Y0037420000Y0087460000Y0037420000
X0087460000Y0039960000Y0087460000Y0039960000
X0087460000Y0042500000Y0087460000Y0042500000
X0087460000Y0045040000Y0087460000Y0045040000
X0087460000Y0047580000Y0087460000Y0047580000
X0090000000Y0037420000Y0090000000Y0037420000
X0090000000Y0039960000Y0090000000Y0039960000
X0090000000Y0042500000Y0090000000Y0042500000
X0090000000Y0045040000Y0090000000Y0045040000
X0090000000Y0047580000Y0090000000Y0047580000
X0092540000Y0037420000Y0092540000Y0037420000
X0092540000Y0039960000Y0092540000Y0039960000
X0092540000Y0042500000Y0092540000Y0042500000
X0092540000Y0045040000Y0092540000Y0045040000
X0092540000Y0047580000Y0092540000Y0047580000
X0114250000Y0018000000Y0114250000Y0018000000
X0125750000Y0018000000Y0125750000Y0018000000
; T5: 1.0mm
T5
X0010000000Y0015460000Y0010000000Y0015460000
X0010000000Y0020540000Y0010000000Y0020540000
X0022000000Y0015460000Y0022000000Y0015460000
X0022000000Y0020540000Y0022000000Y0020540000
X0031250000Y0018000000Y0031250000Y0018000000
X0038750000Y0018000000Y0038750000Y0018000000
X0041000000Y0018000000Y0041000000Y0018000000
X0055000000Y0018000000Y0055000000Y0018000000
X0071000000Y0018000000Y0071000000Y0018000000
X0079000000Y0018000000Y0079000000Y0018000000
X0080000000Y0035000000Y0080000000Y0035000000
X0086000000Y0035000000Y0086000000Y0035000000
X0120000000Y0035000000Y0120000000Y0035000000
X0126000000Y0035000000Y0126000000Y0035000000
X0164190000Y0090460000Y0164190000Y0090460000
X0164190000Y0095540000Y0164190000Y0095540000
X0164190000Y0107460000Y0164190000Y0107460000
X0164190000Y0112540000Y0164190000Y0112540000
X0164190000Y0124460000Y0164190000Y0124460000
X0164190000Y0129539999Y0164190000Y0129539999
X0164190000Y0141460000Y0164190000Y0141460000
X0164190000Y0146540000Y0164190000Y0146540000
X0168000000Y0090460000Y0168000000Y0090460000
X0168000000Y0107460000Y0168000000Y0107460000
X0168000000Y0124460000Y0168000000Y0124460000
X0168000000Y0141460000Y0168000000Y0141460000
X0171190000Y0090460000Y0171190000Y0090460000
X0171190000Y0095540000Y0171190000Y0095540000
X0171190000Y0107460000Y0171190000Y0107460000
X0171190000Y0112540000Y0171190000Y0112540000
X0171190000Y0124460000Y0171190000Y0124460000
X0171190000Y0129539999Y0171190000Y0129539999
X0171190000Y0141460000Y0171190000Y0141460000
X0171190000Y0146540000Y0171190000Y0146540000
X0171810000Y0090460000Y0171810000Y0090460000
X0171810000Y0095540000Y0171810000Y0095540000
X0171810000Y0107460000Y0171810000Y0107460000
X0171810000Y0112540000Y0171810000Y0112540000
X0171810000Y0124460000Y0171810000Y0124460000
X0171810000Y0129539999Y0171810000Y0129539999
X0171810000Y0141460000Y0171810000Y0141460000
X0171810000Y0146540000Y0171810000Y0146540000
X0175000000Y0090460000Y0175000000Y0090460000
X0175000000Y0107460000Y0175000000Y0107460000
X0175000000Y0124460000Y0175000000Y0124460000
X0175000000Y0141460000Y0175000000Y0141460000
X0178810000Y0090460000Y0178810000Y0090460000
X0178810000Y0095540000Y0178810000Y0095540000
X0178810000Y0107460000Y0178810000Y0107460000
X0178810000Y0112540000Y0178810000Y0112540000
X0178810000Y0124460000Y0178810000Y0124460000
X0178810000Y0129539999Y0178810000Y0129539999
X0178810000Y0141460000Y0178810000Y0141460000
X0178810000Y0146540000Y0178810000Y0146540000
X0190000000Y0025460000Y0190000000Y0025460000
X0190000000Y0030540000Y0190000000Y0030540000
; T6: 1.2mm
T6
X0170380000Y0090460000Y0170380000Y0090460000
X0170380000Y0107460000Y0170380000Y0107460000
X0170380000Y0124460000Y0170380000Y0124460000
X0170380000Y0141460000Y0170380000Y0141460000
X0177380000Y0090460000Y0177380000Y0090460000
X0177380000Y0107460000Y0177380000Y0107460000
X0177380000Y0124460000Y0177380000Y0124460000
X0177380000Y0141460000Y0177380000Y0141460000
X0178000000Y0090460000Y0178000000Y0090460000
X0178000000Y0107460000Y0178000000Y0107460000
X0178000000Y0124460000Y0178000000Y0124460000
X0178000000Y0141460000Y0178000000Y0141460000
X0185000000Y0090460000Y0185000000Y0090460000
X0185000000Y0107460000Y0185000000Y0107460000
X0185000000Y0124460000Y0185000000Y0124460000
X0185000000Y0141460000Y0185000000Y0141460000
X0185620000Y0090460000Y0185620000Y0090460000
X0185620000Y0107460000Y0185620000Y0107460000
X0185620000Y0124460000Y0185620000Y0124460000
X0185620000Y0141460000Y0185620000Y0141460000
X0186190000Y0020000000Y0186190000Y0020000000
X0192620000Y0090460000Y0192620000Y0090460000
X0192620000Y0107460000Y0192620000Y0107460000
X0192620000Y0124460000Y0192620000Y0124460000
X0192620000Y0141460000Y0192620000Y0141460000
X0193810000Y0020000000Y0193810000Y0020000000
; T7: 3.2mm
T7
X0005000000Y0005000000Y0005000000Y0005000000
X0005000000Y0145000000Y0005000000Y0145000000
X0195000000Y0005000000Y0195000000Y0005000000
X0195000000Y0145000000Y0195000000Y0145000000
M30