G04 EcoSynTech PCB v6.3 - Front Silkscreen (F.SilkS)*
G04 Board: 200mm x 150mm | 2-Layer | ENIG*
%FSLAX46Y46*%
%MOMM*%

%FSLAX46Y46*%
%MOMM*%

%ADD10C,0.1500*%

G01*
X0011299999Y0019300000Y0011299999Y0019300000D02*

X0011900000Y0019300000Y0011900000Y0019300000D01*

X0011900000Y0019900000Y0011900000Y0019900000D01*

X0011299999Y0019900000Y0011299999Y0019900000D01*

X0011299999Y0019300000Y0011299999Y0019300000D01*

G01*
X0023300000Y0019300000Y0023300000Y0019300000D02*

X0023900000Y0019300000Y0023900000Y0019300000D01*

X0023900000Y0019900000Y0023900000Y0019900000D01*

X0023300000Y0019900000Y0023300000Y0019900000D01*

X0023300000Y0019300000Y0023300000Y0019300000D01*

G01*
X0036100000Y0019099999Y0036100000Y0019099999D02*

X0036699999Y0019099999Y0036699999Y0019099999D01*

X0036699999Y0019700000Y0036699999Y0019700000D01*

X0036100000Y0019700000Y0036100000Y0019700000D01*

X0036100000Y0019099999Y0036100000Y0019099999D01*

G01*
X0049100000Y0019099999Y0049100000Y0019099999D02*

X0049699999Y0019099999Y0049699999Y0019099999D01*

X0049699999Y0019700000Y0049699999Y0019700000D01*

X0049100000Y0019700000Y0049100000Y0019700000D01*

X0049100000Y0019099999Y0049100000Y0019099999D01*

G01*
X0063900000Y0019050000Y0063900000Y0019050000D02*

X0064500000Y0019050000Y0064500000Y0019050000D01*

X0064500000Y0019650000Y0064500000Y0019650000D01*

X0063900000Y0019650000Y0063900000Y0019650000D01*

X0063900000Y0019050000Y0063900000Y0019050000D01*

G01*
X0076100000Y0019099999Y0076100000Y0019099999D02*

X0076700000Y0019099999Y0076700000Y0019099999D01*

X0076700000Y0019700000Y0076700000Y0019700000D01*

X0076100000Y0019700000Y0076100000Y0019700000D01*

X0076100000Y0019099999Y0076100000Y0019099999D01*

G01*
X0091500000Y0019050000Y0091500000Y0019050000D02*

X0092100000Y0019050000Y0092100000Y0019050000D01*

X0092100000Y0019650000Y0092100000Y0019650000D01*

X0091500000Y0019650000Y0091500000Y0019650000D01*

X0091500000Y0019050000Y0091500000Y0019050000D01*

G01*
X0105300000Y0018970000Y0105300000Y0018970000D02*

X0105899999Y0018970000Y0105899999Y0018970000D01*

X0105899999Y0019570000Y0105899999Y0019570000D01*

X0105300000Y0019570000Y0105300000Y0019570000D01*

X0105300000Y0018970000Y0105300000Y0018970000D01*

G01*
X0105500000Y0010200000Y0105500000Y0010200000D02*

X0106100000Y0010200000Y0106100000Y0010200000D01*

X0106100000Y0010800000Y0106100000Y0010800000D01*

X0105500000Y0010800000Y0105500000Y0010800000D01*

X0105500000Y0010200000Y0105500000Y0010200000D01*

G01*
X0105500000Y0005200000Y0105500000Y0005200000D02*

X0106100000Y0005200000Y0106100000Y0005200000D01*

X0106100000Y0005800000Y0106100000Y0005800000D01*

X0105500000Y0005800000Y0105500000Y0005800000D01*

X0105500000Y0005200000Y0105500000Y0005200000D01*

G01*
X0105500000Y0027200000Y0105500000Y0027200000D02*

X0106100000Y0027200000Y0106100000Y0027200000D01*

X0106100000Y0027800000Y0106100000Y0027800000D01*

X0105500000Y0027800000Y0105500000Y0027800000D01*

X0105500000Y0027200000Y0105500000Y0027200000D01*

G01*
X0121300000Y0019300000Y0121300000Y0019300000D02*

X0121899999Y0019300000Y0121899999Y0019300000D01*

X0121899999Y0019900000Y0121899999Y0019900000D01*

X0121300000Y0019900000Y0121300000Y0019900000D01*

X0121300000Y0019300000Y0121300000Y0019300000D01*

G01*
X0131100000Y0012600000Y0131100000Y0012600000D02*

X0131700000Y0012600000Y0131700000Y0012600000D01*

X0131700000Y0013200000Y0131700000Y0013200000D01*

X0131100000Y0013200000Y0131100000Y0013200000D01*

X0131100000Y0012600000Y0131100000Y0012600000D01*

G01*
X0130500000Y0023200000Y0130500000Y0023200000D02*

X0131100000Y0023200000Y0131100000Y0023200000D01*

X0131100000Y0023800000Y0131100000Y0023800000D01*

X0130500000Y0023800000Y0130500000Y0023800000D01*

X0130500000Y0023200000Y0130500000Y0023200000D01*

G01*
X0072300000Y0035970000Y0072300000Y0035970000D02*

X0072899999Y0035970000Y0072899999Y0035970000D01*

X0072899999Y0036570000Y0072899999Y0036570000D01*

X0072300000Y0036570000Y0072300000Y0036570000D01*

X0072300000Y0035970000Y0072300000Y0035970000D01*

G01*
X0061100000Y0042600000Y0061100000Y0042600000D02*

X0061699999Y0042600000Y0061699999Y0042600000D01*

X0061699999Y0043199999Y0061699999Y0043199999D01*

X0061100000Y0043199999Y0061100000Y0043199999D01*

X0061100000Y0042600000Y0061100000Y0042600000D01*

G01*
X0060500000Y0035200000Y0060500000Y0035200000D02*

X0061099999Y0035200000Y0061099999Y0035200000D01*

X0061099999Y0035800000Y0061099999Y0035800000D01*

X0060500000Y0035800000Y0060500000Y0035800000D01*

X0060500000Y0035200000Y0060500000Y0035200000D01*

G01*
X0084100000Y0036100000Y0084100000Y0036100000D02*

X0084700000Y0036100000Y0084700000Y0036100000D01*

X0084700000Y0036699999Y0084700000Y0036699999D01*

X0084100000Y0036699999Y0084100000Y0036699999D01*

X0084100000Y0036100000Y0084100000Y0036100000D01*

G01*
X0094100000Y0042600000Y0094100000Y0042600000D02*

X0094700000Y0042600000Y0094700000Y0042600000D01*

X0094700000Y0043199999Y0094700000Y0043199999D01*

X0094100000Y0043199999Y0094100000Y0043199999D01*

X0094100000Y0042600000Y0094100000Y0042600000D01*

G01*
X0094100000Y0038600000Y0094100000Y0038600000D02*

X0094700000Y0038600000Y0094700000Y0038600000D01*

X0094700000Y0039199999Y0094700000Y0039199999D01*

X0094100000Y0039199999Y0094100000Y0039199999D01*

X0094100000Y0038600000Y0094100000Y0038600000D01*

G01*
X0093500000Y0034200000Y0093500000Y0034200000D02*

X0094100000Y0034200000Y0094100000Y0034200000D01*

X0094100000Y0034800000Y0094100000Y0034800000D01*

X0093500000Y0034800000Y0093500000Y0034800000D01*

X0093500000Y0034200000Y0093500000Y0034200000D01*

G01*
X0082500000Y0028200000Y0082500000Y0028200000D02*

X0083100000Y0028200000Y0083100000Y0028200000D01*

X0083100000Y0028800000Y0083100000Y0028800000D01*

X0082500000Y0028800000Y0082500000Y0028800000D01*

X0082500000Y0028200000Y0082500000Y0028200000D01*

G01*
X0082500000Y0024200000Y0082500000Y0024200000D02*

X0083100000Y0024200000Y0083100000Y0024200000D01*

X0083100000Y0024800000Y0083100000Y0024800000D01*

X0082500000Y0024800000Y0082500000Y0024800000D01*

X0082500000Y0024200000Y0082500000Y0024200000D01*

G01*
X0060500000Y0028200000Y0060500000Y0028200000D02*

X0061099999Y0028200000Y0061099999Y0028200000D01*

X0061099999Y0028800000Y0061099999Y0028800000D01*

X0060500000Y0028800000Y0060500000Y0028800000D01*

X0060500000Y0028200000Y0060500000Y0028200000D01*

G01*
X0091500000Y0051050000Y0091500000Y0051050000D02*

X0092100000Y0051050000Y0092100000Y0051050000D01*

X0092100000Y0051650000Y0092100000Y0051650000D01*

X0091500000Y0051650000Y0091500000Y0051650000D01*

X0091500000Y0051050000Y0091500000Y0051050000D01*

G01*
X0112300000Y0035970000Y0112300000Y0035970000D02*

X0112899999Y0035970000Y0112899999Y0035970000D01*

X0112899999Y0036570000Y0112899999Y0036570000D01*

X0112300000Y0036570000Y0112300000Y0036570000D01*

X0112300000Y0035970000Y0112300000Y0035970000D01*

G01*
X0101100000Y0042600000Y0101100000Y0042600000D02*

X0101700000Y0042600000Y0101700000Y0042600000D01*

X0101700000Y0043199999Y0101700000Y0043199999D01*

X0101100000Y0043199999Y0101100000Y0043199999D01*

X0101100000Y0042600000Y0101100000Y0042600000D01*

G01*
X0100500000Y0035200000Y0100500000Y0035200000D02*

X0101100000Y0035200000Y0101100000Y0035200000D01*

X0101100000Y0035800000Y0101100000Y0035800000D01*

X0100500000Y0035800000Y0100500000Y0035800000D01*

X0100500000Y0035200000Y0100500000Y0035200000D01*

G01*
X0124100000Y0036100000Y0124100000Y0036100000D02*

X0124700000Y0036100000Y0124700000Y0036100000D01*

X0124700000Y0036699999Y0124700000Y0036699999D01*

X0124100000Y0036699999Y0124100000Y0036699999D01*

X0124100000Y0036100000Y0124100000Y0036100000D01*

G01*
X0134100000Y0042600000Y0134100000Y0042600000D02*

X0134700000Y0042600000Y0134700000Y0042600000D01*

X0134700000Y0043199999Y0134700000Y0043199999D01*

X0134100000Y0043199999Y0134100000Y0043199999D01*

X0134100000Y0042600000Y0134100000Y0042600000D01*

G01*
X0134100000Y0038600000Y0134100000Y0038600000D02*

X0134700000Y0038600000Y0134700000Y0038600000D01*

X0134700000Y0039199999Y0134700000Y0039199999D01*

X0134100000Y0039199999Y0134100000Y0039199999D01*

X0134100000Y0038600000Y0134100000Y0038600000D01*

G01*
X0133500000Y0034200000Y0133500000Y0034200000D02*

X0134100000Y0034200000Y0134100000Y0034200000D01*

X0134100000Y0034800000Y0134100000Y0034800000D01*

X0133500000Y0034800000Y0133500000Y0034800000D01*

X0133500000Y0034200000Y0133500000Y0034200000D01*

G01*
X0122500000Y0028200000Y0122500000Y0028200000D02*

X0123100000Y0028200000Y0123100000Y0028200000D01*

X0123100000Y0028800000Y0123100000Y0028800000D01*

X0122500000Y0028800000Y0122500000Y0028800000D01*

X0122500000Y0028200000Y0122500000Y0028200000D01*

G01*
X0122500000Y0024200000Y0122500000Y0024200000D02*

X0123100000Y0024200000Y0123100000Y0024200000D01*

X0123100000Y0024800000Y0123100000Y0024800000D01*

X0122500000Y0024800000Y0122500000Y0024800000D01*

X0122500000Y0024200000Y0122500000Y0024200000D01*

G01*
X0100500000Y0028200000Y0100500000Y0028200000D02*

X0101100000Y0028200000Y0101100000Y0028200000D01*

X0101100000Y0028800000Y0101100000Y0028800000D01*

X0100500000Y0028800000Y0100500000Y0028800000D01*

X0100500000Y0028200000Y0100500000Y0028200000D01*

G01*
X0058500000Y0047200000Y0058500000Y0047200000D02*

X0059099999Y0047200000Y0059099999Y0047200000D01*

X0059099999Y0047800000Y0059099999Y0047800000D01*

X0058500000Y0047800000Y0058500000Y0047800000D01*

X0058500000Y0047200000Y0058500000Y0047200000D01*

G01*
X0063500000Y0047200000Y0063500000Y0047200000D02*

X0064099999Y0047200000Y0064099999Y0047200000D01*

X0064099999Y0047800000Y0064099999Y0047800000D01*

X0063500000Y0047800000Y0063500000Y0047800000D01*

X0063500000Y0047200000Y0063500000Y0047200000D01*

G01*
X0066500000Y0047200000Y0066500000Y0047200000D02*

X0067099999Y0047200000Y0067099999Y0047200000D01*

X0067099999Y0047800000Y0067099999Y0047800000D01*

X0066500000Y0047800000Y0066500000Y0047800000D01*

X0066500000Y0047200000Y0066500000Y0047200000D01*

G01*
X0058500000Y0067200000Y0058500000Y0067200000D02*

X0059099999Y0067200000Y0059099999Y0067200000D01*

X0059099999Y0067800000Y0059099999Y0067800000D01*

X0058500000Y0067800000Y0058500000Y0067800000D01*

X0058500000Y0067200000Y0058500000Y0067200000D01*

G01*
X0063500000Y0067200000Y0063500000Y0067200000D02*

X0064099999Y0067200000Y0064099999Y0067200000D01*

X0064099999Y0067800000Y0064099999Y0067800000D01*

X0063500000Y0067800000Y0063500000Y0067800000D01*

X0063500000Y0067200000Y0063500000Y0067200000D01*

G01*
X0066500000Y0067200000Y0066500000Y0067200000D02*

X0067099999Y0067200000Y0067099999Y0067200000D01*

X0067099999Y0067800000Y0067099999Y0067800000D01*

X0066500000Y0067800000Y0066500000Y0067800000D01*

X0066500000Y0067200000Y0066500000Y0067200000D01*

G01*
X0138299999Y0057600000Y0138299999Y0057600000D02*

X0138900000Y0057600000Y0138900000Y0057600000D01*

X0138900000Y0058199999Y0138900000Y0058199999D01*

X0138299999Y0058199999Y0138299999Y0058199999D01*

X0138299999Y0057600000Y0138299999Y0057600000D01*

G01*
X0141500000Y0057200000Y0141500000Y0057200000D02*

X0142100000Y0057200000Y0142100000Y0057200000D01*

X0142100000Y0057800000Y0142100000Y0057800000D01*

X0141500000Y0057800000Y0141500000Y0057800000D01*

X0141500000Y0057200000Y0141500000Y0057200000D01*

G01*
X0021500000Y0036050000Y0021500000Y0036050000D02*

X0022100000Y0036050000Y0022100000Y0036050000D01*

X0022100000Y0036650000Y0022100000Y0036650000D01*

X0021500000Y0036650000Y0021500000Y0036650000D01*

X0021500000Y0036050000Y0021500000Y0036050000D01*

G01*
X0028500000Y0036050000Y0028500000Y0036050000D02*

X0029100000Y0036050000Y0029100000Y0036050000D01*

X0029100000Y0036650000Y0029100000Y0036650000D01*

X0028500000Y0036650000Y0028500000Y0036650000D01*

X0028500000Y0036050000Y0028500000Y0036050000D01*

G01*
X0036100000Y0035600000Y0036100000Y0035600000D02*

X0036699999Y0035600000Y0036699999Y0035600000D01*

X0036699999Y0036199999Y0036699999Y0036199999D01*

X0036100000Y0036199999Y0036100000Y0036199999D01*

X0036100000Y0035600000Y0036100000Y0035600000D01*

G01*
X0040500000Y0035200000Y0040500000Y0035200000D02*

X0041099999Y0035200000Y0041099999Y0035200000D01*

X0041099999Y0035800000Y0041099999Y0035800000D01*

X0040500000Y0035800000Y0040500000Y0035800000D01*

X0040500000Y0035200000Y0040500000Y0035200000D01*

G01*
X0165200000Y0058100000Y0165200000Y0058100000D02*

X0165800000Y0058100000Y0165800000Y0058100000D01*

X0165800000Y0058699999Y0165800000Y0058699999D01*

X0165200000Y0058699999Y0165200000Y0058699999D01*

X0165200000Y0058100000Y0165200000Y0058100000D01*

G01*
X0150500000Y0070200000Y0150500000Y0070200000D02*

X0151100000Y0070200000Y0151100000Y0070200000D01*

X0151100000Y0070800000Y0151100000Y0070800000D01*

X0150500000Y0070800000Y0150500000Y0070800000D01*

X0150500000Y0070200000Y0150500000Y0070200000D01*

G01*
X0152500000Y0073200000Y0152500000Y0073200000D02*

X0153100000Y0073200000Y0153100000Y0073200000D01*

X0153100000Y0073800000Y0153100000Y0073800000D01*

X0152500000Y0073800000Y0152500000Y0073800000D01*

X0152500000Y0073200000Y0152500000Y0073200000D01*

G01*
X0154500000Y0076200000Y0154500000Y0076200000D02*

X0155100000Y0076200000Y0155100000Y0076200000D01*

X0155100000Y0076800000Y0155100000Y0076800000D01*

X0154500000Y0076800000Y0154500000Y0076800000D01*

X0154500000Y0076200000Y0154500000Y0076200000D01*

G01*
X0160500000Y0068200000Y0160500000Y0068200000D02*

X0161100000Y0068200000Y0161100000Y0068200000D01*

X0161100000Y0068800000Y0161100000Y0068800000D01*

X0160500000Y0068800000Y0160500000Y0068800000D01*

X0160500000Y0068200000Y0160500000Y0068200000D01*

G01*
X0163500000Y0068200000Y0163500000Y0068200000D02*

X0164100000Y0068200000Y0164100000Y0068200000D01*

X0164100000Y0068800000Y0164100000Y0068800000D01*

X0163500000Y0068800000Y0163500000Y0068800000D01*

X0163500000Y0068200000Y0163500000Y0068200000D01*

G01*
X0166500000Y0068200000Y0166500000Y0068200000D02*

X0167100000Y0068200000Y0167100000Y0068200000D01*

X0167100000Y0068800000Y0167100000Y0068800000D01*

X0166500000Y0068800000Y0166500000Y0068800000D01*

X0166500000Y0068200000Y0166500000Y0068200000D01*

G01*
X0170500000Y0072200000Y0170500000Y0072200000D02*

X0171100000Y0072200000Y0171100000Y0072200000D01*

X0171100000Y0072800000Y0171100000Y0072800000D01*

X0170500000Y0072800000Y0170500000Y0072800000D01*

X0170500000Y0072200000Y0170500000Y0072200000D01*

G01*
X0040500000Y0045200000Y0040500000Y0045200000D02*

X0041099999Y0045200000Y0041099999Y0045200000D01*

X0041099999Y0045800000Y0041099999Y0045800000D01*

X0040500000Y0045800000Y0040500000Y0045800000D01*

X0040500000Y0045200000Y0040500000Y0045200000D01*

G01*
X0040500000Y0055200000Y0040500000Y0055200000D02*

X0041099999Y0055200000Y0041099999Y0055200000D01*

X0041099999Y0055800000Y0041099999Y0055800000D01*

X0040500000Y0055800000Y0040500000Y0055800000D01*

X0040500000Y0055200000Y0040500000Y0055200000D01*

G01*
X0155500000Y0050200000Y0155500000Y0050200000D02*

X0156100000Y0050200000Y0156100000Y0050200000D01*

X0156100000Y0050800000Y0156100000Y0050800000D01*

X0155500000Y0050800000Y0155500000Y0050800000D01*

X0155500000Y0050200000Y0155500000Y0050200000D01*

G01*
X0152500000Y0050200000Y0152500000Y0050200000D02*

X0153100000Y0050200000Y0153100000Y0050200000D01*

X0153100000Y0050800000Y0153100000Y0050800000D01*

X0152500000Y0050800000Y0152500000Y0050800000D01*

X0152500000Y0050200000Y0152500000Y0050200000D01*

G01*
X0155500000Y0053200000Y0155500000Y0053200000D02*

X0156100000Y0053200000Y0156100000Y0053200000D01*

X0156100000Y0053800000Y0156100000Y0053800000D01*

X0155500000Y0053800000Y0155500000Y0053800000D01*

X0155500000Y0053200000Y0155500000Y0053200000D01*

G01*
X0152500000Y0053200000Y0152500000Y0053200000D02*

X0153100000Y0053200000Y0153100000Y0053200000D01*

X0153100000Y0053800000Y0153100000Y0053800000D01*

X0152500000Y0053800000Y0152500000Y0053800000D01*

X0152500000Y0053200000Y0152500000Y0053200000D01*

G01*
X0155500000Y0056200000Y0155500000Y0056200000D02*

X0156100000Y0056200000Y0156100000Y0056200000D01*

X0156100000Y0056800000Y0156100000Y0056800000D01*

X0155500000Y0056800000Y0155500000Y0056800000D01*

X0155500000Y0056200000Y0155500000Y0056200000D01*

G01*
X0152500000Y0056200000Y0152500000Y0056200000D02*

X0153100000Y0056200000Y0153100000Y0056200000D01*

X0153100000Y0056800000Y0153100000Y0056800000D01*

X0152500000Y0056800000Y0152500000Y0056800000D01*

X0152500000Y0056200000Y0152500000Y0056200000D01*

G01*
X0155500000Y0059200000Y0155500000Y0059200000D02*

X0156100000Y0059200000Y0156100000Y0059200000D01*

X0156100000Y0059800000Y0156100000Y0059800000D01*

X0155500000Y0059800000Y0155500000Y0059800000D01*

X0155500000Y0059200000Y0155500000Y0059200000D01*

G01*
X0152500000Y0059200000Y0152500000Y0059200000D02*

X0153100000Y0059200000Y0153100000Y0059200000D01*

X0153100000Y0059800000Y0153100000Y0059800000D01*

X0152500000Y0059800000Y0152500000Y0059800000D01*

X0152500000Y0059200000Y0152500000Y0059200000D01*

G01*
X0025500000Y0030500000Y0025500000Y0030500000D02*

X0026100000Y0030500000Y0026100000Y0030500000D01*

X0026100000Y0031100000Y0026100000Y0031100000D01*

X0025500000Y0031100000Y0025500000Y0031100000D01*

X0025500000Y0030500000Y0025500000Y0030500000D01*

G01*
X0032500000Y0030500000Y0032500000Y0030500000D02*

X0033099999Y0030500000Y0033099999Y0030500000D01*

X0033099999Y0031100000Y0033099999Y0031100000D01*

X0032500000Y0031100000Y0032500000Y0031100000D01*

X0032500000Y0030500000Y0032500000Y0030500000D01*

G01*
X0040500000Y0031050000Y0040500000Y0031050000D02*

X0041099999Y0031050000Y0041099999Y0031050000D01*

X0041099999Y0031650000Y0041099999Y0031650000D01*

X0040500000Y0031650000Y0040500000Y0031650000D01*

X0040500000Y0031050000Y0040500000Y0031050000D01*

G01*
X0047100000Y0030599999Y0047100000Y0030599999D02*

X0047699999Y0030599999Y0047699999Y0030599999D01*

X0047699999Y0031200000Y0047699999Y0031200000D01*

X0047100000Y0031200000Y0047100000Y0031200000D01*

X0047100000Y0030599999Y0047100000Y0030599999D01*

G01*
X0053300000Y0030599999Y0053300000Y0030599999D02*

X0053900000Y0030599999Y0053900000Y0030599999D01*

X0053900000Y0031200000Y0053900000Y0031200000D01*

X0053300000Y0031200000Y0053300000Y0031200000D01*

X0053300000Y0030599999Y0053300000Y0030599999D01*

G01*
X0034950000Y0053200000Y0034950000Y0053200000D02*

X0035800000Y0053200000Y0035800000Y0053200000D01*

X0035800000Y0053800000Y0035800000Y0053800000D01*

X0034950000Y0053800000Y0034950000Y0053800000D01*

X0034950000Y0053200000Y0034950000Y0053200000D01*

G01*
X0040300000Y0060600000Y0040300000Y0060600000D02*

X0040900000Y0060600000Y0040900000Y0060600000D01*

X0040900000Y0061199999Y0040900000Y0061199999D01*

X0040300000Y0061199999Y0040300000Y0061199999D01*

X0040300000Y0060600000Y0040300000Y0060600000D01*

G01*
X0037500000Y0060200000Y0037500000Y0060200000D02*

X0038099999Y0060200000Y0038099999Y0060200000D01*

X0038099999Y0060800000Y0038099999Y0060800000D01*

X0037500000Y0060800000Y0037500000Y0060800000D01*

X0037500000Y0060200000Y0037500000Y0060200000D01*

G01*
X0040300000Y0065600000Y0040300000Y0065600000D02*

X0040900000Y0065600000Y0040900000Y0065600000D01*

X0040900000Y0066200000Y0040900000Y0066200000D01*

X0040300000Y0066200000Y0040300000Y0066200000D01*

X0040300000Y0065600000Y0040300000Y0065600000D01*

G01*
X0037500000Y0065200000Y0037500000Y0065200000D02*

X0038099999Y0065200000Y0038099999Y0065200000D01*

X0038099999Y0065800000Y0038099999Y0065800000D01*

X0037500000Y0065800000Y0037500000Y0065800000D01*

X0037500000Y0065200000Y0037500000Y0065200000D01*

G01*
X0050300000Y0058600000Y0050300000Y0058600000D02*

X0050900000Y0058600000Y0050900000Y0058600000D01*

X0050900000Y0059199999Y0050900000Y0059199999D01*

X0050300000Y0059199999Y0050300000Y0059199999D01*

X0050300000Y0058600000Y0050300000Y0058600000D01*

G01*
X0058500000Y0058200000Y0058500000Y0058200000D02*

X0059099999Y0058200000Y0059099999Y0058200000D01*

X0059099999Y0058800000Y0059099999Y0058800000D01*

X0058500000Y0058800000Y0058500000Y0058800000D01*

X0058500000Y0058200000Y0058500000Y0058200000D01*

G01*
X0047500000Y0061200000Y0047500000Y0061200000D02*

X0048099999Y0061200000Y0048099999Y0061200000D01*

X0048099999Y0061800000Y0048099999Y0061800000D01*

X0047500000Y0061800000Y0047500000Y0061800000D01*

X0047500000Y0061200000Y0047500000Y0061200000D01*

G01*
X0055500000Y0061200000Y0055500000Y0061200000D02*

X0056099999Y0061200000Y0056099999Y0061200000D01*

X0056099999Y0061800000Y0056099999Y0061800000D01*

X0055500000Y0061800000Y0055500000Y0061800000D01*

X0055500000Y0061200000Y0055500000Y0061200000D01*

G01*
X0050500000Y0064200000Y0050500000Y0064200000D02*

X0051099999Y0064200000Y0051099999Y0064200000D01*

X0051099999Y0064800000Y0051099999Y0064800000D01*

X0050500000Y0064800000Y0050500000Y0064800000D01*

X0050500000Y0064200000Y0050500000Y0064200000D01*

G01*
X0055300000Y0060600000Y0055300000Y0060600000D02*

X0055900000Y0060600000Y0055900000Y0060600000D01*

X0055900000Y0061199999Y0055900000Y0061199999D01*

X0055300000Y0061199999Y0055300000Y0061199999D01*

X0055300000Y0060600000Y0055300000Y0060600000D01*

G01*
X0016900000Y0089050000Y0016900000Y0089050000D02*

X0017500000Y0089050000Y0017500000Y0089050000D01*

X0017500000Y0089649999Y0017500000Y0089649999D01*

X0016900000Y0089649999Y0016900000Y0089649999D01*

X0016900000Y0089050000Y0016900000Y0089050000D01*

G01*
X0029300000Y0089300000Y0029300000Y0089300000D02*

X0029900000Y0089300000Y0029900000Y0089300000D01*

X0029900000Y0089899999Y0029900000Y0089899999D01*

X0029300000Y0089899999Y0029300000Y0089899999D01*

X0029300000Y0089300000Y0029300000Y0089300000D01*

G01*
X0041500000Y0089050000Y0041500000Y0089050000D02*

X0042099999Y0089050000Y0042099999Y0089050000D01*

X0042099999Y0089649999Y0042099999Y0089649999D01*

X0041500000Y0089649999Y0041500000Y0089649999D01*

X0041500000Y0089050000Y0041500000Y0089050000D01*

G01*
X0148299999Y0093600000Y0148299999Y0093600000D02*

X0148900000Y0093600000Y0148900000Y0093600000D01*

X0148900000Y0094200000Y0148900000Y0094200000D01*

X0148299999Y0094200000Y0148299999Y0094200000D01*

X0148299999Y0093600000Y0148299999Y0093600000D01*

G01*
X0155500000Y0093200000Y0155500000Y0093200000D02*

X0156100000Y0093200000Y0156100000Y0093200000D01*

X0156100000Y0093800000Y0156100000Y0093800000D01*

X0155500000Y0093800000Y0155500000Y0093800000D01*

X0155500000Y0093200000Y0155500000Y0093200000D01*

G01*
X0167500000Y0093200000Y0167500000Y0093200000D02*

X0168100000Y0093200000Y0168100000Y0093200000D01*

X0168100000Y0093800000Y0168100000Y0093800000D01*

X0167500000Y0093800000Y0167500000Y0093800000D01*

X0167500000Y0093200000Y0167500000Y0093200000D01*

G01*
X0140500000Y0093200000Y0140500000Y0093200000D02*

X0141100000Y0093200000Y0141100000Y0093200000D01*

X0141100000Y0093800000Y0141100000Y0093800000D01*

X0140500000Y0093800000Y0140500000Y0093800000D01*

X0140500000Y0093200000Y0140500000Y0093200000D01*

G01*
X0175700000Y0093700000Y0175700000Y0093700000D02*

X0176300000Y0093700000Y0176300000Y0093700000D01*

X0176300000Y0094300000Y0176300000Y0094300000D01*

X0175700000Y0094300000Y0175700000Y0094300000D01*

X0175700000Y0093700000Y0175700000Y0093700000D01*

G01*
X0185899999Y0093900000Y0185899999Y0093900000D02*

X0186500000Y0093900000Y0186500000Y0093900000D01*

X0186500000Y0094500000Y0186500000Y0094500000D01*

X0185899999Y0094500000Y0185899999Y0094500000D01*

X0185899999Y0093900000Y0185899999Y0093900000D01*

G01*
X0148299999Y0110600000Y0148299999Y0110600000D02*

X0148900000Y0110600000Y0148900000Y0110600000D01*

X0148900000Y0111200000Y0148900000Y0111200000D01*

X0148299999Y0111200000Y0148299999Y0111200000D01*

X0148299999Y0110600000Y0148299999Y0110600000D01*

G01*
X0155500000Y0110200000Y0155500000Y0110200000D02*

X0156100000Y0110200000Y0156100000Y0110200000D01*

X0156100000Y0110800000Y0156100000Y0110800000D01*

X0155500000Y0110800000Y0155500000Y0110800000D01*

X0155500000Y0110200000Y0155500000Y0110200000D01*

G01*
X0167500000Y0110200000Y0167500000Y0110200000D02*

X0168100000Y0110200000Y0168100000Y0110200000D01*

X0168100000Y0110800000Y0168100000Y0110800000D01*

X0167500000Y0110800000Y0167500000Y0110800000D01*

X0167500000Y0110200000Y0167500000Y0110200000D01*

G01*
X0140500000Y0110200000Y0140500000Y0110200000D02*

X0141100000Y0110200000Y0141100000Y0110200000D01*

X0141100000Y0110800000Y0141100000Y0110800000D01*

X0140500000Y0110800000Y0140500000Y0110800000D01*

X0140500000Y0110200000Y0140500000Y0110200000D01*

G01*
X0175700000Y0110700000Y0175700000Y0110700000D02*

X0176300000Y0110700000Y0176300000Y0110700000D01*

X0176300000Y0111300000Y0176300000Y0111300000D01*

X0175700000Y0111300000Y0175700000Y0111300000D01*

X0175700000Y0110700000Y0175700000Y0110700000D01*

G01*
X0185899999Y0110900000Y0185899999Y0110900000D02*

X0186500000Y0110900000Y0186500000Y0110900000D01*

X0186500000Y0111500000Y0186500000Y0111500000D01*

X0185899999Y0111500000Y0185899999Y0111500000D01*

X0185899999Y0110900000Y0185899999Y0110900000D01*

G01*
X0148299999Y0127600000Y0148299999Y0127600000D02*

X0148900000Y0127600000Y0148900000Y0127600000D01*

X0148900000Y0128200000Y0148900000Y0128200000D01*

X0148299999Y0128200000Y0148299999Y0128200000D01*

X0148299999Y0127600000Y0148299999Y0127600000D01*

G01*
X0155500000Y0127200000Y0155500000Y0127200000D02*

X0156100000Y0127200000Y0156100000Y0127200000D01*

X0156100000Y0127800000Y0156100000Y0127800000D01*

X0155500000Y0127800000Y0155500000Y0127800000D01*

X0155500000Y0127200000Y0155500000Y0127200000D01*

G01*
X0167500000Y0127200000Y0167500000Y0127200000D02*

X0168100000Y0127200000Y0168100000Y0127200000D01*

X0168100000Y0127800000Y0168100000Y0127800000D01*

X0167500000Y0127800000Y0167500000Y0127800000D01*

X0167500000Y0127200000Y0167500000Y0127200000D01*

G01*
X0140500000Y0127200000Y0140500000Y0127200000D02*

X0141100000Y0127200000Y0141100000Y0127200000D01*

X0141100000Y0127800000Y0141100000Y0127800000D01*

X0140500000Y0127800000Y0140500000Y0127800000D01*

X0140500000Y0127200000Y0140500000Y0127200000D01*

G01*
X0175700000Y0127700000Y0175700000Y0127700000D02*

X0176300000Y0127700000Y0176300000Y0127700000D01*

X0176300000Y0128300000Y0176300000Y0128300000D01*

X0175700000Y0128300000Y0175700000Y0128300000D01*

X0175700000Y0127700000Y0175700000Y0127700000D01*

G01*
X0185899999Y0127899999Y0185899999Y0127899999D02*

X0186500000Y0127899999Y0186500000Y0127899999D01*

X0186500000Y0128500000Y0186500000Y0128500000D01*

X0185899999Y0128500000Y0185899999Y0128500000D01*

X0185899999Y0127899999Y0185899999Y0127899999D01*

G01*
X0148299999Y0144600000Y0148299999Y0144600000D02*

X0148900000Y0144600000Y0148900000Y0144600000D01*

X0148900000Y0145200000Y0148900000Y0145200000D01*

X0148299999Y0145200000Y0148299999Y0145200000D01*

X0148299999Y0144600000Y0148299999Y0144600000D01*

G01*
X0155500000Y0144200000Y0155500000Y0144200000D02*

X0156100000Y0144200000Y0156100000Y0144200000D01*

X0156100000Y0144800000Y0156100000Y0144800000D01*

X0155500000Y0144800000Y0155500000Y0144800000D01*

X0155500000Y0144200000Y0155500000Y0144200000D01*

G01*
X0167500000Y0144200000Y0167500000Y0144200000D02*

X0168100000Y0144200000Y0168100000Y0144200000D01*

X0168100000Y0144800000Y0168100000Y0144800000D01*

X0167500000Y0144800000Y0167500000Y0144800000D01*

X0167500000Y0144200000Y0167500000Y0144200000D01*

G01*
X0140500000Y0144200000Y0140500000Y0144200000D02*

X0141100000Y0144200000Y0141100000Y0144200000D01*

X0141100000Y0144800000Y0141100000Y0144800000D01*

X0140500000Y0144800000Y0140500000Y0144800000D01*

X0140500000Y0144200000Y0140500000Y0144200000D01*

G01*
X0175700000Y0144700000Y0175700000Y0144700000D02*

X0176300000Y0144700000Y0176300000Y0144700000D01*

X0176300000Y0145300000Y0176300000Y0145300000D01*

X0175700000Y0145300000Y0175700000Y0145300000D01*

X0175700000Y0144700000Y0175700000Y0144700000D01*

G01*
X0185899999Y0144899999Y0185899999Y0144899999D02*

X0186500000Y0144899999Y0186500000Y0144899999D01*

X0186500000Y0145500000Y0186500000Y0145500000D01*

X0185899999Y0145500000Y0185899999Y0145500000D01*

X0185899999Y0144899999Y0185899999Y0144899999D01*

G01*
X0045300000Y0093600000Y0045300000Y0093600000D02*

X0045900000Y0093600000Y0045900000Y0093600000D01*

X0045900000Y0094200000Y0045900000Y0094200000D01*

X0045300000Y0094200000Y0045300000Y0094200000D01*

X0045300000Y0093600000Y0045300000Y0093600000D01*

G01*
X0055300000Y0093600000Y0055300000Y0093600000D02*

X0055900000Y0093600000Y0055900000Y0093600000D01*

X0055900000Y0094200000Y0055900000Y0094200000D01*

X0055300000Y0094200000Y0055300000Y0094200000D01*

X0055300000Y0093600000Y0055300000Y0093600000D01*

G01*
X0065500000Y0093200000Y0065500000Y0093200000D02*

X0066099999Y0093200000Y0066099999Y0093200000D01*

X0066099999Y0093800000Y0066099999Y0093800000D01*

X0065500000Y0093800000Y0065500000Y0093800000D01*

X0065500000Y0093200000Y0065500000Y0093200000D01*

G01*
X0065500000Y0088200000Y0065500000Y0088200000D02*

X0066099999Y0088200000Y0066099999Y0088200000D01*

X0066099999Y0088800000Y0066099999Y0088800000D01*

X0065500000Y0088800000Y0065500000Y0088800000D01*

X0065500000Y0088200000Y0065500000Y0088200000D01*

G01*
X0040400000Y0035400000Y0040400000Y0035400000D02*

X0041000000Y0035400000Y0041000000Y0035400000D01*

X0041000000Y0036000000Y0041000000Y0036000000D01*

X0040400000Y0036000000Y0040400000Y0036000000D01*

X0040400000Y0035400000Y0040400000Y0035400000D01*

G01*
X0048500000Y0038200000Y0048500000Y0038200000D02*

X0049099999Y0038200000Y0049099999Y0038200000D01*

X0049099999Y0038800000Y0049099999Y0038800000D01*

X0048500000Y0038800000Y0048500000Y0038800000D01*

X0048500000Y0038200000Y0048500000Y0038200000D01*

G01*
X0055500000Y0040200000Y0055500000Y0040200000D02*

X0056099999Y0040200000Y0056099999Y0040200000D01*

X0056099999Y0040800000Y0056099999Y0040800000D01*

X0055500000Y0040800000Y0055500000Y0040800000D01*

X0055500000Y0040200000Y0055500000Y0040200000D01*

G01*
X0040400000Y0045400000Y0040400000Y0045400000D02*

X0041000000Y0045400000Y0041000000Y0045400000D01*

X0041000000Y0046000000Y0041000000Y0046000000D01*

X0040400000Y0046000000Y0040400000Y0046000000D01*

X0040400000Y0045400000Y0040400000Y0045400000D01*

G01*
X0048500000Y0048200000Y0048500000Y0048200000D02*

X0049099999Y0048200000Y0049099999Y0048200000D01*

X0049099999Y0048800000Y0049099999Y0048800000D01*

X0048500000Y0048800000Y0048500000Y0048800000D01*

X0048500000Y0048200000Y0048500000Y0048200000D01*

G01*
X0055500000Y0050200000Y0055500000Y0050200000D02*

X0056099999Y0050200000Y0056099999Y0050200000D01*

X0056099999Y0050800000Y0056099999Y0050800000D01*

X0055500000Y0050800000Y0055500000Y0050800000D01*

X0055500000Y0050200000Y0055500000Y0050200000D01*

G01*
X0040400000Y0055400000Y0040400000Y0055400000D02*

X0041000000Y0055400000Y0041000000Y0055400000D01*

X0041000000Y0056000000Y0041000000Y0056000000D01*

X0040400000Y0056000000Y0040400000Y0056000000D01*

X0040400000Y0055400000Y0040400000Y0055400000D01*

G01*
X0035500000Y0055200000Y0035500000Y0055200000D02*

X0036099999Y0055200000Y0036099999Y0055200000D01*

X0036099999Y0055800000Y0036099999Y0055800000D01*

X0035500000Y0055800000Y0035500000Y0055800000D01*

X0035500000Y0055200000Y0035500000Y0055200000D01*

G01*
X0032500000Y0055200000Y0032500000Y0055200000D02*

X0033099999Y0055200000Y0033099999Y0055200000D01*

X0033099999Y0055800000Y0033099999Y0055800000D01*

X0032500000Y0055800000Y0032500000Y0055800000D01*

X0032500000Y0055200000Y0032500000Y0055200000D01*

G01*
X0029500000Y0055200000Y0029500000Y0055200000D02*

X0030100000Y0055200000Y0030100000Y0055200000D01*

X0030100000Y0055800000Y0030100000Y0055800000D01*

X0029500000Y0055800000Y0029500000Y0055800000D01*

X0029500000Y0055200000Y0029500000Y0055200000D01*

G01*
X0191299999Y0029300000Y0191299999Y0029300000D02*

X0191900000Y0029300000Y0191900000Y0029300000D01*

X0191900000Y0029900000Y0191900000Y0029900000D01*

X0191299999Y0029900000Y0191299999Y0029900000D01*

X0191299999Y0029300000Y0191299999Y0029300000D01*

G01*
X0178500000Y0028200000Y0178500000Y0028200000D02*

X0179100000Y0028200000Y0179100000Y0028200000D01*

X0179100000Y0028800000Y0179100000Y0028800000D01*

X0178500000Y0028800000Y0178500000Y0028800000D01*

X0178500000Y0028200000Y0178500000Y0028200000D01*

G01*
X0175500000Y0025200000Y0175500000Y0025200000D02*

X0176100000Y0025200000Y0176100000Y0025200000D01*

X0176100000Y0025800000Y0176100000Y0025800000D01*

X0175500000Y0025800000Y0175500000Y0025800000D01*

X0175500000Y0025200000Y0175500000Y0025200000D01*

G01*
X0178500000Y0022200000Y0178500000Y0022200000D02*

X0179100000Y0022200000Y0179100000Y0022200000D01*

X0179100000Y0022800000Y0179100000Y0022800000D01*

X0178500000Y0022800000Y0178500000Y0022800000D01*

X0178500000Y0022200000Y0178500000Y0022200000D01*

G01*
X0173500000Y0028200000Y0173500000Y0028200000D02*

X0174100000Y0028200000Y0174100000Y0028200000D01*

X0174100000Y0028800000Y0174100000Y0028800000D01*

X0173500000Y0028800000Y0173500000Y0028800000D01*

X0173500000Y0028200000Y0173500000Y0028200000D01*

G01*
X0170299999Y0028599999Y0170299999Y0028599999D02*

X0170900000Y0028599999Y0170900000Y0028599999D01*

X0170900000Y0029200000Y0170900000Y0029200000D01*

X0170299999Y0029200000Y0170299999Y0029200000D01*

X0170299999Y0028599999Y0170299999Y0028599999D01*

G01*
X0082000000Y0053300000Y0082000000Y0053300000D02*

X0082600000Y0053300000Y0082600000Y0053300000D01*

X0082600000Y0053900000Y0082600000Y0053900000D01*

X0082000000Y0053900000Y0082000000Y0053900000D01*

X0082000000Y0053300000Y0082000000Y0053300000D01*

G01*
X0087500000Y0057200000Y0087500000Y0057200000D02*

X0088100000Y0057200000Y0088100000Y0057200000D01*

X0088100000Y0057800000Y0088100000Y0057800000D01*

X0087500000Y0057800000Y0087500000Y0057800000D01*

X0087500000Y0057200000Y0087500000Y0057200000D01*

G01*
X0090500000Y0057200000Y0090500000Y0057200000D02*

X0091100000Y0057200000Y0091100000Y0057200000D01*

X0091100000Y0057800000Y0091100000Y0057800000D01*

X0090500000Y0057800000Y0090500000Y0057800000D01*

X0090500000Y0057200000Y0090500000Y0057200000D01*

G01*
X0075500000Y0048200000Y0075500000Y0048200000D02*

X0076100000Y0048200000Y0076100000Y0048200000D01*

X0076100000Y0048800000Y0076100000Y0048800000D01*

X0075500000Y0048800000Y0075500000Y0048800000D01*

X0075500000Y0048200000Y0075500000Y0048200000D01*

G01*
X0078500000Y0048200000Y0078500000Y0048200000D02*

X0079100000Y0048200000Y0079100000Y0048200000D01*

X0079100000Y0048800000Y0079100000Y0048800000D01*

X0078500000Y0048800000Y0078500000Y0048800000D01*

X0078500000Y0048200000Y0078500000Y0048200000D01*

G01*
X0078500000Y0048200000Y0078500000Y0048200000D02*

X0079100000Y0048200000Y0079100000Y0048200000D01*

X0079100000Y0048800000Y0079100000Y0048800000D01*

X0078500000Y0048800000Y0078500000Y0048800000D01*

X0078500000Y0048200000Y0078500000Y0048200000D01*

G01*
X0081500000Y0048200000Y0081500000Y0048200000D02*

X0082100000Y0048200000Y0082100000Y0048200000D01*

X0082100000Y0048800000Y0082100000Y0048800000D01*

X0081500000Y0048800000Y0081500000Y0048800000D01*

X0081500000Y0048200000Y0081500000Y0048200000D01*

G01*
X0081500000Y0048200000Y0081500000Y0048200000D02*

X0082100000Y0048200000Y0082100000Y0048200000D01*

X0082100000Y0048800000Y0082100000Y0048800000D01*

X0081500000Y0048800000Y0081500000Y0048800000D01*

X0081500000Y0048200000Y0081500000Y0048200000D01*

G01*
X0084500000Y0048200000Y0084500000Y0048200000D02*

X0085100000Y0048200000Y0085100000Y0048200000D01*

X0085100000Y0048800000Y0085100000Y0048800000D01*

X0084500000Y0048800000Y0084500000Y0048800000D01*

X0084500000Y0048200000Y0084500000Y0048200000D01*

G01*
X0084500000Y0048200000Y0084500000Y0048200000D02*

X0085100000Y0048200000Y0085100000Y0048200000D01*

X0085100000Y0048800000Y0085100000Y0048800000D01*

X0084500000Y0048800000Y0084500000Y0048800000D01*

X0084500000Y0048200000Y0084500000Y0048200000D01*

G01*
X0087500000Y0048200000Y0087500000Y0048200000D02*

X0088100000Y0048200000Y0088100000Y0048200000D01*

X0088100000Y0048800000Y0088100000Y0048800000D01*

X0087500000Y0048800000Y0087500000Y0048800000D01*

X0087500000Y0048200000Y0087500000Y0048200000D01*

G01*
X0112900000Y0060400000Y0112900000Y0060400000D02*

X0113500000Y0060400000Y0113500000Y0060400000D01*

X0113500000Y0061000000Y0113500000Y0061000000D01*

X0112900000Y0061000000Y0112900000Y0061000000D01*

X0112900000Y0060400000Y0112900000Y0060400000D01*

G01*
X0035400000Y0023400000Y0035400000Y0023400000D02*

X0036000000Y0023400000Y0036000000Y0023400000D01*

X0036000000Y0024000000Y0036000000Y0024000000D01*

X0035400000Y0024000000Y0035400000Y0024000000D01*

X0035400000Y0023400000Y0035400000Y0023400000D01*

G01*
X0035400000Y0025400000Y0035400000Y0025400000D02*

X0036000000Y0025400000Y0036000000Y0025400000D01*

X0036000000Y0026000000Y0036000000Y0026000000D01*

X0035400000Y0026000000Y0035400000Y0026000000D01*

X0035400000Y0025400000Y0035400000Y0025400000D01*

G01*
X0060500000Y0043200000Y0060500000Y0043200000D02*

X0061099999Y0043200000Y0061099999Y0043200000D01*

X0061099999Y0043800000Y0061099999Y0043800000D01*

X0060500000Y0043800000Y0060500000Y0043800000D01*

X0060500000Y0043200000Y0060500000Y0043200000D01*

G01*
X0060500000Y0048200000Y0060500000Y0048200000D02*

X0061099999Y0048200000Y0061099999Y0048200000D01*

X0061099999Y0048800000Y0061099999Y0048800000D01*

X0060500000Y0048800000Y0060500000Y0048800000D01*

X0060500000Y0048200000Y0060500000Y0048200000D01*

G01*
X0048500000Y0043200000Y0048500000Y0043200000D02*

X0049099999Y0043200000Y0049099999Y0043200000D01*

X0049099999Y0043800000Y0049099999Y0043800000D01*

X0048500000Y0043800000Y0048500000Y0043800000D01*

X0048500000Y0043200000Y0048500000Y0043200000D01*

G01*
X0048500000Y0048200000Y0048500000Y0048200000D02*

X0049099999Y0048200000Y0049099999Y0048200000D01*

X0049099999Y0048800000Y0049099999Y0048800000D01*

X0048500000Y0048800000Y0048500000Y0048800000D01*

X0048500000Y0048200000Y0048500000Y0048200000D01*

G01*
X0043500000Y0043200000Y0043500000Y0043200000D02*

X0044099999Y0043200000Y0044099999Y0043200000D01*

X0044099999Y0043800000Y0044099999Y0043800000D01*

X0043500000Y0043800000Y0043500000Y0043800000D01*

X0043500000Y0043200000Y0043500000Y0043200000D01*

G01*
X0043500000Y0048200000Y0043500000Y0048200000D02*

X0044099999Y0048200000Y0044099999Y0048200000D01*

X0044099999Y0048800000Y0044099999Y0048800000D01*

X0043500000Y0048800000Y0043500000Y0048800000D01*

X0043500000Y0048200000Y0043500000Y0048200000D01*

G01*
X0127500000Y0055200000Y0127500000Y0055200000D02*

X0128100000Y0055200000Y0128100000Y0055200000D01*

X0128100000Y0055800000Y0128100000Y0055800000D01*

X0127500000Y0055800000Y0127500000Y0055800000D01*

X0127500000Y0055200000Y0127500000Y0055200000D01*

G01*
X0145000000Y0055200000Y0145000000Y0055200000D02*

X0145600000Y0055200000Y0145600000Y0055200000D01*

X0145600000Y0055800000Y0145600000Y0055800000D01*

X0145000000Y0055800000Y0145000000Y0055800000D01*

X0145000000Y0055200000Y0145000000Y0055200000D01*

G01*
X0140299999Y0080300000Y0140299999Y0080300000D02*

X0141500000Y0080300000Y0141500000Y0080300000D01*

X0141500000Y0081100000Y0141500000Y0081100000D01*

X0140299999Y0081100000Y0140299999Y0081100000D01*

X0140299999Y0080300000Y0140299999Y0080300000D01*

G01*
X0134500000Y0083200000Y0134500000Y0083200000D02*

X0135100000Y0083200000Y0135100000Y0083200000D01*

X0135100000Y0083800000Y0135100000Y0083800000D01*

X0134500000Y0083800000Y0134500000Y0083800000D01*

X0134500000Y0083200000Y0134500000Y0083200000D01*

G01*
X0134500000Y0080200000Y0134500000Y0080200000D02*

X0135100000Y0080200000Y0135100000Y0080200000D01*

X0135100000Y0080800000Y0135100000Y0080800000D01*

X0134500000Y0080800000Y0134500000Y0080800000D01*

X0134500000Y0080200000Y0134500000Y0080200000D01*

G01*
X0134500000Y0077200000Y0134500000Y0077200000D02*

X0135100000Y0077200000Y0135100000Y0077200000D01*

X0135100000Y0077800000Y0135100000Y0077800000D01*

X0134500000Y0077800000Y0134500000Y0077800000D01*

X0134500000Y0077200000Y0134500000Y0077200000D01*

G01*
X0134500000Y0074200000Y0134500000Y0074200000D02*

X0135100000Y0074200000Y0135100000Y0074200000D01*

X0135100000Y0074800000Y0135100000Y0074800000D01*

X0134500000Y0074800000Y0134500000Y0074800000D01*

X0134500000Y0074200000Y0134500000Y0074200000D01*

G01*
X0134500000Y0071200000Y0134500000Y0071200000D02*

X0135100000Y0071200000Y0135100000Y0071200000D01*

X0135100000Y0071800000Y0135100000Y0071800000D01*

X0134500000Y0071800000Y0134500000Y0071800000D01*

X0134500000Y0071200000Y0134500000Y0071200000D01*

G01*
X0137500000Y0083200000Y0137500000Y0083200000D02*

X0138100000Y0083200000Y0138100000Y0083200000D01*

X0138100000Y0083800000Y0138100000Y0083800000D01*

X0137500000Y0083800000Y0137500000Y0083800000D01*

X0137500000Y0083200000Y0137500000Y0083200000D01*

G01*
X0050000000Y0110300000Y0050000000Y0110300000D02*

X0050599999Y0110300000Y0050599999Y0110300000D01*

X0050599999Y0110899999Y0050599999Y0110899999D01*

X0050000000Y0110899999Y0050000000Y0110899999D01*

X0050000000Y0110300000Y0050000000Y0110300000D01*

G01*
X0050000000Y0125300000Y0050000000Y0125300000D02*

X0050599999Y0125300000Y0050599999Y0125300000D01*

X0050599999Y0125899999Y0050599999Y0125899999D01*

X0050000000Y0125899999Y0050000000Y0125899999D01*

X0050000000Y0125300000Y0050000000Y0125300000D01*

G01*
X0062300000Y0093600000Y0062300000Y0093600000D02*

X0062900000Y0093600000Y0062900000Y0093600000D01*

X0062900000Y0094200000Y0062900000Y0094200000D01*

X0062300000Y0094200000Y0062300000Y0094200000D01*

X0062300000Y0093600000Y0062300000Y0093600000D01*

G01*
X0055500000Y0093200000Y0055500000Y0093200000D02*

X0056099999Y0093200000Y0056099999Y0093200000D01*

X0056099999Y0093800000Y0056099999Y0093800000D01*

X0055500000Y0093800000Y0055500000Y0093800000D01*

X0055500000Y0093200000Y0055500000Y0093200000D01*

G01*
X0048500000Y0093200000Y0048500000Y0093200000D02*

X0049099999Y0093200000Y0049099999Y0093200000D01*

X0049099999Y0093800000Y0049099999Y0093800000D01*

X0048500000Y0093800000Y0048500000Y0093800000D01*

X0048500000Y0093200000Y0048500000Y0093200000D01*

G01*
X0062300000Y0110600000Y0062300000Y0110600000D02*

X0062900000Y0110600000Y0062900000Y0110600000D01*

X0062900000Y0111200000Y0062900000Y0111200000D01*

X0062300000Y0111200000Y0062300000Y0111200000D01*

X0062300000Y0110600000Y0062300000Y0110600000D01*

G01*
X0055500000Y0110200000Y0055500000Y0110200000D02*

X0056099999Y0110200000Y0056099999Y0110200000D01*

X0056099999Y0110800000Y0056099999Y0110800000D01*

X0055500000Y0110800000Y0055500000Y0110800000D01*

X0055500000Y0110200000Y0055500000Y0110200000D01*

G01*
X0048500000Y0110200000Y0048500000Y0110200000D02*

X0049099999Y0110200000Y0049099999Y0110200000D01*

X0049099999Y0110800000Y0049099999Y0110800000D01*

X0048500000Y0110800000Y0048500000Y0110800000D01*

X0048500000Y0110200000Y0048500000Y0110200000D01*

G01*
X0062300000Y0127600000Y0062300000Y0127600000D02*

X0062900000Y0127600000Y0062900000Y0127600000D01*

X0062900000Y0128200000Y0062900000Y0128200000D01*

X0062300000Y0128200000Y0062300000Y0128200000D01*

X0062300000Y0127600000Y0062300000Y0127600000D01*

G01*
X0055500000Y0127200000Y0055500000Y0127200000D02*

X0056099999Y0127200000Y0056099999Y0127200000D01*

X0056099999Y0127800000Y0056099999Y0127800000D01*

X0055500000Y0127800000Y0055500000Y0127800000D01*

X0055500000Y0127200000Y0055500000Y0127200000D01*

G01*
X0048500000Y0127200000Y0048500000Y0127200000D02*

X0049099999Y0127200000Y0049099999Y0127200000D01*

X0049099999Y0127800000Y0049099999Y0127800000D01*

X0048500000Y0127800000Y0048500000Y0127800000D01*

X0048500000Y0127200000Y0048500000Y0127200000D01*

G01*
X0062300000Y0144600000Y0062300000Y0144600000D02*

X0062900000Y0144600000Y0062900000Y0144600000D01*

X0062900000Y0145200000Y0062900000Y0145200000D01*

X0062300000Y0145200000Y0062300000Y0145200000D01*

X0062300000Y0144600000Y0062300000Y0144600000D01*

G01*
X0055500000Y0144200000Y0055500000Y0144200000D02*

X0056099999Y0144200000Y0056099999Y0144200000D01*

X0056099999Y0144800000Y0056099999Y0144800000D01*

X0055500000Y0144800000Y0055500000Y0144800000D01*

X0055500000Y0144200000Y0055500000Y0144200000D01*

G01*
X0048500000Y0144200000Y0048500000Y0144200000D02*

X0049099999Y0144200000Y0049099999Y0144200000D01*

X0049099999Y0144800000Y0049099999Y0144800000D01*

X0048500000Y0144800000Y0048500000Y0144800000D01*

X0048500000Y0144200000Y0048500000Y0144200000D01*

G01*
X0190899999Y0020900000Y0190899999Y0020900000D02*

X0191500000Y0020900000Y0191500000Y0020900000D01*

X0191500000Y0021500000Y0191500000Y0021500000D01*

X0190899999Y0021500000Y0190899999Y0021500000D01*

X0190899999Y0020900000Y0190899999Y0020900000D01*

G01*
X0090500000Y0043000000Y0090500000Y0043000000D02*

X0091100000Y0043000000Y0091100000Y0043000000D01*

X0091100000Y0043599999Y0091100000Y0043599999D01*

X0090500000Y0043599999Y0090500000Y0043599999D01*

X0090500000Y0043000000Y0090500000Y0043000000D01*

%ADD10C,0.1000*%

G01*
X0000000000Y0000000000Y0000000000Y0000000000D02*

X0003000000Y0000000000Y0003000000Y0000000000D01*

G01*
X0003000000Y0000000000Y0003000000Y0000000000D02*

X0197000000Y0000000000Y0197000000Y0000000000D01*

G01*
X0197000000Y0000000000Y0197000000Y0000000000D02*

X0200000000Y0003000000Y0200000000Y0003000000D01*

G01*
X0200000000Y0003000000Y0200000000Y0003000000D02*

X0200000000Y0147000000Y0200000000Y0147000000D01*

G01*
X0200000000Y0147000000Y0200000000Y0147000000D02*

X0197000000Y0150000000Y0197000000Y0150000000D01*

G01*
X0197000000Y0150000000Y0197000000Y0150000000D02*

X0003000000Y0150000000Y0003000000Y0150000000D01*

G01*
X0003000000Y0150000000Y0003000000Y0150000000D02*

X0000000000Y0147000000Y0000000000Y0147000000D01*

G01*
X0000000000Y0147000000Y0000000000Y0147000000D02*

X0000000000Y0003000000Y0000000000Y0003000000D01*

G01*
X0000000000Y0003000000Y0000000000Y0003000000D02*

X0000000000Y0000000000Y0000000000Y0000000000D01*

M02*